<svg width="331" height="200" viewBox="0 0 331 200" fill="none" xmlns="http://www.w3.org/2000/svg">
<path d="M146.651 0L138.387 43.3468H321.977L330.242 0H146.651Z" fill="#A1C5E2"/>
<path d="M187.298 25.9921L193.451 25.91C193.3 28.0292 192.733 29.8885 191.749 31.4882C190.778 33.0741 189.472 34.3046 187.832 35.1796C186.191 36.0546 184.304 36.4647 182.172 36.41C180.326 36.369 178.808 35.9725 177.619 35.2206C176.443 34.455 175.534 33.4501 174.891 32.2059C174.249 30.9481 173.845 29.5604 173.681 28.0428C173.531 26.5116 173.551 24.9598 173.743 23.3876L174.461 18.7528C174.707 17.0985 175.124 15.4852 175.712 13.913C176.313 12.3407 177.106 10.9325 178.09 9.68835C179.075 8.43054 180.278 7.44617 181.7 6.73523C183.122 6.01062 184.762 5.66882 186.622 5.70984C188.782 5.75085 190.511 6.24988 191.81 7.20691C193.109 8.16394 194.052 9.44226 194.64 11.0419C195.228 12.6278 195.522 14.412 195.522 16.3944L189.165 16.3534C189.247 15.451 189.254 14.6034 189.185 13.8104C189.131 13.0038 188.884 12.3475 188.447 11.8417C188.009 11.3221 187.244 11.0419 186.15 11.0009C185.111 10.9598 184.263 11.1786 183.607 11.6571C182.964 12.1356 182.459 12.7782 182.089 13.5848C181.72 14.3778 181.447 15.2323 181.269 16.1483C181.091 17.0507 180.948 17.9052 180.839 18.7118L180.182 23.4081C180.087 24.0507 179.984 24.8026 179.875 25.6639C179.765 26.5253 179.745 27.3661 179.813 28.1864C179.881 29.0067 180.121 29.6971 180.531 30.2577C180.941 30.8182 181.631 31.119 182.602 31.16C183.723 31.201 184.605 30.996 185.248 30.5448C185.89 30.08 186.362 29.451 186.663 28.6581C186.964 27.8514 187.175 26.9628 187.298 25.9921Z" fill="#003A57"/>
<path d="M214.635 18.1171L213.713 23.3671H201.859L202.782 18.1171H214.635ZM206.822 6.1405L201.654 35.9999H195.317L200.464 6.1405H206.822ZM221.116 6.1405L215.927 35.9999H209.611L214.799 6.1405H221.116Z" fill="#003A57"/>
<path d="M243.9 18.7323L243.182 23.4696C242.923 25.1786 242.485 26.8192 241.87 28.3915C241.268 29.9637 240.462 31.3583 239.45 32.5751C238.438 33.7919 237.208 34.7489 235.758 35.4462C234.309 36.1298 232.641 36.451 230.755 36.41C228.95 36.369 227.439 35.9794 226.222 35.2411C225.006 34.5028 224.055 33.5253 223.372 32.3085C222.688 31.0917 222.237 29.7245 222.018 28.2069C221.813 26.6893 221.806 25.1376 221.998 23.5516L222.715 18.7938C222.975 17.0985 223.406 15.4647 224.007 13.8925C224.623 12.3202 225.443 10.912 226.468 9.66785C227.494 8.41003 228.731 7.42566 230.18 6.71472C231.63 6.00378 233.311 5.67566 235.225 5.73035C237.03 5.77136 238.534 6.17468 239.737 6.94031C240.954 7.69226 241.897 8.69031 242.567 9.93445C243.251 11.1649 243.695 12.5458 243.9 14.077C244.105 15.6083 244.105 17.16 243.9 18.7323ZM236.825 23.5516L237.522 18.7118C237.604 18.0692 237.679 17.3241 237.748 16.4764C237.816 15.6288 237.789 14.8016 237.666 13.995C237.556 13.1747 237.276 12.4911 236.825 11.9442C236.387 11.3837 235.704 11.0829 234.774 11.0419C233.708 10.9735 232.833 11.1854 232.149 11.6776C231.465 12.1561 230.919 12.7987 230.508 13.6053C230.112 14.3983 229.804 15.2528 229.586 16.1688C229.381 17.0712 229.223 17.9325 229.114 18.7528L228.417 23.5721C228.335 24.2147 228.259 24.9598 228.191 25.8075C228.136 26.6415 228.164 27.4618 228.273 28.2684C228.396 29.0614 228.676 29.7245 229.114 30.2577C229.565 30.7909 230.262 31.078 231.206 31.119C232.231 31.1737 233.079 30.9686 233.749 30.5038C234.432 30.0253 234.979 29.3964 235.389 28.6171C235.799 27.8378 236.107 27.0038 236.312 26.1151C236.531 25.2128 236.702 24.3583 236.825 23.5516Z" fill="#003A57"/>
<path d="M268.509 18.7323L267.792 23.4696C267.532 25.1786 267.094 26.8192 266.479 28.3915C265.878 29.9637 265.071 31.3583 264.059 32.5751C263.048 33.7919 261.817 34.7489 260.368 35.4462C258.919 36.1298 257.251 36.451 255.364 36.41C253.559 36.369 252.048 35.9794 250.832 35.2411C249.615 34.5028 248.665 33.5253 247.981 32.3085C247.298 31.0917 246.846 29.7245 246.628 28.2069C246.423 26.6893 246.416 25.1376 246.607 23.5516L247.325 18.7938C247.585 17.0985 248.015 15.4647 248.617 13.8925C249.232 12.3202 250.052 10.912 251.078 9.66785C252.103 8.41003 253.34 7.42566 254.79 6.71472C256.239 6.00378 257.921 5.67566 259.835 5.73035C261.639 5.77136 263.143 6.17468 264.346 6.94031C265.563 7.69226 266.506 8.69031 267.176 9.93445C267.86 11.1649 268.304 12.5458 268.509 14.077C268.714 15.6083 268.714 17.16 268.509 18.7323ZM261.434 23.5516L262.131 18.7118C262.214 18.0692 262.289 17.3241 262.357 16.4764C262.425 15.6288 262.398 14.8016 262.275 13.995C262.166 13.1747 261.885 12.4911 261.434 11.9442C260.997 11.3837 260.313 11.0829 259.383 11.0419C258.317 10.9735 257.442 11.1854 256.758 11.6776C256.075 12.1561 255.528 12.7987 255.118 13.6053C254.721 14.3983 254.414 15.2528 254.195 16.1688C253.99 17.0712 253.833 17.9325 253.723 18.7528L253.026 23.5721C252.944 24.2147 252.869 24.9598 252.8 25.8075C252.746 26.6415 252.773 27.4618 252.882 28.2684C253.006 29.0614 253.286 29.7245 253.723 30.2577C254.174 30.7909 254.872 31.078 255.815 31.119C256.84 31.1737 257.688 30.9686 258.358 30.5038C259.042 30.0253 259.589 29.3964 259.999 28.6171C260.409 27.8378 260.716 27.0038 260.922 26.1151C261.14 25.2128 261.311 24.3583 261.434 23.5516Z" fill="#003A57"/>
<path d="M283.09 27.9403C283.173 27.3661 283.166 26.8602 283.07 26.4227C282.974 25.9852 282.79 25.6024 282.516 25.2743C282.256 24.9325 281.922 24.6249 281.511 24.3514C281.115 24.078 280.677 23.8182 280.199 23.5721C279.201 23.0936 278.271 22.5673 277.41 21.993C276.548 21.4052 275.79 20.7421 275.133 20.0038C274.477 19.2655 273.985 18.4247 273.657 17.4813C273.329 16.538 273.199 15.4647 273.267 14.2616C273.363 12.9218 273.705 11.7186 274.293 10.6522C274.894 9.57214 275.68 8.66296 276.651 7.92468C277.635 7.1864 278.722 6.63269 279.912 6.26355C281.115 5.88074 282.359 5.703 283.644 5.73035C285.463 5.77136 286.987 6.20203 288.217 7.02234C289.448 7.84265 290.364 8.95007 290.965 10.3446C291.581 11.7255 291.861 13.2704 291.806 14.9794H285.51C285.524 14.3641 285.49 13.7489 285.408 13.1337C285.339 12.5048 285.128 11.9852 284.772 11.5751C284.43 11.1512 283.87 10.9325 283.09 10.9188C282.434 10.9052 281.853 11.0555 281.347 11.37C280.855 11.6844 280.452 12.1014 280.137 12.621C279.823 13.1268 279.618 13.6874 279.522 14.3026C279.454 14.8085 279.502 15.2665 279.666 15.6766C279.843 16.0731 280.089 16.4354 280.404 16.7635C280.718 17.078 281.074 17.3651 281.47 17.6249C281.867 17.8846 282.263 18.1034 282.66 18.2811C283.713 18.787 284.67 19.3407 285.531 19.9423C286.392 20.5438 287.124 21.2274 287.725 21.993C288.34 22.745 288.792 23.6063 289.079 24.577C289.366 25.5477 289.468 26.6552 289.386 27.8993C289.277 29.2802 288.942 30.5038 288.381 31.5702C287.835 32.6366 287.103 33.5389 286.187 34.2772C285.285 35.0018 284.246 35.5487 283.07 35.9178C281.908 36.287 280.657 36.4579 279.317 36.4305C277.854 36.3895 276.548 36.1229 275.4 35.6307C274.265 35.1249 273.308 34.4276 272.529 33.5389C271.763 32.6366 271.182 31.5839 270.786 30.3807C270.403 29.1776 270.246 27.8583 270.314 26.4227L276.672 26.4432C276.631 27.0721 276.624 27.6805 276.651 28.2684C276.692 28.8427 276.815 29.3553 277.02 29.8065C277.225 30.244 277.547 30.5927 277.984 30.8524C278.422 31.1122 279.016 31.2421 279.768 31.2421C280.438 31.2421 280.999 31.0985 281.45 30.8114C281.915 30.5106 282.277 30.1141 282.537 29.6219C282.81 29.1161 282.995 28.5555 283.09 27.9403Z" fill="#003A57"/>
<path d="M309.505 30.7294L308.582 35.9999H295.928L296.851 30.7294H309.505ZM303.209 6.1405L298.041 35.9999H291.704L296.851 6.1405H303.209ZM310.017 18.1171L309.135 23.203H298.143L299.046 18.1171H310.017ZM313.77 6.1405L312.847 11.4315H300.173L301.096 6.1405H313.77Z" fill="#003A57"/>
<path d="M161.259 103.702L152.807 147.048H321.79L330.242 103.702H161.259Z" fill="#FB9306"/>
<path d="M255.666 123.732L254.948 128.47C254.688 130.179 254.251 131.819 253.636 133.392C253.034 134.964 252.227 136.358 251.216 137.575C250.204 138.792 248.974 139.749 247.524 140.446C246.075 141.13 244.407 141.451 242.52 141.41C240.716 141.369 239.205 140.979 237.988 140.241C236.771 139.503 235.821 138.525 235.138 137.309C234.454 136.092 234.003 134.725 233.784 133.207C233.579 131.689 233.572 130.138 233.764 128.552L234.481 123.794C234.741 122.099 235.172 120.465 235.773 118.893C236.389 117.32 237.209 115.912 238.234 114.668C239.26 113.41 240.497 112.426 241.946 111.715C243.395 111.004 245.077 110.676 246.991 110.73C248.796 110.771 250.3 111.175 251.503 111.94C252.72 112.692 253.663 113.69 254.333 114.935C255.017 116.165 255.461 117.546 255.666 119.077C255.871 120.608 255.871 122.16 255.666 123.732ZM248.591 128.552L249.288 123.712C249.37 123.069 249.445 122.324 249.514 121.477C249.582 120.629 249.555 119.802 249.432 118.995C249.322 118.175 249.042 117.491 248.591 116.944C248.153 116.384 247.47 116.083 246.54 116.042C245.474 115.974 244.599 116.186 243.915 116.678C243.231 117.156 242.685 117.799 242.274 118.605C241.878 119.398 241.57 120.253 241.351 121.169C241.146 122.071 240.989 122.933 240.88 123.753L240.183 128.572C240.101 129.215 240.025 129.96 239.957 130.808C239.902 131.642 239.93 132.462 240.039 133.269C240.162 134.062 240.442 134.725 240.88 135.258C241.331 135.791 242.028 136.078 242.972 136.119C243.997 136.174 244.845 135.969 245.515 135.504C246.198 135.025 246.745 134.396 247.155 133.617C247.565 132.838 247.873 132.004 248.078 131.115C248.297 130.213 248.468 129.358 248.591 128.552Z" fill="#003A57"/>
<path d="M263.172 137.145L271.806 111.141H274.923L276.071 114.545L266.986 141H263.5L263.172 137.145ZM266.351 111.141L266.063 137.842L264.566 141H260.547L260.157 111.141H266.351ZM274.882 137.145L282.695 111.141H289.053L279.352 141H275.435L274.882 137.145ZM277.158 111.141L277.773 137.821L276.44 141H272.913L272.011 113.971L273.897 111.141H277.158Z" fill="#003A57"/>
<path d="M312.821 111.141L307.653 141H301.46L296.784 121.641L293.4 141H287.063L292.211 111.141H298.445L303.121 130.5L306.484 111.141H312.821Z" fill="#003A57"/>
<path d="M9.64988 155.984L1 199.331H228.157L236.806 155.984H9.64988Z" fill="#003A57"/>
<path d="M27.8682 169.252L18.0244 193H11.0928L25.2637 163.141H29.6318L27.8682 169.252ZM28.3809 193L26.6992 168.678L26.9453 163.141H31.1084L34.9844 193H28.3809ZM30.4932 181.864L29.5498 187.135H16.6914L17.6348 181.864H30.4932Z" fill="white"/>
<path d="M45.71 193H40.1318L41.0957 187.729L45.9561 187.771C47.4873 187.784 48.6904 187.449 49.5654 186.766C50.4541 186.082 51.1104 185.18 51.5342 184.059C51.958 182.924 52.2656 181.687 52.457 180.347L53.1133 175.732C53.2227 174.953 53.3047 174.146 53.3594 173.312C53.4141 172.479 53.3662 171.699 53.2158 170.975C53.0654 170.25 52.7373 169.662 52.2314 169.211C51.7256 168.746 50.96 168.493 49.9346 168.452L44.2949 168.432L45.2178 163.141L50.1807 163.161C51.958 163.202 53.4824 163.571 54.7539 164.269C56.0391 164.966 57.0645 165.902 57.8301 167.078C58.6094 168.254 59.1357 169.587 59.4092 171.077C59.6963 172.554 59.7373 174.112 59.5322 175.753L58.835 180.367C58.5752 182.131 58.1035 183.785 57.4199 185.33C56.7363 186.861 55.8408 188.208 54.7334 189.37C53.626 190.519 52.3203 191.414 50.8164 192.057C49.3125 192.699 47.6104 193.014 45.71 193ZM49.0117 163.141L43.8438 193H37.5068L42.6543 163.141H49.0117Z" fill="white"/>
<path d="M70.6064 186.007L78.9941 163.141H86.2539L73.334 193H68.6377L70.6064 186.007ZM70.0322 163.141L71.3242 186.602L71.1602 193H66.6279L63.1416 163.141H70.0322Z" fill="white"/>
<path d="M101.491 187.729L100.568 193H87.915L88.8379 187.729H101.491ZM95.1953 163.141L90.0273 193H83.6904L88.8379 163.141H95.1953ZM102.004 175.117L101.122 180.203H90.1299L91.0322 175.117H102.004ZM105.757 163.141L104.834 168.432H92.1602L93.083 163.141H105.757Z" fill="white"/>
<path d="M129.382 163.141L124.214 193H118.021L113.345 173.641L109.961 193H103.624L108.771 163.141H115.006L119.682 182.5L123.045 163.141H129.382Z" fill="white"/>
<path d="M145.193 163.141L140.005 193H133.668L138.856 163.141H145.193ZM152.31 163.141L151.387 168.432H130.981L131.904 163.141H152.31Z" fill="white"/>
<path d="M168.326 163.141H174.663L171.197 183.546C170.924 185.583 170.322 187.354 169.393 188.857C168.463 190.348 167.226 191.496 165.681 192.303C164.136 193.096 162.311 193.472 160.205 193.431C158.209 193.39 156.548 192.959 155.222 192.139C153.896 191.318 152.945 190.17 152.371 188.693C151.797 187.217 151.612 185.501 151.817 183.546L155.283 163.141H161.641L158.236 183.566C158.141 184.346 158.1 185.077 158.113 185.761C158.141 186.444 158.339 187.005 158.708 187.442C159.091 187.88 159.747 188.112 160.677 188.14C161.661 188.194 162.434 188.023 162.994 187.627C163.568 187.217 163.992 186.656 164.266 185.945C164.553 185.221 164.758 184.428 164.881 183.566L168.326 163.141Z" fill="white"/>
<path d="M178.847 163.141L188.137 163.161C189.914 163.216 191.425 163.599 192.669 164.31C193.927 165.021 194.863 166.032 195.479 167.345C196.107 168.644 196.347 170.195 196.196 172C196.087 173.49 195.786 174.803 195.294 175.938C194.802 177.059 194.104 178.036 193.202 178.87C192.313 179.704 191.199 180.436 189.859 181.064L187.645 182.254H179.667L180.569 176.983L185.635 177.024C186.51 177.011 187.234 176.799 187.809 176.389C188.396 175.979 188.848 175.438 189.162 174.769C189.49 174.099 189.702 173.36 189.798 172.554C189.88 171.993 189.914 171.398 189.9 170.77C189.9 170.141 189.75 169.607 189.449 169.17C189.162 168.732 188.643 168.493 187.891 168.452L184.302 168.432L180.036 193H173.699L178.847 163.141ZM186.824 193L183.892 179.731L190.311 179.711L193.612 192.672L193.592 193H186.824Z" fill="white"/>
<path d="M214.284 187.729L213.361 193H200.708L201.631 187.729H214.284ZM207.988 163.141L202.82 193H196.483L201.631 163.141H207.988ZM214.797 175.117L213.915 180.203H202.923L203.825 175.117H214.797ZM218.55 163.141L217.627 168.432H204.953L205.876 163.141H218.55Z" fill="white"/>
<path d="M9.25877 53.7017L0.806641 97.0484H165.79L174.242 53.7017H9.25877Z" fill="#CA3D15"/>
<path d="M20.0488 61.1406L21.792 74.2861L28.1289 61.1406H35.2246L24.0479 80.541L22.2432 91H15.8037L17.7314 79.8848L13.4043 61.1406H20.0488Z" fill="white"/>
<path d="M55.3633 73.7324L54.6455 78.4697C54.3857 80.1787 53.9482 81.8193 53.333 83.3916C52.7314 84.9639 51.9248 86.3584 50.9131 87.5752C49.9014 88.792 48.6709 89.749 47.2217 90.4463C45.7725 91.1299 44.1045 91.4512 42.2178 91.4102C40.4131 91.3691 38.9023 90.9795 37.6855 90.2412C36.4688 89.5029 35.5186 88.5254 34.835 87.3086C34.1514 86.0918 33.7002 84.7246 33.4814 83.207C33.2764 81.6895 33.2695 80.1377 33.4609 78.5518L34.1787 73.7939C34.4385 72.0986 34.8691 70.4648 35.4707 68.8926C36.0859 67.3203 36.9062 65.9121 37.9316 64.668C38.957 63.4102 40.1943 62.4258 41.6436 61.7148C43.0928 61.0039 44.7744 60.6758 46.6885 60.7305C48.4932 60.7715 49.9971 61.1748 51.2002 61.9404C52.417 62.6924 53.3604 63.6904 54.0303 64.9346C54.7139 66.165 55.1582 67.5459 55.3633 69.0771C55.5684 70.6084 55.5684 72.1602 55.3633 73.7324ZM48.2881 78.5518L48.9854 73.7119C49.0674 73.0693 49.1426 72.3242 49.2109 71.4766C49.2793 70.6289 49.252 69.8018 49.1289 68.9951C49.0195 68.1748 48.7393 67.4912 48.2881 66.9443C47.8506 66.3838 47.167 66.083 46.2373 66.042C45.1709 65.9736 44.2959 66.1855 43.6123 66.6777C42.9287 67.1562 42.3818 67.7988 41.9717 68.6055C41.5752 69.3984 41.2676 70.2529 41.0488 71.1689C40.8438 72.0713 40.6865 72.9326 40.5771 73.7529L39.8799 78.5723C39.7979 79.2148 39.7227 79.96 39.6543 80.8076C39.5996 81.6416 39.627 82.4619 39.7363 83.2686C39.8594 84.0615 40.1396 84.7246 40.5771 85.2578C41.0283 85.791 41.7256 86.0781 42.6689 86.1191C43.6943 86.1738 44.542 85.9688 45.2119 85.5039C45.8955 85.0254 46.4424 84.3965 46.8525 83.6172C47.2627 82.8379 47.5703 82.0039 47.7754 81.1152C47.9941 80.2129 48.165 79.3584 48.2881 78.5518Z" fill="white"/>
<path d="M74.3945 61.1406H80.7314L77.2656 81.5459C76.9922 83.583 76.3906 85.3535 75.4609 86.8574C74.5312 88.3477 73.2939 89.4961 71.749 90.3027C70.2041 91.0957 68.3789 91.4717 66.2734 91.4307C64.2773 91.3896 62.6162 90.959 61.29 90.1387C59.9639 89.3184 59.0137 88.1699 58.4395 86.6934C57.8652 85.2168 57.6807 83.501 57.8857 81.5459L61.3516 61.1406H67.709L64.3047 81.5664C64.209 82.3457 64.168 83.0771 64.1816 83.7607C64.209 84.4443 64.4072 85.0049 64.7764 85.4424C65.1592 85.8799 65.8154 86.1123 66.7451 86.1396C67.7295 86.1943 68.502 86.0234 69.0625 85.627C69.6367 85.2168 70.0605 84.6562 70.334 83.9453C70.6211 83.2207 70.8262 82.4277 70.9492 81.5664L74.3945 61.1406Z" fill="white"/>
<path d="M84.915 61.1406L94.2051 61.1611C95.9824 61.2158 97.4932 61.5986 98.7373 62.3096C99.9951 63.0205 100.932 64.0322 101.547 65.3447C102.176 66.6436 102.415 68.1953 102.265 70C102.155 71.4902 101.854 72.8027 101.362 73.9375C100.87 75.0586 100.173 76.0361 99.2705 76.8701C98.3818 77.7041 97.2676 78.4355 95.9277 79.0645L93.7129 80.2539H85.7354L86.6377 74.9834L91.7031 75.0244C92.5781 75.0107 93.3027 74.7988 93.877 74.3887C94.4648 73.9785 94.916 73.4385 95.2305 72.7686C95.5586 72.0986 95.7705 71.3604 95.8662 70.5537C95.9482 69.9932 95.9824 69.3984 95.9688 68.7695C95.9688 68.1406 95.8184 67.6074 95.5176 67.1699C95.2305 66.7324 94.7109 66.4932 93.959 66.4521L90.3701 66.4316L86.1045 91H79.7676L84.915 61.1406ZM92.8926 91L89.96 77.7314L96.3789 77.7109L99.6807 90.6719L99.6602 91H92.8926Z" fill="white"/>
<path d="M37.0414 21.9995L45.6273 13.3821C45.7667 13.2423 45.8452 13.0524 45.8452 12.8546C45.8452 12.6568 45.7667 12.4669 45.6273 12.3271L37.567 4.23625C37.4276 4.0963 37.2384 4.01758 37.0414 4.01758C36.8443 4.01758 36.6551 4.0963 36.5158 4.23625L27.9298 12.8536L19.3253 4.21867C19.186 4.07872 18.9967 4 18.7997 4C18.6026 4 18.4134 4.07872 18.2741 4.21867L10.2179 12.3085C10.0784 12.4483 10 12.6382 10 12.836C10 13.0338 10.0784 13.2237 10.2179 13.3635L18.8224 21.9995L10.2179 30.6344C10.0784 30.7742 10 30.9642 10 31.1619C10 31.3597 10.0784 31.5496 10.2179 31.6895L18.2741 39.7813C18.4134 39.9213 18.6026 40 18.7997 40C18.9967 40 19.186 39.9213 19.3253 39.7813L25.3986 33.6858C25.3986 33.6858 25.5945 29.9445 21.2216 24.4127L36.5158 39.7627C36.6551 39.9027 36.8443 39.9814 37.0414 39.9814C37.2384 39.9814 37.4276 39.9027 37.567 39.7627L45.6273 31.6729C45.7667 31.5331 45.8452 31.3432 45.8452 31.1454C45.8452 30.9476 45.7667 30.7577 45.6273 30.6179L37.0414 21.9995Z" fill="white"/>
<path d="M121.964 21.9996L129.909 8.70998C129.968 8.61161 129.999 8.49897 129.999 8.38415C129.999 8.03691 129.715 7.75112 129.368 7.75112H119.483C119.261 7.75164 119.055 7.86976 118.942 8.06143L116.286 12.503L113.631 8.05833C113.518 7.86666 113.311 7.74853 113.09 7.74801H103.204C102.858 7.74801 102.573 8.03381 102.573 8.38105C102.573 8.49586 102.604 8.60851 102.663 8.70688L110.608 21.9965L103.579 33.7552L100.316 26.9935C101.813 26.1964 103.054 24.9869 103.891 23.5077C104.73 22.0265 105.149 20.2256 105.15 18.1052C105.15 14.7352 104.12 12.1668 102.058 10.4001C99.9971 8.63343 97.209 7.75008 93.694 7.75008H80.7238C80.7231 7.75008 80.7225 7.75008 80.7218 7.75008C80.3497 7.75008 80.0436 8.05729 80.0436 8.4307C80.0436 8.43101 80.0436 8.43142 80.0436 8.43173V13.435C79.5452 12.2669 78.7847 11.23 77.8216 10.4053C75.7604 8.63861 72.9713 7.75526 69.4542 7.75526H56.483C56.111 7.75526 55.8049 8.06246 55.8049 8.43587V35.5674C55.8049 35.9408 56.111 36.248 56.483 36.248H64.7536C65.1256 36.248 65.4317 35.9408 65.4317 35.5674V28.4613H69.4511C72.9709 28.4613 75.7601 27.5779 77.8185 25.8112C78.7834 24.9858 79.545 23.9474 80.0436 22.7774V35.5674C80.0436 35.9408 80.3497 36.248 80.7218 36.248H88.8295C89.2016 36.248 89.5076 35.9408 89.5076 35.5674V28.4613H91.3359L94.8297 35.7401C94.9786 36.0501 95.2926 36.2481 95.6356 36.248H113.09C113.311 36.2475 113.518 36.1294 113.631 35.9377L116.287 31.4961L118.943 35.9377C119.056 36.1294 119.262 36.2475 119.484 36.248H129.369C129.716 36.248 130 35.9622 130 35.615C130 35.5001 129.969 35.3875 129.91 35.2891L121.964 21.9996ZM67.5032 21.2455H65.4317V14.9669H67.5032C69.9671 14.9669 71.1993 16.0134 71.2 18.1062C71.2007 20.199 69.9684 21.2455 67.5032 21.2455ZM89.5097 21.2455V14.9669H91.6626C94.1265 14.9669 95.3587 16.0134 95.3594 18.1062C95.3601 20.199 94.1281 21.2455 91.6637 21.2455H89.5097Z" fill="white"/>
<path d="M190.269 65.9443L184.28 90H177.328L186.618 60.1406H190.945L190.269 65.9443ZM194.985 90L188.977 65.9443L188.197 60.1406H192.606L201.938 90H194.985ZM195.211 78.8643V84.1348H181.983V78.8643H195.211Z" fill="white"/>
<path d="M225.665 60.1406V90H219.287L210.838 71.4199V90H204.48V60.1406H210.858L219.328 78.8232V60.1406H225.665Z" fill="white"/>
<path d="M251.3 60.1406V90H244.922L236.473 71.4199V90H230.115V60.1406H236.493L244.963 78.8232V60.1406H251.3Z" fill="white"/>
<path d="M269.039 60.1406H275.561V80.5459C275.561 82.8564 275.137 84.7432 274.289 86.2061C273.455 87.6553 272.293 88.7217 270.803 89.4053C269.312 90.0752 267.583 90.4102 265.614 90.4102C263.632 90.4102 261.889 90.0752 260.385 89.4053C258.881 88.7217 257.705 87.6553 256.857 86.2061C256.023 84.7432 255.606 82.8564 255.606 80.5459V60.1406H262.148V80.5459C262.148 81.8174 262.278 82.7881 262.538 83.458C262.798 84.1143 263.181 84.5586 263.687 84.791C264.206 85.0234 264.849 85.1396 265.614 85.1396C266.394 85.1396 267.029 85.0234 267.521 84.791C268.027 84.5586 268.403 84.1143 268.649 83.458C268.909 82.7881 269.039 81.8174 269.039 80.5459V60.1406Z" fill="white"/>
<path d="M290.47 65.9443L284.481 90H277.529L286.819 60.1406H291.146L290.47 65.9443ZM295.187 90L289.178 65.9443L288.398 60.1406H292.808L302.139 90H295.187ZM295.412 78.8643V84.1348H282.185V78.8643H295.412Z" fill="white"/>
<path d="M321.539 84.7295V90H309.05V84.7295H321.539ZM311.203 60.1406V90H304.682V60.1406H311.203Z" fill="white"/>
<path d="M12.2354 113.141H22.1406C24.1367 113.141 25.8525 113.482 27.2881 114.166C28.7236 114.85 29.8242 115.861 30.5898 117.201C31.3691 118.541 31.7588 120.195 31.7588 122.164C31.7588 123.832 31.54 125.24 31.1025 126.389C30.665 127.523 30.0498 128.467 29.2568 129.219C28.4639 129.971 27.5273 130.579 26.4473 131.044L24.376 132.254H16.4805L16.46 126.983H21.9766C22.7148 126.983 23.3232 126.812 23.8018 126.471C24.2803 126.129 24.6357 125.644 24.8682 125.015C25.1143 124.372 25.2373 123.613 25.2373 122.738C25.2373 121.836 25.1211 121.063 24.8887 120.421C24.6699 119.778 24.335 119.286 23.8838 118.944C23.4463 118.603 22.8652 118.432 22.1406 118.432H18.7568V143H12.2354V113.141ZM25.6475 143L20.2539 129.731L27.1035 129.711L32.6201 142.692V143H25.6475Z" fill="white"/>
<path d="M53.1484 137.729V143H40.126V137.729H53.1484ZM42.2793 113.141V143H35.7578V113.141H42.2793ZM51.4258 125.117V130.203H40.126V125.117H51.4258ZM53.1484 113.141V118.432H40.126V113.141H53.1484Z" fill="white"/>
<path d="M66.6221 132.685H60.5723V127.394H66.6016C67.3945 127.394 68.0303 127.216 68.5088 126.86C68.9873 126.491 69.3359 125.992 69.5547 125.363C69.7734 124.721 69.8828 123.996 69.8828 123.189C69.8828 122.342 69.7734 121.556 69.5547 120.831C69.3359 120.106 68.9873 119.525 68.5088 119.088C68.0303 118.65 67.4014 118.432 66.6221 118.432H62.8076V143H56.3066V113.141H66.6221C68.6592 113.141 70.4092 113.571 71.8721 114.433C73.3486 115.294 74.4834 116.477 75.2764 117.98C76.0693 119.484 76.4658 121.207 76.4658 123.148C76.4658 125.062 76.0693 126.737 75.2764 128.173C74.4834 129.595 73.3486 130.702 71.8721 131.495C70.4092 132.288 68.6592 132.685 66.6221 132.685Z" fill="white"/>
<path d="M101.69 125.794V130.552C101.69 132.671 101.431 134.537 100.911 136.15C100.392 137.75 99.6465 139.09 98.6758 140.17C97.7188 141.25 96.5703 142.063 95.2305 142.61C93.9043 143.144 92.4346 143.41 90.8213 143.41C89.1943 143.41 87.7109 143.144 86.3711 142.61C85.0312 142.063 83.876 141.25 82.9053 140.17C81.9346 139.09 81.1826 137.75 80.6494 136.15C80.1299 134.537 79.8701 132.671 79.8701 130.552V125.794C79.8701 123.647 80.1299 121.761 80.6494 120.134C81.1826 118.493 81.9277 117.133 82.8848 116.053C83.8555 114.959 85.0039 114.132 86.3301 113.571C87.6699 113.011 89.1533 112.73 90.7803 112.73C92.4072 112.73 93.8838 113.011 95.21 113.571C96.5498 114.132 97.6982 114.959 98.6553 116.053C99.626 117.133 100.371 118.493 100.891 120.134C101.424 121.761 101.69 123.647 101.69 125.794ZM95.1484 130.552V125.753C95.1484 124.372 95.0527 123.196 94.8613 122.226C94.6836 121.255 94.4102 120.462 94.041 119.847C93.6719 119.231 93.2139 118.78 92.667 118.493C92.1338 118.206 91.5049 118.062 90.7803 118.062C90.042 118.062 89.3994 118.206 88.8525 118.493C88.3057 118.78 87.8477 119.231 87.4785 119.847C87.123 120.462 86.8564 121.255 86.6787 122.226C86.5146 123.196 86.4326 124.372 86.4326 125.753V130.552C86.4326 131.892 86.5215 133.04 86.6992 133.997C86.877 134.954 87.1504 135.733 87.5195 136.335C87.8887 136.937 88.3467 137.381 88.8936 137.668C89.4404 137.955 90.083 138.099 90.8213 138.099C91.5322 138.099 92.1543 137.955 92.6875 137.668C93.2344 137.381 93.6855 136.937 94.041 136.335C94.4102 135.733 94.6836 134.954 94.8613 133.997C95.0527 133.04 95.1484 131.892 95.1484 130.552Z" fill="white"/>
<path d="M105.71 113.141H115.615C117.611 113.141 119.327 113.482 120.763 114.166C122.198 114.85 123.299 115.861 124.064 117.201C124.844 118.541 125.233 120.195 125.233 122.164C125.233 123.832 125.015 125.24 124.577 126.389C124.14 127.523 123.524 128.467 122.731 129.219C121.938 129.971 121.002 130.579 119.922 131.044L117.851 132.254H109.955L109.935 126.983H115.451C116.189 126.983 116.798 126.812 117.276 126.471C117.755 126.129 118.11 125.644 118.343 125.015C118.589 124.372 118.712 123.613 118.712 122.738C118.712 121.836 118.596 121.063 118.363 120.421C118.145 119.778 117.81 119.286 117.358 118.944C116.921 118.603 116.34 118.432 115.615 118.432H112.231V143H105.71V113.141ZM119.122 143L113.729 129.731L120.578 129.711L126.095 142.692V143H119.122Z" fill="white"/>
<path d="M140.676 113.141V143H134.175V113.141H140.676ZM147.997 113.141V118.432H127.018V113.141H147.997Z" fill="white"/>
<path d="M258.646 187.935V193H240.846V188.693L248.905 178.521C249.616 177.496 250.177 176.587 250.587 175.794C251.011 175.001 251.312 174.283 251.489 173.641C251.681 172.998 251.776 172.41 251.776 171.877C251.776 171.002 251.681 170.264 251.489 169.662C251.312 169.047 251.045 168.582 250.689 168.268C250.334 167.939 249.896 167.775 249.377 167.775C248.775 167.775 248.27 167.987 247.859 168.411C247.449 168.835 247.142 169.416 246.937 170.154C246.731 170.879 246.629 171.706 246.629 172.636H240.354C240.354 170.817 240.729 169.156 241.481 167.652C242.247 166.148 243.313 164.952 244.681 164.063C246.048 163.161 247.654 162.71 249.5 162.71C251.373 162.71 252.945 163.052 254.217 163.735C255.488 164.419 256.445 165.403 257.088 166.688C257.73 167.96 258.052 169.491 258.052 171.282C258.052 172.294 257.915 173.278 257.642 174.235C257.368 175.179 256.979 176.115 256.473 177.045C255.98 177.961 255.372 178.911 254.647 179.896C253.923 180.866 253.089 181.885 252.146 182.951L248.946 187.935H258.646Z" fill="white"/>
<path d="M279.852 175.404V180.716C279.852 182.917 279.633 184.817 279.195 186.417C278.771 188.003 278.17 189.315 277.391 190.354C276.611 191.394 275.682 192.166 274.602 192.672C273.535 193.164 272.359 193.41 271.074 193.41C270.049 193.41 269.085 193.253 268.183 192.938C267.28 192.61 266.46 192.118 265.722 191.462C264.997 190.806 264.375 189.979 263.855 188.98C263.336 187.982 262.933 186.8 262.646 185.433C262.372 184.052 262.235 182.479 262.235 180.716V175.404C262.235 173.189 262.447 171.289 262.871 169.703C263.309 168.117 263.917 166.805 264.696 165.766C265.489 164.727 266.426 163.961 267.506 163.469C268.586 162.977 269.769 162.73 271.054 162.73C272.079 162.73 273.036 162.888 273.925 163.202C274.827 163.517 275.641 164.002 276.365 164.658C277.09 165.314 277.712 166.142 278.231 167.14C278.765 168.138 279.168 169.327 279.441 170.708C279.715 172.075 279.852 173.641 279.852 175.404ZM273.638 181.536V174.543C273.638 173.531 273.597 172.649 273.515 171.897C273.433 171.146 273.316 170.51 273.166 169.99C273.029 169.471 272.852 169.054 272.633 168.739C272.414 168.411 272.168 168.172 271.895 168.021C271.635 167.871 271.354 167.796 271.054 167.796C270.657 167.796 270.302 167.912 269.987 168.145C269.673 168.377 269.399 168.76 269.167 169.293C268.935 169.812 268.757 170.503 268.634 171.364C268.524 172.226 268.47 173.285 268.47 174.543V181.536C268.47 182.548 268.511 183.437 268.593 184.202C268.675 184.954 268.784 185.597 268.921 186.13C269.071 186.663 269.249 187.094 269.454 187.422C269.673 187.75 269.919 187.989 270.192 188.14C270.466 188.276 270.76 188.345 271.074 188.345C271.457 188.345 271.806 188.229 272.12 187.996C272.435 187.764 272.701 187.381 272.92 186.848C273.152 186.314 273.33 185.61 273.453 184.735C273.576 183.86 273.638 182.794 273.638 181.536Z" fill="white"/>
<path d="M301.385 187.935V193H283.584V188.693L291.644 178.521C292.354 177.496 292.915 176.587 293.325 175.794C293.749 175.001 294.05 174.283 294.228 173.641C294.419 172.998 294.515 172.41 294.515 171.877C294.515 171.002 294.419 170.264 294.228 169.662C294.05 169.047 293.783 168.582 293.428 168.268C293.072 167.939 292.635 167.775 292.115 167.775C291.514 167.775 291.008 167.987 290.598 168.411C290.188 168.835 289.88 169.416 289.675 170.154C289.47 170.879 289.367 171.706 289.367 172.636H283.092C283.092 170.817 283.468 169.156 284.22 167.652C284.985 166.148 286.052 164.952 287.419 164.063C288.786 163.161 290.393 162.71 292.238 162.71C294.111 162.71 295.684 163.052 296.955 163.735C298.227 164.419 299.184 165.403 299.826 166.688C300.469 167.96 300.79 169.491 300.79 171.282C300.79 172.294 300.653 173.278 300.38 174.235C300.106 175.179 299.717 176.115 299.211 177.045C298.719 177.961 298.11 178.911 297.386 179.896C296.661 180.866 295.827 181.885 294.884 182.951L291.685 187.935H301.385Z" fill="white"/>
<path d="M310.265 175.302H313.136C313.792 175.302 314.325 175.145 314.735 174.83C315.159 174.502 315.467 174.044 315.658 173.456C315.863 172.868 315.966 172.171 315.966 171.364C315.966 170.681 315.87 170.072 315.679 169.539C315.487 169.006 315.2 168.582 314.817 168.268C314.435 167.939 313.949 167.775 313.361 167.775C312.951 167.775 312.555 167.898 312.172 168.145C311.789 168.391 311.481 168.746 311.249 169.211C311.017 169.662 310.9 170.202 310.9 170.831H304.625C304.625 169.177 305.015 167.741 305.794 166.524C306.573 165.308 307.612 164.371 308.911 163.715C310.21 163.045 311.632 162.71 313.177 162.71C314.954 162.71 316.52 163.031 317.873 163.674C319.227 164.316 320.286 165.273 321.052 166.545C321.817 167.816 322.2 169.382 322.2 171.241C322.2 172.226 322.009 173.169 321.626 174.071C321.243 174.96 320.696 175.753 319.985 176.45C319.274 177.147 318.427 177.694 317.442 178.091C316.472 178.487 315.392 178.686 314.202 178.686H310.265V175.302ZM310.265 180.203V176.901H314.202C315.528 176.901 316.711 177.079 317.75 177.435C318.789 177.79 319.664 178.303 320.375 178.973C321.1 179.629 321.646 180.436 322.016 181.393C322.398 182.35 322.59 183.423 322.59 184.612C322.59 186.007 322.351 187.251 321.872 188.345C321.394 189.438 320.724 190.361 319.862 191.113C319.001 191.865 317.996 192.439 316.848 192.836C315.713 193.219 314.476 193.41 313.136 193.41C312.069 193.41 311.01 193.246 309.957 192.918C308.904 192.576 307.954 192.05 307.106 191.339C306.272 190.628 305.603 189.726 305.097 188.632C304.591 187.538 304.338 186.246 304.338 184.756H310.572C310.572 185.426 310.695 186.034 310.941 186.581C311.188 187.128 311.516 187.559 311.926 187.873C312.35 188.188 312.814 188.345 313.32 188.345C313.949 188.345 314.489 188.181 314.94 187.853C315.392 187.524 315.733 187.073 315.966 186.499C316.212 185.911 316.335 185.248 316.335 184.51C316.335 183.471 316.212 182.637 315.966 182.008C315.72 181.379 315.357 180.921 314.879 180.634C314.414 180.347 313.84 180.203 313.156 180.203H310.265Z" fill="white"/>
<path d="M135.726 22.5L141.5 28.2735L147.274 22.5L141.5 16.7265L135.726 22.5ZM160.5 22.5L161.478 22.7065L161.733 21.5H160.5V22.5ZM149 77L148.022 76.7935L147.767 78H149V77ZM175.707 77.7071C176.098 77.3166 176.098 76.6834 175.707 76.2929L169.343 69.9289C168.953 69.5384 168.319 69.5384 167.929 69.9289C167.538 70.3195 167.538 70.9526 167.929 71.3431L173.586 77L167.929 82.6569C167.538 83.0474 167.538 83.6805 167.929 84.0711C168.319 84.4616 168.953 84.4616 169.343 84.0711L175.707 77.7071ZM141.5 23.5H160.5V21.5H141.5V23.5ZM159.522 22.2935L148.022 76.7935L149.978 77.2065L161.478 22.7065L159.522 22.2935ZM149 78H175V76H149V78Z" fill="white"/>
<path d="M150.726 128.5L156.5 134.274L162.274 128.5L156.5 122.726L150.726 128.5ZM229.5 128.5L230.483 128.685L230.706 127.5H229.5V128.5ZM220 179L219.017 178.815L218.794 180H220V179ZM240.707 179.707C241.098 179.317 241.098 178.683 240.707 178.293L234.343 171.929C233.953 171.538 233.319 171.538 232.929 171.929C232.538 172.319 232.538 172.953 232.929 173.343L238.586 179L232.929 184.657C232.538 185.047 232.538 185.681 232.929 186.071C233.319 186.462 233.953 186.462 234.343 186.071L240.707 179.707ZM156.5 129.5H229.5V127.5H156.5V129.5ZM228.517 128.315L219.017 178.815L220.983 179.185L230.483 128.685L228.517 128.315ZM220 180H240V178H220V180Z" fill="white"/>
</svg>
