<svg width="384" height="236" viewBox="0 0 384 236" fill="none" xmlns="http://www.w3.org/2000/svg">
<path d="M199.03 0L189.975 47.5037H374.695L383.75 0H199.03Z" fill="#CA3D15"/>
<path d="M230.096 29.5536H236.305C236.22 31.8867 235.75 33.8571 234.897 35.4647C234.043 37.058 232.827 38.2673 231.248 39.0924C229.684 39.9175 227.792 40.3301 225.573 40.3301C223.852 40.3301 222.323 40.0456 220.986 39.4765C219.649 38.8932 218.511 38.0397 217.573 36.9158C216.634 35.7919 215.923 34.4048 215.439 32.7546C214.97 31.0901 214.735 29.1766 214.735 27.0142V21.7433C214.735 19.5809 214.984 17.6675 215.482 16.003C215.994 14.3385 216.719 12.9443 217.658 11.8204C218.611 10.6823 219.756 9.82874 221.093 9.25969C222.444 8.67641 223.966 8.38477 225.659 8.38477C227.92 8.38477 229.812 8.81156 231.334 9.66514C232.856 10.5187 234.029 11.7635 234.854 13.3996C235.693 15.0214 236.198 17.006 236.369 19.3533H230.118C230.089 17.8738 229.926 16.7143 229.627 15.875C229.343 15.0214 228.887 14.4239 228.262 14.0824C227.636 13.7268 226.768 13.5489 225.659 13.5489C224.834 13.5489 224.123 13.6983 223.525 13.9971C222.928 14.2816 222.437 14.744 222.053 15.3841C221.669 16.0243 221.385 16.8637 221.2 17.9022C221.029 18.9407 220.944 20.2069 220.944 21.7007V27.0142C220.944 28.4795 221.022 29.7314 221.178 30.77C221.335 31.7943 221.584 32.6336 221.925 33.288C222.266 33.9425 222.729 34.419 223.312 34.7178C223.909 35.0165 224.663 35.1659 225.573 35.1659C226.626 35.1659 227.472 35.0094 228.112 34.6965C228.766 34.3835 229.25 33.8215 229.563 33.0106C229.876 32.1997 230.054 31.0474 230.096 29.5536Z" fill="#F5F5F5"/>
<path d="M257.427 21.4232V26.5874H244.69V21.4232H257.427ZM246.46 8.8329V39.9033H240.209V8.8329H246.46ZM261.95 8.8329V39.9033H255.763V8.8329H261.95Z" fill="#F5F5F5"/>
<path d="M288.875 21.9567V27.1422C288.875 29.3331 288.604 31.2537 288.064 32.9039C287.538 34.54 286.784 35.9128 285.802 37.0225C284.835 38.1179 283.662 38.943 282.282 39.4979C280.917 40.0527 279.402 40.3301 277.738 40.3301C276.074 40.3301 274.552 40.0527 273.172 39.4979C271.807 38.943 270.626 38.1179 269.63 37.0225C268.649 35.9128 267.888 34.54 267.347 32.9039C266.807 31.2537 266.537 29.3331 266.537 27.1422V21.9567C266.537 19.709 266.8 17.7457 267.326 16.067C267.852 14.3741 268.613 12.9657 269.609 11.8418C270.605 10.7037 271.785 9.85008 273.151 9.28103C274.516 8.69775 276.031 8.40611 277.695 8.40611C279.359 8.40611 280.874 8.69775 282.239 9.28103C283.605 9.85008 284.785 10.7037 285.781 11.8418C286.777 12.9657 287.538 14.3741 288.064 16.067C288.604 17.7457 288.875 19.709 288.875 21.9567ZM282.666 27.1422V21.9141C282.666 20.4345 282.559 19.1755 282.346 18.1369C282.133 17.0842 281.813 16.2235 281.386 15.5549C280.959 14.8862 280.44 14.3954 279.829 14.0824C279.217 13.7695 278.506 13.613 277.695 13.613C276.884 13.613 276.166 13.7695 275.54 14.0824C274.929 14.3954 274.409 14.8862 273.983 15.5549C273.57 16.2235 273.257 17.0842 273.044 18.1369C272.845 19.1755 272.745 20.4345 272.745 21.9141V27.1422C272.745 28.5649 272.852 29.7812 273.065 30.7913C273.279 31.8014 273.599 32.6265 274.025 33.2667C274.452 33.9069 274.971 34.3835 275.583 34.6965C276.209 34.9952 276.927 35.1446 277.738 35.1446C278.534 35.1446 279.238 34.9952 279.85 34.6965C280.476 34.3835 280.995 33.9069 281.407 33.2667C281.82 32.6265 282.133 31.8014 282.346 30.7913C282.559 29.7812 282.666 28.5649 282.666 27.1422Z" fill="#F5F5F5"/>
<path d="M315.245 21.9567V27.1422C315.245 29.3331 314.975 31.2537 314.434 32.9039C313.908 34.54 313.154 35.9128 312.173 37.0225C311.205 38.1179 310.032 38.943 308.652 39.4979C307.287 40.0527 305.772 40.3301 304.108 40.3301C302.444 40.3301 300.922 40.0527 299.542 39.4979C298.177 38.943 296.996 38.1179 296.001 37.0225C295.019 35.9128 294.258 34.54 293.718 32.9039C293.177 31.2537 292.907 29.3331 292.907 27.1422V21.9567C292.907 19.709 293.17 17.7457 293.696 16.067C294.223 14.3741 294.984 12.9657 295.979 11.8418C296.975 10.7037 298.155 9.85008 299.521 9.28103C300.886 8.69775 302.401 8.40611 304.065 8.40611C305.729 8.40611 307.244 8.69775 308.61 9.28103C309.975 9.85008 311.156 10.7037 312.151 11.8418C313.147 12.9657 313.908 14.3741 314.434 16.067C314.975 17.7457 315.245 19.709 315.245 21.9567ZM309.036 27.1422V21.9141C309.036 20.4345 308.93 19.1755 308.716 18.1369C308.503 17.0842 308.183 16.2235 307.756 15.5549C307.329 14.8862 306.81 14.3954 306.199 14.0824C305.587 13.7695 304.876 13.613 304.065 13.613C303.254 13.613 302.536 13.7695 301.91 14.0824C301.299 14.3954 300.78 14.8862 300.353 15.5549C299.94 16.2235 299.628 17.0842 299.414 18.1369C299.215 19.1755 299.115 20.4345 299.115 21.9141V27.1422C299.115 28.5649 299.222 29.7812 299.436 30.7913C299.649 31.8014 299.969 32.6265 300.396 33.2667C300.822 33.9069 301.341 34.3835 301.953 34.6965C302.579 34.9952 303.297 35.1446 304.108 35.1446C304.904 35.1446 305.608 34.9952 306.22 34.6965C306.846 34.3835 307.365 33.9069 307.778 33.2667C308.19 32.6265 308.503 31.8014 308.716 30.7913C308.93 29.7812 309.036 28.5649 309.036 27.1422Z" fill="#F5F5F5"/>
<path d="M332.932 31.7303C332.932 31.1754 332.882 30.6704 332.782 30.2151C332.683 29.7599 332.469 29.3402 332.142 28.9561C331.829 28.572 331.367 28.1879 330.755 27.8038C330.158 27.4197 329.376 27.0213 328.409 26.6088C327.256 26.1251 326.14 25.6129 325.059 25.0723C323.978 24.5175 323.004 23.8773 322.136 23.1517C321.268 22.4262 320.579 21.5726 320.067 20.591C319.569 19.5952 319.32 18.4286 319.32 17.0913C319.32 15.7825 319.555 14.5946 320.024 13.5276C320.507 12.4606 321.19 11.5501 322.072 10.7961C322.954 10.0279 323.985 9.43752 325.166 9.02495C326.36 8.61239 327.69 8.40611 329.155 8.40611C331.147 8.40611 332.868 8.81867 334.318 9.6438C335.783 10.4689 336.914 11.5999 337.711 13.0368C338.521 14.4737 338.927 16.1239 338.927 17.9876H332.697C332.697 17.1055 332.569 16.3302 332.313 15.6616C332.071 14.9787 331.68 14.4452 331.139 14.0611C330.599 13.677 329.902 13.4849 329.049 13.4849C328.252 13.4849 327.591 13.6485 327.064 13.9757C326.552 14.2887 326.168 14.7226 325.912 15.2774C325.671 15.818 325.55 16.4298 325.55 17.1126C325.55 17.6248 325.671 18.0872 325.912 18.4997C326.168 18.8981 326.517 19.2608 326.958 19.588C327.399 19.901 327.918 20.2069 328.515 20.5056C329.127 20.8044 329.795 21.096 330.521 21.3806C331.929 21.9354 333.173 22.5471 334.254 23.2158C335.335 23.8702 336.239 24.61 336.964 25.4351C337.689 26.246 338.237 27.1636 338.607 28.1879C338.977 29.2122 339.161 30.3787 339.161 31.6876C339.161 32.9822 338.934 34.163 338.479 35.2299C338.038 36.2827 337.391 37.1932 336.537 37.9614C335.684 38.7154 334.653 39.2987 333.444 39.7113C332.249 40.1238 330.912 40.3301 329.433 40.3301C327.996 40.3301 326.638 40.1309 325.358 39.7326C324.078 39.32 322.947 38.7012 321.965 37.8761C320.998 37.0367 320.237 35.9768 319.683 34.6965C319.128 33.4019 318.85 31.8725 318.85 30.1084H325.102C325.102 31.0474 325.194 31.8512 325.379 32.5198C325.564 33.1742 325.848 33.7006 326.232 34.0989C326.616 34.4831 327.086 34.7747 327.641 34.9739C328.209 35.1588 328.857 35.2513 329.582 35.2513C330.407 35.2513 331.061 35.0948 331.545 34.7818C332.043 34.4688 332.398 34.0492 332.612 33.5228C332.825 32.9964 332.932 32.3989 332.932 31.7303Z" fill="#F5F5F5"/>
<path d="M361.201 34.7391V39.9033H347.696V34.7391H361.201ZM349.637 8.8329V39.9033H343.386V8.8329H349.637ZM359.387 21.4232V26.438H347.696V21.4232H359.387ZM361.158 8.8329V14.0184H347.696V8.8329H361.158Z" fill="#F5F5F5"/>
<path d="M267.627 113.646L258.367 161.15H374.489L383.75 113.646H267.627Z" fill="#CA3D15"/>
<path d="M302.454 135.603V140.789C302.454 142.98 302.184 144.9 301.643 146.551C301.117 148.187 300.363 149.559 299.382 150.669C298.415 151.765 297.241 152.59 295.862 153.144C294.496 153.699 292.981 153.977 291.317 153.977C289.653 153.977 288.131 153.699 286.752 153.144C285.386 152.59 284.206 151.765 283.21 150.669C282.229 149.559 281.468 148.187 280.927 146.551C280.387 144.9 280.116 142.98 280.116 140.789V135.603C280.116 133.356 280.379 131.392 280.906 129.714C281.432 128.021 282.193 126.612 283.189 125.488C284.184 124.35 285.365 123.497 286.73 122.928C288.096 122.344 289.61 122.053 291.275 122.053C292.939 122.053 294.454 122.344 295.819 122.928C297.184 123.497 298.365 124.35 299.361 125.488C300.356 126.612 301.117 128.021 301.643 129.714C302.184 131.392 302.454 133.356 302.454 135.603ZM296.246 140.789V135.561C296.246 134.081 296.139 132.822 295.926 131.784C295.712 130.731 295.392 129.87 294.966 129.201C294.539 128.533 294.02 128.042 293.408 127.729C292.796 127.416 292.085 127.26 291.275 127.26C290.464 127.26 289.746 127.416 289.12 127.729C288.508 128.042 287.989 128.533 287.562 129.201C287.15 129.87 286.837 130.731 286.624 131.784C286.424 132.822 286.325 134.081 286.325 135.561V140.789C286.325 142.212 286.432 143.428 286.645 144.438C286.858 145.448 287.178 146.273 287.605 146.913C288.032 147.554 288.551 148.03 289.162 148.343C289.788 148.642 290.507 148.791 291.317 148.791C292.114 148.791 292.818 148.642 293.429 148.343C294.055 148.03 294.574 147.554 294.987 146.913C295.399 146.273 295.712 145.448 295.926 144.438C296.139 143.428 296.246 142.212 296.246 140.789Z" fill="#F5F5F5"/>
<path d="M313.335 148.898L318.306 122.48H321.592L322.573 126.577L317.239 153.55H313.676L313.335 148.898ZM311.628 122.48L315.639 148.962L314.957 153.55H311.031L305.462 122.48H311.628ZM326.179 148.855L330.168 122.48H336.313L330.787 153.55H326.84L326.179 148.855ZM323.491 122.48L328.504 149.047L328.099 153.55H324.536L319.224 126.534L320.226 122.48H323.491Z" fill="#F5F5F5"/>
<path d="M361.488 122.48V153.55H355.451L345.7 134.11V153.55H339.769V122.48H345.722L355.557 142.133V122.48H361.488Z" fill="#F5F5F5"/>
<path d="M224.153 70.8056L211.036 101.512H202.984L221.01 63.6875H226.075L224.153 70.8056ZM225.114 101.512L222.516 70.1822L222.932 63.6875H227.737L232.75 101.512H225.114ZM227.789 87.406L226.672 93.7188H210.049L211.166 87.406H227.789Z" fill="white"/>
<path d="M268.567 63.6875L261.995 101.512H254.749L248.1 76.3131L243.736 101.512H236.308L242.827 63.6875H250.1L256.801 88.9127L261.164 63.6875H268.567Z" fill="white"/>
<path d="M300.15 63.6875L293.579 101.512H286.332L279.683 76.3131L275.32 101.512H267.891L274.411 63.6875H281.683L288.384 88.9127L292.748 63.6875H300.15Z" fill="white"/>
<path d="M322.513 63.6875H329.915L325.5 89.6401C325.154 92.186 324.392 94.4029 323.214 96.2906C322.054 98.1611 320.504 99.5986 318.565 100.603C316.626 101.608 314.34 102.093 311.708 102.058C309.215 102.006 307.145 101.46 305.501 100.421C303.856 99.3648 302.678 97.9186 301.968 96.0828C301.276 94.2297 301.068 92.0908 301.345 89.6661L305.76 63.6875H313.137L308.799 89.6921C308.678 90.7312 308.661 91.7098 308.747 92.6277C308.834 93.5283 309.145 94.2643 309.682 94.8358C310.219 95.3901 311.102 95.6931 312.331 95.7451C313.63 95.7971 314.669 95.5632 315.448 95.0437C316.245 94.5241 316.842 93.7967 317.24 92.8615C317.656 91.9089 317.959 90.8525 318.149 89.6921L322.513 63.6875Z" fill="white"/>
<path d="M347.058 70.8056L333.941 101.512H325.889L343.915 63.6875H348.98L347.058 70.8056ZM348.019 101.512L345.421 70.1822L345.837 63.6875H350.642L355.655 101.512H348.019ZM350.694 87.406L349.577 93.7188H332.954L334.071 87.406H350.694Z" fill="white"/>
<path d="M380.719 95.2255L379.602 101.512H364.33L365.421 95.2255H380.719ZM373.187 63.6875L366.641 101.512H359.213L365.732 63.6875H373.187Z" fill="white"/>
<path d="M300.87 208.594L299.883 214.647H278.247L279.104 209.217L290.818 196.436C291.511 195.605 292.229 194.721 292.974 193.786C293.718 192.834 294.359 191.829 294.896 190.773C295.45 189.716 295.805 188.625 295.961 187.499C296.03 186.893 296.047 186.183 296.013 185.369C295.978 184.555 295.779 183.836 295.415 183.213C295.052 182.589 294.437 182.269 293.571 182.252C292.463 182.234 291.589 182.581 290.948 183.291C290.307 184.001 289.831 184.867 289.519 185.889C289.225 186.91 289.034 187.837 288.948 188.668L281.909 188.72C282.065 186.486 282.671 184.417 283.727 182.511C284.801 180.606 286.221 179.082 287.987 177.939C289.77 176.779 291.84 176.225 294.194 176.277C296.307 176.311 298.073 176.787 299.493 177.705C300.93 178.606 301.978 179.853 302.636 181.446C303.294 183.022 303.528 184.824 303.337 186.85C303.199 188.357 302.835 189.777 302.246 191.11C301.657 192.444 300.939 193.7 300.09 194.877C299.242 196.055 298.324 197.198 297.337 198.306C296.35 199.415 295.363 200.497 294.376 201.554L288.506 208.594H300.87Z" fill="white"/>
<path d="M329.18 192.409L328.193 198.956C327.916 200.792 327.501 202.662 326.947 204.567C326.393 206.472 325.622 208.248 324.635 209.893C323.648 211.521 322.384 212.828 320.843 213.816C319.319 214.786 317.449 215.236 315.233 215.167C313.536 215.132 312.125 214.76 310.999 214.049C309.891 213.339 309.017 212.413 308.376 211.27C307.735 210.127 307.285 208.854 307.025 207.451C306.766 206.048 306.636 204.619 306.636 203.164C306.653 201.692 306.748 200.298 306.921 198.982L307.908 192.409C308.168 190.591 308.584 188.738 309.155 186.85C309.726 184.945 310.497 183.178 311.467 181.55C312.454 179.922 313.718 178.623 315.259 177.653C316.817 176.684 318.705 176.233 320.921 176.303C322.6 176.337 323.994 176.71 325.103 177.42C326.211 178.13 327.085 179.056 327.726 180.199C328.367 181.325 328.817 182.589 329.076 183.992C329.336 185.378 329.457 186.798 329.44 188.253C329.44 189.707 329.354 191.093 329.18 192.409ZM320.973 199.995L322.246 191.318C322.28 190.937 322.341 190.392 322.427 189.682C322.514 188.954 322.575 188.183 322.609 187.369C322.661 186.538 322.626 185.75 322.505 185.005C322.384 184.243 322.15 183.611 321.804 183.109C321.458 182.589 320.93 182.321 320.22 182.304C319.198 182.234 318.376 182.529 317.752 183.187C317.129 183.845 316.635 184.685 316.272 185.707C315.925 186.711 315.666 187.733 315.492 188.772C315.337 189.811 315.207 190.669 315.103 191.344L313.882 200.021C313.848 200.402 313.778 200.956 313.674 201.684C313.588 202.394 313.527 203.173 313.493 204.022C313.458 204.853 313.493 205.65 313.596 206.412C313.7 207.174 313.925 207.815 314.272 208.334C314.635 208.836 315.172 209.114 315.882 209.165C316.886 209.235 317.709 208.94 318.35 208.282C318.99 207.607 319.484 206.749 319.83 205.71C320.176 204.671 320.427 203.623 320.583 202.567C320.756 201.51 320.886 200.653 320.973 199.995Z" fill="white"/>
<path d="M353.128 208.594L352.141 214.647H330.505L331.362 209.217L343.076 196.436C343.769 195.605 344.487 194.721 345.232 193.786C345.976 192.834 346.617 191.829 347.154 190.773C347.708 189.716 348.063 188.625 348.219 187.499C348.288 186.893 348.305 186.183 348.271 185.369C348.236 184.555 348.037 183.836 347.673 183.213C347.31 182.589 346.695 182.269 345.829 182.252C344.721 182.234 343.847 182.581 343.206 183.291C342.565 184.001 342.089 184.867 341.777 185.889C341.483 186.91 341.293 187.837 341.206 188.668L334.167 188.72C334.323 186.486 334.929 184.417 335.985 182.511C337.059 180.606 338.479 179.082 340.245 177.939C342.028 176.779 344.098 176.225 346.453 176.277C348.565 176.311 350.331 176.787 351.751 177.705C353.188 178.606 354.236 179.853 354.894 181.446C355.552 183.022 355.786 184.824 355.595 186.85C355.457 188.357 355.093 189.777 354.504 191.11C353.915 192.444 353.197 193.7 352.348 194.877C351.5 196.055 350.582 197.198 349.595 198.306C348.608 199.415 347.621 200.497 346.634 201.554L340.764 208.594H353.128Z" fill="white"/>
<path d="M366.452 192.383L369.595 192.409C370.634 192.409 371.499 192.149 372.192 191.63C372.885 191.11 373.404 190.444 373.75 189.63C374.114 188.816 374.348 187.941 374.452 187.006C374.521 186.33 374.504 185.637 374.4 184.927C374.296 184.2 374.036 183.585 373.62 183.083C373.222 182.563 372.599 182.286 371.75 182.252C370.971 182.252 370.313 182.477 369.776 182.927C369.257 183.36 368.841 183.906 368.53 184.564C368.235 185.222 368.028 185.889 367.906 186.564L360.79 186.59C360.928 184.598 361.508 182.814 362.53 181.238C363.552 179.645 364.885 178.407 366.53 177.524C368.192 176.623 370.045 176.19 372.088 176.225C374.166 176.259 375.949 176.735 377.439 177.653C378.945 178.554 380.07 179.801 380.815 181.394C381.56 182.97 381.854 184.798 381.698 186.876C381.612 188.313 381.257 189.63 380.633 190.825C380.01 192.02 379.196 193.041 378.192 193.89C377.187 194.721 376.045 195.371 374.763 195.838C373.499 196.289 372.166 196.514 370.763 196.514L365.803 196.488L366.452 192.383ZM365.543 198.28L366.166 194.306L370.4 194.332C371.837 194.366 373.136 194.6 374.296 195.033C375.456 195.466 376.443 196.09 377.257 196.904C378.071 197.718 378.659 198.705 379.023 199.865C379.404 201.025 379.542 202.35 379.438 203.84C379.317 205.502 378.919 207.044 378.244 208.464C377.568 209.867 376.668 211.079 375.542 212.101C374.434 213.123 373.144 213.902 371.672 214.439C370.218 214.976 368.651 215.227 366.971 215.192C365.378 215.141 363.976 214.829 362.764 214.257C361.569 213.686 360.573 212.906 359.777 211.919C358.98 210.915 358.392 209.763 358.011 208.464C357.63 207.148 357.465 205.736 357.517 204.23L364.556 204.281C364.539 204.957 364.608 205.667 364.764 206.412C364.919 207.139 365.222 207.763 365.673 208.282C366.123 208.802 366.781 209.07 367.647 209.088C368.651 209.122 369.491 208.88 370.166 208.36C370.841 207.823 371.369 207.139 371.75 206.308C372.131 205.459 372.365 204.602 372.452 203.736C372.556 202.87 372.547 202.039 372.426 201.242C372.322 200.445 372.027 199.77 371.543 199.216C371.075 198.661 370.339 198.358 369.335 198.306L365.543 198.28Z" fill="white"/>
<path d="M9.47743 170.943L0 218.447H248.889L258.366 170.943H9.47743Z" fill="#CA3D15"/>
<path d="M34.6584 185.324L27.9805 210.846H21.3879L31.0954 179.775H35.2131L34.6584 185.324ZM39.9281 210.846L33.2076 185.324L32.5889 179.775H36.7706L46.5634 210.846H39.9281ZM40.1628 199.258V204.444H26.1457V199.258H40.1628Z" fill="#F5F5F5"/>
<path d="M57.6363 210.846H52.1532L52.1958 205.682H57.6363C59.144 205.682 60.3174 205.411 61.1566 204.871C61.9958 204.33 62.586 203.477 62.9274 202.31C63.283 201.143 63.4608 199.614 63.4608 197.722V192.878C63.4608 191.441 63.3683 190.225 63.1834 189.229C62.9985 188.219 62.6856 187.408 62.2447 186.796C61.8037 186.17 61.2135 185.708 60.4739 185.409C59.7342 185.11 58.8168 184.961 57.7216 184.961H52.0465V179.775H57.7216C59.5138 179.775 61.1424 180.067 62.6074 180.65C64.0724 181.234 65.3312 182.087 66.3837 183.211C67.4362 184.321 68.247 185.694 68.8159 187.33C69.3848 188.966 69.6693 190.829 69.6693 192.921V197.722C69.6693 199.827 69.3848 201.691 68.8159 203.313C68.247 204.935 67.4362 206.308 66.3837 207.431C65.3454 208.541 64.0866 209.388 62.6074 209.971C61.1281 210.554 59.4711 210.846 57.6363 210.846ZM55.7801 179.775V210.846H49.5289V179.775H55.7801Z" fill="#F5F5F5"/>
<path d="M83.4304 204.209L89.3189 179.775H96.0608L87.0574 210.846H82.513L83.4304 204.209ZM78.3954 179.775L84.2625 204.209L85.2226 210.846H80.6569L71.7175 179.775H78.3954Z" fill="#F5F5F5"/>
<path d="M116.841 205.682V210.846H103.336V205.682H116.841ZM105.278 179.775V210.846H99.0264V179.775H105.278ZM115.028 192.366V197.381H103.336V192.366H115.028ZM116.799 179.775V184.961H103.336V179.775H116.799Z" fill="#F5F5F5"/>
<path d="M142.209 179.775V210.846H136.171L126.421 191.405V210.846H120.49V179.775H126.442L136.278 199.429V179.775H142.209Z" fill="#F5F5F5"/>
<path d="M158.978 179.775V210.846H152.77V179.775H158.978ZM166.701 179.775V184.961H145.196V179.775H166.701Z" fill="#F5F5F5"/>
<path d="M184.282 179.775H190.511V201.115C190.511 203.505 190.07 205.454 189.189 206.962C188.321 208.456 187.119 209.551 185.583 210.248C184.047 210.931 182.29 211.273 180.313 211.273C178.322 211.273 176.551 210.931 175.001 210.248C173.45 209.551 172.241 208.456 171.374 206.962C170.52 205.454 170.094 203.505 170.094 201.115V179.775H176.324V201.115C176.324 202.466 176.473 203.505 176.772 204.231C177.084 204.956 177.532 205.454 178.116 205.724C178.713 205.98 179.446 206.108 180.313 206.108C181.195 206.108 181.92 205.98 182.489 205.724C183.073 205.454 183.513 204.956 183.812 204.231C184.125 203.505 184.282 202.466 184.282 201.115V179.775Z" fill="#F5F5F5"/>
<path d="M195.312 179.775H205.275C207.352 179.775 209.123 180.131 210.588 180.842C212.053 181.554 213.176 182.606 213.959 184.001C214.741 185.395 215.132 187.116 215.132 189.165C215.132 190.844 214.904 192.28 214.449 193.475C213.994 194.656 213.347 195.645 212.508 196.442C211.669 197.224 210.666 197.85 209.5 198.319L207.601 199.45H199.515L199.493 194.265H205.105C205.958 194.265 206.662 194.08 207.217 193.71C207.786 193.326 208.205 192.793 208.476 192.11C208.76 191.413 208.902 190.602 208.902 189.677C208.902 188.695 208.774 187.856 208.518 187.159C208.276 186.448 207.885 185.907 207.345 185.537C206.818 185.153 206.129 184.961 205.275 184.961H201.563V210.846H195.312V179.775ZM209.414 210.846L203.718 196.996L210.268 196.975L216.092 210.547V210.846H209.414Z" fill="#F5F5F5"/>
<path d="M237.299 205.682V210.846H223.794V205.682H237.299ZM225.736 179.775V210.846H219.484V179.775H225.736ZM235.486 192.366V197.381H223.794V192.366H235.486ZM237.257 179.775V184.961H223.794V179.775H237.257Z" fill="#F5F5F5"/>
<path d="M11.1443 59.125L1.89978 106.629H138.936L148.181 59.125H11.1443Z" fill="#CA3D15"/>
<path d="M33.7224 67.958L38.4588 81.9568L43.1525 67.958H49.9584L41.5951 87.7398V99.0285H35.3012V87.7398L26.9379 67.958H33.7224Z" fill="#F5F5F5"/>
<path d="M74.0245 81.0819V86.2674C74.0245 88.4583 73.7542 90.3788 73.2137 92.0291C72.6875 93.6651 71.9336 95.038 70.9522 96.1476C69.985 97.243 68.8116 98.0682 67.4319 98.623C66.0665 99.1778 64.5517 99.4552 62.8875 99.4552C61.2234 99.4552 59.7015 99.1778 58.3218 98.623C56.9564 98.0682 55.7758 97.243 54.7802 96.1476C53.7988 95.038 53.0378 93.6651 52.4973 92.0291C51.9568 90.3788 51.6866 88.4583 51.6866 86.2674V81.0819C51.6866 78.8341 51.9497 76.8709 52.476 75.1922C53.0023 73.4992 53.7632 72.0908 54.7588 70.9669C55.7545 69.8288 56.935 68.9752 58.3005 68.4062C59.6659 67.8229 61.1807 67.5312 62.8449 67.5312C64.509 67.5312 66.0238 67.8229 67.3892 68.4062C68.7547 68.9752 69.9352 69.8288 70.9309 70.9669C71.9265 72.0908 72.6875 73.4992 73.2137 75.1922C73.7542 76.8709 74.0245 78.8341 74.0245 81.0819ZM67.8159 86.2674V81.0392C67.8159 79.5597 67.7093 78.3006 67.4959 77.2621C67.2826 76.2093 66.9625 75.3486 66.5358 74.68C66.1091 74.0114 65.59 73.5206 64.9784 73.2076C64.3668 72.8946 63.6556 72.7381 62.8449 72.7381C62.0341 72.7381 61.3158 72.8946 60.69 73.2076C60.0784 73.5206 59.5592 74.0114 59.1325 74.68C58.7201 75.3486 58.4072 76.2093 58.1938 77.2621C57.9947 78.3006 57.8951 79.5597 57.8951 81.0392V86.2674C57.8951 87.69 58.0018 88.9064 58.2151 89.9165C58.4285 90.9265 58.7485 91.7517 59.1752 92.3918C59.6019 93.032 60.1211 93.5086 60.7327 93.8216C61.3585 94.1204 62.0768 94.2697 62.8875 94.2697C63.684 94.2697 64.3881 94.1204 64.9997 93.8216C65.6255 93.5086 66.1447 93.032 66.5572 92.3918C66.9696 91.7517 67.2826 90.9265 67.4959 89.9165C67.7093 88.9064 67.8159 87.69 67.8159 86.2674Z" fill="#F5F5F5"/>
<path d="M92.522 67.958H98.7518V89.2976C98.7518 91.6876 98.3109 93.6367 97.4291 95.1447C96.5614 96.6384 95.3596 97.7339 93.8234 98.4309C92.2873 99.1138 90.5307 99.4552 88.5537 99.4552C86.5624 99.4552 84.7916 99.1138 83.2412 98.4309C81.6909 97.7339 80.4819 96.6384 79.6143 95.1447C78.7608 93.6367 78.3341 91.6876 78.3341 89.2976V67.958H84.564V89.2976C84.564 90.6491 84.7133 91.6876 85.012 92.4132C85.3249 93.1387 85.773 93.6367 86.3561 93.907C86.9535 94.163 87.686 94.2911 88.5537 94.2911C89.4355 94.2911 90.1609 94.163 90.7298 93.907C91.313 93.6367 91.7539 93.1387 92.0526 92.4132C92.3655 91.6876 92.522 90.6491 92.522 89.2976V67.958Z" fill="#F5F5F5"/>
<path d="M103.552 67.958H113.516C115.592 67.958 117.363 68.3137 118.828 69.025C120.293 69.7363 121.417 70.7891 122.199 72.1833C122.981 73.5775 123.373 75.2989 123.373 77.3475C123.373 79.0262 123.145 80.463 122.69 81.658C122.235 82.8388 121.588 83.8276 120.748 84.6242C119.909 85.4067 118.906 86.0327 117.74 86.5021L115.841 87.6331H107.755L107.734 82.4476H113.345C114.198 82.4476 114.903 82.2627 115.457 81.8928C116.026 81.5087 116.446 80.9752 116.716 80.2923C117 79.5952 117.143 78.7843 117.143 77.8596C117.143 76.878 117.015 76.0386 116.759 75.3415C116.517 74.6302 116.126 74.0896 115.585 73.7197C115.059 73.3356 114.369 73.1436 113.516 73.1436H109.803V99.0285H103.552V67.958ZM117.655 99.0285L111.958 85.1791L118.508 85.1577L124.333 98.7297V99.0285H117.655Z" fill="#F5F5F5"/>
<path fill-rule="evenodd" clip-rule="evenodd" d="M263.116 127.523L274.084 138.494L263.116 149.464L254.047 140.394H197.158L191.458 163.196H275.98L267.459 198.349H263.571C262.682 203.037 258.563 206.583 253.617 206.583C248.021 206.583 243.485 202.045 243.485 196.449C243.485 190.852 248.021 186.314 253.617 186.314C258.563 186.314 262.682 189.86 263.571 194.548H264.471L271.149 166.996H186.592L194.191 136.594H254.047L263.116 127.523Z" fill="#FB9306"/>
<path d="M16.9383 119.525L28.3665 119.551C30.6349 119.62 32.5396 120.114 34.0806 121.032C35.639 121.932 36.7905 123.214 37.5351 124.877C38.2969 126.522 38.5827 128.479 38.3922 130.748C38.2363 132.635 37.8294 134.289 37.1714 135.71C36.5308 137.112 35.6304 138.342 34.4702 139.399C33.3101 140.438 31.8902 141.347 30.2106 142.126L27.6912 143.477H17.7695L18.8604 137.164L25.1459 137.216C26.306 137.199 27.293 136.931 28.1068 136.411C28.9206 135.891 29.5613 135.19 30.0288 134.307C30.5137 133.423 30.8253 132.445 30.9639 131.371C31.0677 130.557 31.0764 129.735 30.9898 128.903C30.9206 128.072 30.6608 127.37 30.2106 126.799C29.7604 126.227 29.0418 125.916 28.0549 125.864L23.3018 125.838L17.8474 157.35H10.4191L16.9383 119.525ZM27.2237 157.35L23.4057 140.49L30.8859 140.464L35.1455 156.934V157.35H27.2237Z" fill="white"/>
<path d="M61.1447 151.063L60.0278 157.35H44.0803L45.1452 151.063H61.1447ZM52.9372 119.525L46.3919 157.35H38.9636L45.4829 119.525H52.9372ZM61.82 134.852L60.7551 140.957H46.9114L47.9503 134.852H61.82ZM66.5471 119.525L65.4303 125.838H49.5087L50.6255 119.525H66.5471Z" fill="white"/>
<path d="M79.5597 144.049L71.5859 144.023L72.7028 137.71L79.8714 137.762C81.0488 137.745 82.0358 137.467 82.8323 136.931C83.6461 136.376 84.2781 135.666 84.7283 134.8C85.1959 133.917 85.5075 132.939 85.6634 131.865C85.7673 131.068 85.7759 130.219 85.6893 129.319C85.6028 128.401 85.3257 127.622 84.8582 126.981C84.408 126.323 83.6808 125.959 82.6765 125.89L77.1701 125.838L71.7158 157.35H64.3134L70.8327 119.525L83.0141 119.551C85.3171 119.62 87.2564 120.209 88.8321 121.317C90.4251 122.409 91.5853 123.872 92.3125 125.708C93.0571 127.544 93.3341 129.579 93.1436 131.813C92.9185 134.307 92.1913 136.472 90.9619 138.307C89.7498 140.126 88.1655 141.546 86.2088 142.568C84.2522 143.572 82.0358 144.066 79.5597 144.049Z" fill="white"/>
<path d="M123.169 135.502L122.234 141.763C121.905 143.893 121.359 145.945 120.597 147.92C119.835 149.877 118.822 151.608 117.558 153.115C116.294 154.622 114.762 155.808 112.961 156.674C111.16 157.523 109.074 157.921 106.702 157.869C104.433 157.817 102.537 157.332 101.014 156.415C99.5071 155.497 98.3296 154.276 97.4812 152.752C96.6327 151.227 96.0786 149.522 95.8189 147.634C95.5765 145.729 95.5765 143.789 95.8189 141.815L96.7539 135.528C97.0829 133.38 97.6284 131.319 98.3902 129.345C99.1521 127.353 100.165 125.569 101.429 123.993C102.71 122.417 104.26 121.179 106.078 120.278C107.896 119.36 110.009 118.936 112.416 119.005C114.719 119.057 116.623 119.568 118.13 120.538C119.636 121.508 120.805 122.79 121.636 124.383C122.467 125.959 122.995 127.717 123.221 129.657C123.446 131.579 123.428 133.527 123.169 135.502ZM114.883 141.815L115.792 135.398C115.913 134.515 116 133.519 116.052 132.41C116.121 131.285 116.061 130.193 115.87 129.137C115.68 128.063 115.281 127.171 114.675 126.461C114.069 125.751 113.134 125.37 111.87 125.318C110.485 125.249 109.325 125.526 108.39 126.149C107.472 126.773 106.728 127.613 106.156 128.669C105.585 129.709 105.143 130.826 104.832 132.021C104.537 133.216 104.303 134.359 104.13 135.45L103.247 141.841C103.126 142.741 103.039 143.737 102.987 144.828C102.936 145.919 103.013 146.976 103.221 147.997C103.446 149.002 103.862 149.842 104.468 150.517C105.091 151.176 106.035 151.531 107.299 151.583C108.632 151.652 109.749 151.392 110.65 150.803C111.55 150.197 112.286 149.4 112.857 148.413C113.429 147.426 113.87 146.352 114.182 145.192C114.494 144.014 114.727 142.888 114.883 141.815Z" fill="white"/>
<path d="M131.376 119.525L142.804 119.551C145.073 119.62 146.977 120.114 148.518 121.032C150.077 121.932 151.228 123.214 151.973 124.877C152.735 126.522 153.02 128.479 152.83 130.748C152.674 132.635 152.267 134.289 151.609 135.71C150.969 137.112 150.068 138.342 148.908 139.399C147.748 140.438 146.328 141.347 144.648 142.126L142.129 143.477H132.207L133.298 137.164L139.584 137.216C140.744 137.199 141.731 136.931 142.545 136.411C143.358 135.891 143.999 135.19 144.467 134.307C144.951 133.423 145.263 132.445 145.402 131.371C145.506 130.557 145.514 129.735 145.428 128.903C145.358 128.072 145.099 127.37 144.648 126.799C144.198 126.227 143.48 125.916 142.493 125.864L137.74 125.838L132.285 157.35H124.857L131.376 119.525ZM141.662 157.35L137.843 140.49L145.324 140.464L149.583 156.934V157.35H141.662Z" fill="white"/>
<path d="M173.323 119.525L166.752 157.35H159.349L165.92 119.525H173.323ZM182.413 119.525L181.323 125.838H155.895L156.986 119.525H182.413Z" fill="white"/>
<path d="M43.7467 22.8011L54.6208 11.885C54.7974 11.7078 54.8968 11.4673 54.8968 11.2167C54.8968 10.9662 54.7974 10.7256 54.6208 10.5485L44.4124 0.299274C44.2359 0.121989 43.9963 0.0222752 43.7467 0.0222752C43.4971 0.0222752 43.2575 0.121989 43.081 0.299274L32.2069 11.2154L21.3093 0.276998C21.1328 0.0997142 20.8932 0 20.6436 0C20.394 0 20.1544 0.0997142 19.9779 0.276998L9.77471 10.5249C9.59811 10.702 9.49878 10.9426 9.49878 11.1931C9.49878 11.4437 9.59811 11.6842 9.77471 11.8614L20.6723 22.8011L9.77471 33.7396C9.59811 33.9167 9.49878 34.1573 9.49878 34.4078C9.49878 34.6583 9.59811 34.8989 9.77471 35.0761L19.9779 45.3266C20.1544 45.5039 20.394 45.6036 20.6436 45.6036C20.8932 45.6036 21.1328 45.5039 21.3093 45.3266L29.0012 37.605C29.0012 37.605 29.2492 32.8656 23.711 25.8581L43.081 45.303C43.2575 45.4803 43.4971 45.58 43.7467 45.58C43.9963 45.58 44.2359 45.4803 44.4124 45.303L54.6208 35.0551C54.7974 34.878 54.8968 34.6374 54.8968 34.3869C54.8968 34.1363 54.7974 33.8957 54.6208 33.7186L43.7467 22.8011Z" fill="white"/>
<path d="M151.302 22.8012L161.364 5.96644C161.439 5.84183 161.478 5.69914 161.478 5.5537C161.478 5.11383 161.117 4.75179 160.679 4.75179H148.159C147.878 4.75244 147.617 4.90208 147.474 5.14488L144.11 10.7713L140.748 5.14095C140.604 4.89815 140.343 4.74851 140.062 4.74786H127.542C127.104 4.74786 126.743 5.1099 126.743 5.54976C126.743 5.69521 126.782 5.8379 126.857 5.96251L136.919 22.7973L128.017 37.6928L123.884 29.1274C125.78 28.1177 127.351 26.5855 128.412 24.7117C129.474 22.8353 130.006 20.5541 130.007 17.8679C130.007 13.599 128.701 10.3455 126.091 8.10748C123.48 5.86948 119.949 4.75048 115.497 4.75048H99.0706C99.0697 4.75048 99.0689 4.75048 99.068 4.75048C98.5968 4.75048 98.2091 5.13964 98.2091 5.61266C98.2091 5.61305 98.2091 5.61358 98.2091 5.61397V11.9519C97.5779 10.4722 96.6148 9.15874 95.395 8.11403C92.7845 5.87603 89.2521 4.75703 84.7976 4.75703H68.3696C67.8984 4.75703 67.5107 5.14619 67.5107 5.61921V39.9885C67.5107 40.4615 67.8984 40.8507 68.3696 40.8507H78.8443C79.3155 40.8507 79.7032 40.4615 79.7032 39.9885V30.9867H84.7937C89.2515 30.9867 92.7841 29.8677 95.3911 27.6297C96.6131 26.5841 97.5777 25.2687 98.2091 23.7866V39.9885C98.2091 40.4615 98.5968 40.8507 99.068 40.8507H109.336C109.808 40.8507 110.195 40.4615 110.195 39.9885V30.9867H112.511L116.936 40.2073C117.124 40.6 117.522 40.8508 117.956 40.8507H140.062C140.343 40.85 140.604 40.7004 140.748 40.4576L144.111 34.8311L147.475 40.4576C147.618 40.7004 147.879 40.85 148.16 40.8507H160.68C161.119 40.8507 161.479 40.4886 161.479 40.0488C161.479 39.9033 161.44 39.7606 161.365 39.636L151.302 22.8012ZM82.3267 21.846H79.7032V13.8925H82.3267C85.4472 13.8925 87.0078 15.2181 87.0087 17.8692C87.0096 20.5204 85.4489 21.846 82.3267 21.846ZM110.198 21.846V13.8925H112.925C116.045 13.8925 117.606 15.2181 117.607 17.8692C117.608 20.5204 116.047 21.846 112.926 21.846H110.198Z" fill="white"/>
<path d="M134.873 84.3843L143.533 93.0445L152.193 84.3843L143.533 75.724L134.873 84.3843ZM164.899 84.3843V85.8843H166.075L166.355 84.742L164.899 84.3843ZM180.238 21.918V20.418H179.062L178.781 21.5603L180.238 21.918ZM187.029 21.918C187.029 26.3362 190.611 29.918 195.029 29.918C199.448 29.918 203.029 26.3362 203.029 21.918C203.029 17.4997 199.448 13.918 195.029 13.918C190.611 13.918 187.029 17.4997 187.029 21.918ZM143.533 85.8843H164.899V82.8843H143.533V85.8843ZM166.355 84.742L181.695 22.2757L178.781 21.5603L163.442 84.0266L166.355 84.742ZM180.238 23.418H195.029V20.418H180.238V23.418Z" fill="#FB9306"/>
</svg>
