<svg width="395" height="215" viewBox="0 0 395 215" fill="none" xmlns="http://www.w3.org/2000/svg">
<path d="M243.48 0L236.227 40.9162H387.573L395 0H243.48Z" fill="#CA3D15"/>
<path d="M18.53 58.6893L11.4219 99.6055H205.644L212.753 58.6893H18.53Z" fill="#CA3D15"/>
<path d="M160.004 115.972L152.012 156.888H366.568L374.622 115.972H160.004Z" fill="#CA3D15"/>
<path d="M6.35624 174.084L0 215H70.575L76.9313 174.084H6.35624Z" fill="#CA3D15"/>
<path d="M201.282 121.5H210.203C212.107 121.5 213.729 121.828 215.068 122.485C216.407 123.141 217.425 124.113 218.121 125.399C218.83 126.686 219.184 128.268 219.184 130.145C219.184 131.642 218.967 132.941 218.534 134.044C218.114 135.134 217.51 136.046 216.722 136.781C215.948 137.516 215.009 138.087 213.906 138.494L212.311 139.4H204.925L204.906 135.009H210.085C210.939 135.009 211.648 134.819 212.212 134.438C212.79 134.057 213.217 133.532 213.492 132.862C213.781 132.18 213.926 131.399 213.926 130.519C213.926 129.561 213.794 128.74 213.532 128.058C213.282 127.362 212.882 126.83 212.33 126.462C211.792 126.095 211.083 125.911 210.203 125.911H206.56V150.172H201.282V121.5ZM214.477 150.172L209.101 137.333H214.635L220.11 149.896V150.172H214.477Z" fill="white"/>
<path d="M239.607 145.781V150.172H227.16V145.781H239.607ZM228.677 121.5V150.172H223.399V121.5H228.677ZM237.933 133.276V137.549H227.16V133.276H237.933ZM239.529 121.5V125.911H227.16V121.5H239.529Z" fill="white"/>
<path d="M252.881 139.814H246.914V135.403H252.862C253.781 135.403 254.516 135.212 255.068 134.832C255.632 134.438 256.039 133.893 256.289 133.197C256.551 132.501 256.683 131.714 256.683 130.834C256.683 129.981 256.551 129.18 256.289 128.432C256.039 127.67 255.632 127.06 255.068 126.6C254.516 126.141 253.787 125.911 252.881 125.911H248.509V150.172H243.251V121.5H252.881C254.785 121.5 256.42 121.9 257.785 122.701C259.151 123.502 260.195 124.605 260.917 126.01C261.652 127.401 262.02 128.996 262.02 130.795C262.02 132.646 261.652 134.247 260.917 135.6C260.182 136.939 259.131 137.976 257.766 138.711C256.413 139.446 254.785 139.814 252.881 139.814Z" fill="white"/>
<path d="M285.85 133.552V138.376C285.85 140.398 285.614 142.17 285.141 143.693C284.668 145.216 283.986 146.49 283.093 147.514C282.2 148.524 281.13 149.286 279.883 149.798C278.635 150.31 277.257 150.566 275.747 150.566C274.224 150.566 272.839 150.31 271.591 149.798C270.344 149.286 269.267 148.524 268.361 147.514C267.469 146.49 266.773 145.216 266.274 143.693C265.788 142.17 265.545 140.398 265.545 138.376V133.552C265.545 131.491 265.788 129.685 266.274 128.136C266.76 126.587 267.449 125.294 268.342 124.257C269.248 123.22 270.324 122.439 271.572 121.914C272.819 121.375 274.198 121.106 275.707 121.106C277.23 121.106 278.609 121.375 279.843 121.914C281.091 122.439 282.161 123.22 283.053 124.257C283.959 125.294 284.649 126.587 285.121 128.136C285.607 129.685 285.85 131.491 285.85 133.552ZM280.611 138.376V133.512C280.611 132.108 280.506 130.9 280.296 129.889C280.086 128.878 279.771 128.058 279.351 127.427C278.931 126.784 278.412 126.312 277.795 126.01C277.191 125.708 276.495 125.557 275.707 125.557C274.907 125.557 274.198 125.708 273.58 126.01C272.976 126.312 272.464 126.784 272.044 127.427C271.637 128.058 271.329 128.878 271.119 129.889C270.909 130.9 270.804 132.108 270.804 133.512V138.376C270.804 139.755 270.909 140.936 271.119 141.921C271.329 142.906 271.644 143.706 272.064 144.323C272.497 144.94 273.016 145.4 273.62 145.702C274.237 145.991 274.946 146.135 275.747 146.135C276.535 146.135 277.23 145.991 277.834 145.702C278.452 145.4 278.964 144.94 279.371 144.323C279.791 143.706 280.099 142.906 280.296 141.921C280.506 140.936 280.611 139.755 280.611 138.376Z" fill="white"/>
<path d="M290.419 121.5H299.341C301.245 121.5 302.866 121.828 304.205 122.485C305.545 123.141 306.562 124.113 307.258 125.399C307.967 126.686 308.322 128.268 308.322 130.145C308.322 131.642 308.105 132.941 307.672 134.044C307.252 135.134 306.648 136.046 305.86 136.781C305.085 137.516 304.146 138.087 303.043 138.494L301.448 139.4H294.063L294.043 135.009H299.223C300.076 135.009 300.785 134.819 301.35 134.438C301.927 134.057 302.354 133.532 302.63 132.862C302.919 132.18 303.063 131.399 303.063 130.519C303.063 129.561 302.932 128.74 302.669 128.058C302.42 127.362 302.019 126.83 301.468 126.462C300.93 126.095 300.221 125.911 299.341 125.911H295.697V150.172H290.419V121.5ZM303.615 150.172L298.238 137.333H303.772L309.247 149.896V150.172H303.615Z" fill="white"/>
<path d="M322.305 121.5V150.172H317.066V121.5H322.305ZM329.533 121.5V125.911H309.956V121.5H329.533Z" fill="white"/>
<path d="M53.8995 68.8736L47.2524 93.3434H41.6233L50.7855 64.283H54.2987L53.8995 68.8736ZM59.1494 93.3434L52.5022 68.8736L52.0431 64.283H55.5962L64.7984 93.3434H59.1494ZM59.329 82.5256V86.9765H45.9948V82.5256H59.329Z" fill="white"/>
<path d="M87.8738 64.283V93.3434H82.6639L72.9627 74.2026V93.3434H67.8525V64.283H72.9826L82.7637 83.6034V64.283H87.8738Z" fill="white"/>
<path d="M112.985 64.283V93.3434H107.775L98.0741 74.2026V93.3434H92.964V64.283H98.0941L107.875 83.6034V64.283H112.985Z" fill="white"/>
<path d="M131.27 64.283H136.62V84.3618C136.62 86.5839 136.207 88.3869 135.382 89.7707C134.557 91.1546 133.432 92.1658 132.008 92.8045C130.585 93.4299 128.981 93.7426 127.198 93.7426C125.375 93.7426 123.751 93.4299 122.327 92.8045C120.903 92.1658 119.785 91.1546 118.974 89.7707C118.175 88.3869 117.776 86.5839 117.776 84.3618V64.283H123.106V84.3618C123.106 85.6791 123.265 86.697 123.585 87.4156C123.917 88.1341 124.383 88.6264 124.982 88.8925C125.581 89.1587 126.319 89.2917 127.198 89.2917C128.076 89.2917 128.815 89.1587 129.413 88.8925C130.012 88.6264 130.471 88.1341 130.791 87.4156C131.11 86.697 131.27 85.6791 131.27 84.3618V64.283Z" fill="white"/>
<path d="M151.191 68.8736L144.544 93.3434H138.915L148.077 64.283H151.591L151.191 68.8736ZM156.441 93.3434L149.794 68.8736L149.335 64.283H152.888L162.09 93.3434H156.441ZM156.621 82.5256V86.9765H143.287V82.5256H156.621Z" fill="white"/>
<path d="M181.034 88.8925V93.3434H168.957V88.8925H181.034ZM170.494 64.283V93.3434H165.144V64.283H170.494Z" fill="white"/>
<path d="M16.3195 187.893V185.239C16.3195 184.434 16.4556 183.611 16.7279 182.77C17.0002 181.916 17.3653 181.105 17.8232 180.338C18.2812 179.571 18.7948 178.921 19.3642 178.389L21.6291 179.818C21.2454 180.573 20.9113 181.384 20.6266 182.25C20.3543 183.104 20.2182 184.094 20.2182 185.22V187.893H16.3195Z" fill="white"/>
<path d="M40.38 203.505V207.477H24.6367V204.062L31.9885 194.632C32.7311 193.604 33.3128 192.713 33.7336 191.958C34.1545 191.191 34.4515 190.504 34.6248 189.898C34.7981 189.279 34.8847 188.685 34.8847 188.116C34.8847 187.311 34.7795 186.606 34.5691 186C34.3587 185.381 34.0493 184.904 33.6408 184.57C33.2448 184.224 32.7559 184.051 32.1742 184.051C31.4439 184.051 30.8437 184.255 30.3733 184.663C29.903 185.072 29.5503 185.635 29.3151 186.352C29.0923 187.07 28.9809 187.887 28.9809 188.803H24.2097C24.2097 187.206 24.5253 185.746 25.1565 184.422C25.8001 183.098 26.716 182.04 27.9042 181.248C29.1047 180.455 30.5466 180.059 32.2299 180.059C33.8388 180.059 35.1941 180.369 36.2956 180.988C37.3972 181.594 38.2326 182.467 38.802 183.605C39.3837 184.731 39.6745 186.074 39.6745 187.633C39.6745 188.499 39.5569 189.353 39.3218 190.195C39.0866 191.036 38.7586 191.872 38.3378 192.701C37.917 193.53 37.4034 194.372 36.7969 195.226C36.2028 196.067 35.5283 196.933 34.7733 197.824L30.6889 203.505H40.38Z" fill="white"/>
<path d="M48.3259 191.736H50.758C51.4758 191.736 52.0699 191.575 52.5402 191.253C53.0105 190.919 53.3571 190.461 53.5799 189.879C53.8027 189.285 53.9141 188.599 53.9141 187.819C53.9141 187.052 53.8089 186.389 53.5984 185.833C53.388 185.263 53.0724 184.824 52.6516 184.515C52.2432 184.205 51.7172 184.051 51.0736 184.051C50.5661 184.051 50.0958 184.193 49.6626 184.478C49.2294 184.75 48.8891 185.14 48.6415 185.647C48.394 186.154 48.2702 186.755 48.2702 187.448H43.499C43.499 185.987 43.8269 184.706 44.4829 183.605C45.1389 182.491 46.03 181.625 47.1563 181.006C48.2826 180.375 49.5512 180.059 50.9622 180.059C52.4845 180.059 53.8212 180.35 54.9723 180.932C56.1357 181.514 57.0392 182.38 57.6828 183.531C58.3388 184.669 58.6668 186.08 58.6668 187.763C58.6668 188.58 58.512 189.391 58.2026 190.195C57.8932 190.987 57.4353 191.705 56.8288 192.348C56.2347 192.992 55.4921 193.505 54.601 193.889C53.7222 194.273 52.7011 194.464 51.5377 194.464H48.3259V191.736ZM48.3259 195.634V192.961H51.5377C52.862 192.961 53.9945 193.134 54.9351 193.481C55.8882 193.827 56.6617 194.316 57.2558 194.947C57.8623 195.578 58.3016 196.315 58.5739 197.156C58.8586 197.998 59.0009 198.913 59.0009 199.903C59.0009 201.166 58.7967 202.292 58.3883 203.282C57.9922 204.26 57.4229 205.089 56.6803 205.769C55.95 206.45 55.096 206.97 54.1183 207.329C53.1529 207.675 52.1009 207.848 50.9622 207.848C49.972 207.848 49.0128 207.694 48.0846 207.384C47.1687 207.063 46.3456 206.586 45.6154 205.955C44.8975 205.311 44.3282 204.507 43.9074 203.542C43.499 202.564 43.2947 201.426 43.2947 200.126H48.0474C48.0474 200.856 48.1712 201.506 48.4187 202.075C48.6787 202.632 49.0314 203.072 49.477 203.393C49.9349 203.715 50.4609 203.876 51.055 203.876C51.711 203.876 52.2741 203.715 52.7444 203.393C53.2271 203.072 53.5923 202.614 53.8398 202.02C54.0997 201.413 54.2297 200.695 54.2297 199.866C54.2297 198.864 54.0935 198.053 53.8212 197.435C53.5489 196.816 53.1529 196.364 52.6331 196.079C52.1256 195.782 51.5068 195.634 50.7765 195.634H48.3259Z" fill="white"/>
<path d="M285.609 19.6337L292.635 12.5819C292.749 12.4675 292.813 12.3121 292.813 12.1502C292.813 11.9884 292.749 11.833 292.635 11.7185L286.039 5.09763C285.925 4.9831 285.77 4.91869 285.609 4.91869C285.448 4.91869 285.293 4.9831 285.179 5.09763L278.153 12.1494L271.112 5.08324C270.998 4.96871 270.843 4.9043 270.682 4.9043C270.521 4.9043 270.366 4.96871 270.252 5.08324L263.66 11.7033C263.546 11.8178 263.482 11.9732 263.482 12.135C263.482 12.2968 263.546 12.4522 263.66 12.5667L270.701 19.6337L263.66 26.6998C263.546 26.8143 263.482 26.9697 263.482 27.1315C263.482 27.2934 263.546 27.4488 263.66 27.5632L270.252 34.185C270.366 34.2995 270.521 34.3639 270.682 34.3639C270.843 34.3639 270.998 34.2995 271.112 34.185L276.082 29.1969C276.082 29.1969 276.242 26.1353 272.664 21.6085L285.179 34.1698C285.293 34.2843 285.448 34.3487 285.609 34.3487C285.77 34.3487 285.925 34.2843 286.039 34.1698L292.635 27.5497C292.749 27.4352 292.813 27.2798 292.813 27.118C292.813 26.9561 292.749 26.8007 292.635 26.6863L285.609 19.6337Z" fill="white"/>
<path d="M355.1 19.6338L361.602 8.75858C361.65 8.67808 361.675 8.58591 361.675 8.49195C361.675 8.2078 361.442 7.97392 361.159 7.97392H353.07C352.888 7.97435 352.72 8.07101 352.627 8.22786L350.454 11.8625L348.281 8.22532C348.188 8.06847 348.02 7.97181 347.838 7.97138H339.749C339.466 7.97138 339.233 8.20526 339.233 8.48941C339.233 8.58337 339.258 8.67554 339.307 8.75604L345.808 19.6312L340.056 29.2536L337.385 23.7204C338.611 23.0681 339.626 22.0784 340.311 20.8679C340.997 19.6558 341.341 18.1821 341.341 16.4469C341.341 13.6891 340.498 11.5874 338.811 10.1417C337.125 8.69594 334.843 7.97308 331.967 7.97308H321.354C321.353 7.97308 321.353 7.97308 321.352 7.97308C321.048 7.97308 320.797 8.22447 320.797 8.53004C320.797 8.52979 320.797 8.53029 320.797 8.53004V12.6252C320.389 11.6693 319.767 10.8208 318.979 10.1459C317.292 8.70018 315.01 7.97731 312.132 7.97731H301.518C301.213 7.97731 300.963 8.2287 300.963 8.53427V30.7366C300.963 31.0422 301.213 31.2936 301.518 31.2936H308.286C308.59 31.2936 308.84 31.0422 308.84 30.7366V24.9215H312.129C315.01 24.9215 317.292 24.1987 318.976 22.7529C319.766 22.0775 320.389 21.2277 320.797 20.2703V30.7366C320.797 31.0422 321.048 31.2936 321.352 31.2936H327.987C328.291 31.2936 328.541 31.0422 328.541 30.7366V24.9215H330.038L332.896 30.878C333.018 31.1317 333.275 31.2937 333.556 31.2936H347.838C348.02 31.2932 348.188 31.1965 348.281 31.0396L350.454 27.405L352.628 31.0396C352.72 31.1965 352.889 31.2932 353.07 31.2936H361.16C361.443 31.2936 361.676 31.0597 361.676 30.7756C361.676 30.6816 361.65 30.5894 361.602 30.5089L355.1 19.6338ZM310.536 19.0167H308.84V13.8787H310.536C312.552 13.8787 313.56 14.7351 313.561 16.4477C313.561 18.1603 312.553 19.0167 310.536 19.0167ZM328.543 19.0167V13.8787H330.305C332.321 13.8787 333.329 14.7351 333.33 16.4477C333.33 18.1603 332.322 19.0167 330.306 19.0167H328.543Z" fill="white"/>
<path d="M44.8316 27.8965L51.6795 27.815C51.3715 30.5139 50.6016 32.905 49.3697 34.9881C48.1378 37.0712 46.4892 38.6924 44.424 39.8517C42.3588 40.9928 39.9131 41.5272 37.087 41.4547C34.7138 41.4004 32.7664 40.8751 31.2446 39.8788C29.741 38.8826 28.5816 37.5693 27.7664 35.9391C26.9692 34.3088 26.4711 32.5065 26.2718 30.532C26.0725 28.5576 26.0997 26.5742 26.3533 24.5816L27.4131 17.7074C27.7392 15.5518 28.2917 13.4506 29.0707 11.4037C29.8497 9.35686 30.8732 7.52736 32.1414 5.91522C33.4276 4.28496 34.9946 3.00793 36.8425 2.08412C38.7084 1.16031 40.8642 0.725577 43.3099 0.779919C46.0816 0.834261 48.2827 1.49542 49.9132 2.76339C51.5436 4.01326 52.703 5.67974 53.3914 7.76284C54.098 9.82783 54.4512 12.1102 54.4512 14.6099L47.3316 14.5827C47.4041 13.2966 47.3679 12.074 47.2229 10.9147C47.0961 9.75537 46.7066 8.79533 46.0545 8.03455C45.4023 7.27376 44.3063 6.8662 42.7664 6.81186C41.2628 6.75752 40.0128 7.0564 39.0164 7.7085C38.02 8.3606 37.2138 9.23912 36.5979 10.3441C36.0001 11.4309 35.5381 12.6174 35.212 13.9035C34.8859 15.1895 34.6323 16.4394 34.4512 17.653L33.4729 24.6088C33.328 25.5869 33.2102 26.6828 33.1196 27.8965C33.0472 29.092 33.1015 30.2603 33.2827 31.4015C33.4638 32.5427 33.8805 33.4937 34.5327 34.2545C35.1849 34.9971 36.2084 35.4047 37.6033 35.4771C39.27 35.5315 40.5744 35.2236 41.5164 34.5533C42.4765 33.8831 43.2012 32.9684 43.6903 31.8091C44.1794 30.6317 44.5599 29.3275 44.8316 27.8965Z" fill="white"/>
<path d="M80.2122 17.5987L79.1252 23.6578H63.1197L64.1795 17.5987H80.2122ZM68.8806 1.35051L62.0328 40.9113H54.9403L61.761 1.35051H68.8806ZM88.31 1.35051L81.435 40.9113H74.3969L81.2448 1.35051H88.31Z" fill="white"/>
<path d="M118.582 17.9791L117.549 24.6088C117.223 26.8187 116.662 28.9471 115.864 30.994C115.085 33.0227 114.044 34.8341 112.739 36.4281C111.453 38.0222 109.877 39.272 108.011 40.1777C106.145 41.0834 103.98 41.5091 101.517 41.4547C99.1615 41.4004 97.1959 40.8842 95.6198 39.906C94.0618 38.9279 92.8481 37.6418 91.9785 36.0477C91.1271 34.4356 90.5745 32.6423 90.3209 30.6679C90.0854 28.6935 90.0944 26.6828 90.3481 24.636L91.3535 18.0063C91.6977 15.7964 92.2593 13.6589 93.0383 11.5939C93.8173 9.52895 94.8589 7.67227 96.1633 6.0239C97.4858 4.37553 99.089 3.08039 100.973 2.13846C102.857 1.17843 105.04 0.734634 107.522 0.80709C109.913 0.861432 111.879 1.39579 113.419 2.41017C114.977 3.42455 116.181 4.76498 117.033 6.43146C117.884 8.07983 118.419 9.90934 118.636 11.92C118.854 13.9125 118.835 15.9322 118.582 17.9791ZM110.538 24.636L111.517 17.8704C111.662 16.8741 111.752 15.7692 111.788 14.5556C111.843 13.3238 111.752 12.1374 111.517 10.9962C111.299 9.855 110.837 8.90402 110.131 8.14323C109.442 7.38245 108.401 6.97488 107.006 6.92054C105.502 6.84808 104.234 7.14696 103.201 7.81718C102.187 8.4874 101.354 9.38403 100.701 10.5071C100.067 11.6302 99.5691 12.8438 99.2068 14.148C98.8626 15.4522 98.5999 16.7111 98.4187 17.9248L97.4405 24.6631C97.3137 25.6594 97.2231 26.7643 97.1687 27.978C97.1325 29.1916 97.2412 30.3509 97.4948 31.4559C97.7485 32.5427 98.2195 33.4574 98.9079 34.2001C99.6144 34.9247 100.656 35.3141 102.033 35.3685C103.518 35.4409 104.768 35.1602 105.783 34.5262C106.797 33.8741 107.622 33.0137 108.256 31.9449C108.89 30.8581 109.379 29.6716 109.723 28.3855C110.085 27.0995 110.357 25.8496 110.538 24.636Z" fill="white"/>
<path d="M151.136 17.9791L150.104 24.6088C149.778 26.8187 149.216 28.9471 148.419 30.994C147.64 33.0227 146.598 34.8341 145.294 36.4281C144.008 38.0222 142.432 39.272 140.566 40.1777C138.7 41.0834 136.535 41.5091 134.071 41.4547C131.716 41.4004 129.75 40.8842 128.174 39.906C126.616 38.9279 125.403 37.6418 124.533 36.0477C123.682 34.4356 123.129 32.6423 122.875 30.6679C122.64 28.6935 122.649 26.6828 122.903 24.636L123.908 18.0063C124.252 15.7964 124.814 13.6589 125.593 11.5939C126.372 9.52895 127.413 7.67227 128.718 6.0239C130.04 4.37553 131.643 3.08039 133.528 2.13846C135.412 1.17843 137.595 0.734634 140.076 0.80709C142.468 0.861432 144.433 1.39579 145.973 2.41017C147.531 3.42455 148.736 4.76498 149.587 6.43146C150.439 8.07983 150.973 9.90934 151.191 11.92C151.408 13.9125 151.39 15.9322 151.136 17.9791ZM143.093 24.636L144.071 17.8704C144.216 16.8741 144.307 15.7692 144.343 14.5556C144.397 13.3238 144.307 12.1374 144.071 10.9962C143.854 9.855 143.392 8.90402 142.685 8.14323C141.997 7.38245 140.955 6.97488 139.56 6.92054C138.057 6.84808 136.788 7.14696 135.756 7.81718C134.741 8.4874 133.908 9.38403 133.256 10.5071C132.622 11.6302 132.124 12.8438 131.761 14.148C131.417 15.4522 131.154 16.7111 130.973 17.9248L129.995 24.6631C129.868 25.6594 129.778 26.7643 129.723 27.978C129.687 29.1916 129.796 30.3509 130.049 31.4559C130.303 32.5427 130.774 33.4574 131.462 34.2001C132.169 34.9247 133.211 35.3141 134.587 35.3685C136.073 35.4409 137.323 35.1602 138.337 34.5262C139.352 33.8741 140.176 33.0137 140.81 31.9449C141.444 30.8581 141.933 29.6716 142.278 28.3855C142.64 27.0995 142.912 25.8496 143.093 24.636Z" fill="white"/>
<path d="M171.462 30.3962C171.571 29.5086 171.535 28.7478 171.354 28.1138C171.191 27.4798 170.901 26.9183 170.484 26.4292C170.068 25.9402 169.551 25.5054 168.935 25.125C168.337 24.7446 167.676 24.3824 166.952 24.0382C165.647 23.4404 164.433 22.7702 163.31 22.0276C162.187 21.2668 161.2 20.4154 160.348 19.4735C159.515 18.5135 158.881 17.4176 158.446 16.1858C158.029 14.9541 157.875 13.5684 157.984 12.0287C158.111 10.2897 158.546 8.72288 159.288 7.3281C160.049 5.93333 161.037 4.74687 162.25 3.76872C163.482 2.77245 164.859 2.02072 166.381 1.51353C167.921 1.00634 169.533 0.770862 171.218 0.80709C173.573 0.861432 175.548 1.44108 177.142 2.54603C178.736 3.63286 179.914 5.09103 180.674 6.92054C181.453 8.73193 181.798 10.7516 181.707 12.9796L174.642 12.9525C174.696 11.9743 174.633 11.0143 174.452 10.0724C174.27 9.13044 173.881 8.3606 173.283 7.76284C172.685 7.14696 171.798 6.82091 170.62 6.78469C169.569 6.78469 168.645 7.02017 167.848 7.49113C167.051 7.94398 166.408 8.56891 165.919 9.36592C165.43 10.1448 165.113 11.0324 164.968 12.0287C164.877 12.7895 164.959 13.4687 165.212 14.0665C165.466 14.6642 165.819 15.1986 166.272 15.6696C166.743 16.1405 167.278 16.5571 167.875 16.9194C168.473 17.2817 169.071 17.5987 169.669 17.8704C171.046 18.5225 172.305 19.229 173.446 19.9897C174.587 20.7505 175.557 21.62 176.354 22.5981C177.169 23.5763 177.758 24.6994 178.12 25.9673C178.501 27.2353 178.627 28.6935 178.501 30.3418C178.356 32.1351 177.921 33.7292 177.196 35.1239C176.472 36.5006 175.52 37.6689 174.343 38.629C173.165 39.589 171.807 40.3136 170.267 40.8026C168.745 41.2917 167.115 41.5181 165.375 41.4819C163.528 41.4276 161.87 41.0744 160.403 40.4223C158.953 39.7701 157.74 38.8735 156.761 37.7323C155.783 36.573 155.049 35.2236 154.56 33.6839C154.071 32.1261 153.881 30.4505 153.99 28.6573L161.082 28.6844C161.028 29.572 161.046 30.4324 161.136 31.2657C161.245 32.0808 161.471 32.8053 161.816 33.4393C162.178 34.0552 162.694 34.5533 163.365 34.9337C164.035 35.296 164.895 35.4862 165.946 35.5043C166.979 35.5043 167.885 35.287 168.664 34.8522C169.443 34.4175 170.068 33.8197 170.539 33.0589C171.028 32.28 171.336 31.3925 171.462 30.3962Z" fill="white"/>
<path d="M204.886 34.8522L203.827 40.9113H187.142L188.174 34.8522H204.886ZM196.055 1.35051L189.207 40.9113H182.115L188.935 1.35051H196.055ZM205.647 17.5987L204.615 23.4948H190.158L191.164 17.5987H205.647ZM210.593 1.35051L209.533 7.43679H192.93L193.99 1.35051H210.593Z" fill="white"/>
<path d="M250.289 58.4033L253.387 76.635L262.816 58.4033H270.887L255.832 83.8624L253.387 97.9641H246.24L248.822 83.1288L242.789 58.4033H250.289Z" fill="white"/>
<path d="M297.327 75.0319L296.295 81.6616C295.968 83.8715 295.407 85.9999 294.61 88.0467C293.831 90.0755 292.789 91.8869 291.485 93.4809C290.199 95.0749 288.622 96.3248 286.756 97.2305C284.891 98.1362 282.726 98.5619 280.262 98.5075C277.907 98.4532 275.941 97.9369 274.365 96.9588C272.807 95.9806 271.593 94.6945 270.724 93.1005C269.872 91.4884 269.32 89.6951 269.066 87.7207C268.831 85.7463 268.84 83.7356 269.093 81.6887L270.099 75.059C270.443 72.8491 271.005 70.7117 271.784 68.6467C272.563 66.5817 273.604 64.7251 274.909 63.0767C276.231 61.4283 277.834 60.1332 279.718 59.1912C281.602 58.2312 283.785 57.7874 286.267 57.8599C288.659 57.9142 290.624 58.4486 292.164 59.463C293.722 60.4773 294.927 61.8178 295.778 63.4842C296.63 65.1326 297.164 66.9621 297.382 68.9728C297.599 70.9653 297.581 72.985 297.327 75.0319ZM289.284 81.6887L290.262 74.9232C290.407 73.9269 290.497 72.822 290.534 71.6083C290.588 70.3766 290.497 69.1901 290.262 68.049C290.045 66.9078 289.583 65.9568 288.876 65.196C288.188 64.4352 287.146 64.0277 285.751 63.9733C284.247 63.9009 282.979 64.1997 281.947 64.87C280.932 65.5402 280.099 66.4368 279.447 67.5599C278.813 68.6829 278.314 69.8966 277.952 71.2008C277.608 72.505 277.345 73.7639 277.164 74.9775L276.186 81.7159C276.059 82.7122 275.968 83.8171 275.914 85.0308C275.878 86.2444 275.987 87.4037 276.24 88.5086C276.494 89.5955 276.965 90.5102 277.653 91.2529C278.36 91.9775 279.401 92.3669 280.778 92.4212C282.264 92.4937 283.514 92.2129 284.528 91.5789C285.543 90.9268 286.367 90.0664 287.001 88.9977C287.635 87.9109 288.124 86.7244 288.468 85.4383C288.831 84.1522 289.102 82.9024 289.284 81.6887Z" fill="white"/>
<path d="M323.713 58.4033H330.833L326.159 85.71C325.815 88.3184 325.036 90.6008 323.822 92.5571C322.608 94.4953 320.996 95.9897 318.985 97.0403C316.992 98.0909 314.646 98.589 311.947 98.5347C309.356 98.4804 307.218 97.9098 305.534 96.8229C303.849 95.7361 302.644 94.2417 301.92 92.3397C301.213 90.4378 300.996 88.2369 301.267 85.7372L305.914 58.4033H312.979L308.414 85.7644C308.269 86.9418 308.26 88.0377 308.387 89.0521C308.514 90.0483 308.885 90.8544 309.501 91.4703C310.135 92.0861 311.132 92.4122 312.49 92.4484C313.94 92.5028 315.117 92.2492 316.023 91.6876C316.929 91.1261 317.617 90.3291 318.088 89.2966C318.577 88.246 318.921 87.0686 319.121 85.7644L323.713 58.4033Z" fill="white"/>
<path d="M337.001 58.4033L348.604 58.4305C350.96 58.5029 352.934 59.0192 354.528 59.9792C356.141 60.9392 357.327 62.2797 358.088 64.0005C358.849 65.7213 359.121 67.7682 358.903 70.1411C358.759 72.0793 358.333 73.7911 357.626 75.2764C356.92 76.7436 355.951 78.0207 354.719 79.1075C353.487 80.1943 351.992 81.1182 350.235 81.8789L347.898 83.1016H337.626L338.659 77.0425L345.262 77.0969C346.548 77.0787 347.644 76.7889 348.55 76.2274C349.474 75.6477 350.208 74.8689 350.751 73.8907C351.295 72.9125 351.648 71.8167 351.811 70.603C351.92 69.6611 351.92 68.7373 351.811 67.8316C351.702 66.9078 351.376 66.1379 350.833 65.5221C350.289 64.9062 349.456 64.5711 348.333 64.5167L343.088 64.4896L337.273 97.9641H330.181L337.001 58.4033ZM347.979 97.9641L343.849 80.2487H350.996L355.561 97.5565V97.9641H347.979Z" fill="white"/>
<path d="M55.3074 133.951L54.2748 140.581C53.9487 142.791 53.3871 144.919 52.59 146.966C51.811 148.995 50.7693 150.806 49.465 152.4C48.1788 153.994 46.6027 155.244 44.7367 156.15C42.8708 157.055 40.7059 157.481 38.2421 157.427C35.887 157.372 33.9215 156.856 32.3454 155.878C30.7874 154.9 29.5736 153.614 28.7041 152.02C27.8526 150.408 27.3001 148.614 27.0464 146.64C26.8109 144.666 26.82 142.655 27.0736 140.608L28.0791 133.978C28.4233 131.768 28.9849 129.631 29.7638 127.566C30.5428 125.501 31.5845 123.644 32.8889 121.996C34.2113 120.348 35.8146 119.052 37.6986 118.111C39.5827 117.15 41.7657 116.707 44.2476 116.779C46.6389 116.833 48.6045 117.368 50.1443 118.382C51.7023 119.397 52.907 120.737 53.7585 122.404C54.6099 124.052 55.1444 125.881 55.3617 127.892C55.5791 129.885 55.561 131.904 55.3074 133.951ZM47.2639 140.608L48.2422 133.842C48.3871 132.846 48.4777 131.741 48.5139 130.528C48.5682 129.296 48.4777 128.109 48.2422 126.968C48.0248 125.827 47.5628 124.876 46.8563 124.115C46.1679 123.355 45.1262 122.947 43.7313 122.893C42.2276 122.82 40.9595 123.119 39.9269 123.789C38.9124 124.459 38.0791 125.356 37.4269 126.479C36.7928 127.602 36.2947 128.816 35.9323 130.12C35.5881 131.424 35.3255 132.683 35.1443 133.897L34.166 140.635C34.0392 141.631 33.9486 142.736 33.8943 143.95C33.8581 145.164 33.9668 146.323 34.2204 147.428C34.474 148.515 34.945 149.43 35.6334 150.172C36.3399 150.897 37.3816 151.286 38.7584 151.341C40.2439 151.413 41.494 151.132 42.5084 150.498C43.5229 149.846 44.3472 148.986 44.9813 147.917C45.6153 146.83 46.1045 145.644 46.4487 144.358C46.811 143.072 47.0827 141.822 47.2639 140.608Z" fill="white"/>
<path d="M66.8835 149.276L77.9433 117.323H81.9379L81.476 124.142L69.764 156.883H65.4976L66.8835 149.276ZM68.8672 117.323L68.7585 149.846L67.3727 156.883H62.8346L61.9379 117.323H68.8672ZM83.1336 149.058L92.9162 117.323H100.063L86.8564 156.883H82.2368L83.1336 149.058ZM83.8673 117.323L84.9542 150.009L84.0303 156.883H79.8727L78.4868 123.436L79.9542 117.323H83.8673Z" fill="white"/>
<path d="M131.422 117.323L124.547 156.883H117.617L109.927 129.522L105.172 156.883H98.0793L104.9 117.323H111.856L119.574 144.711L124.329 117.323H131.422Z" fill="white"/>
<path d="M110.142 180.4L95.7672 213.359H88.1042L107.044 173.798H111.881L110.142 180.4ZM111.474 213.359L108.403 179.775L108.865 173.798H113.43L118.729 213.359H111.474ZM114.191 198.632L113.104 204.691H95.4683L96.5553 198.632H114.191Z" fill="white"/>
<path d="M132.968 213.359H125.849L126.963 207.3L133.295 207.354C135.523 207.372 137.316 206.919 138.675 205.995C140.052 205.053 141.093 203.785 141.8 202.191C142.525 200.579 143.032 198.759 143.322 196.73L144.246 190.399C144.391 189.167 144.481 187.954 144.517 186.758C144.554 185.545 144.418 184.431 144.11 183.416C143.82 182.384 143.267 181.56 142.452 180.944C141.637 180.31 140.468 179.966 138.947 179.911L131.528 179.884L132.588 173.798L139.218 173.825C141.592 173.879 143.603 174.368 145.251 175.292C146.918 176.216 148.24 177.457 149.218 179.015C150.215 180.554 150.876 182.311 151.202 184.286C151.546 186.242 151.583 188.298 151.311 190.454L150.36 196.73C149.997 199.085 149.363 201.277 148.458 203.305C147.552 205.334 146.374 207.1 144.925 208.604C143.476 210.107 141.755 211.285 139.762 212.136C137.787 212.969 135.523 213.377 132.968 213.359ZM136.8 173.798L129.952 213.359H122.86L129.68 173.798H136.8Z" fill="white"/>
<path d="M166.012 205.153L178.376 173.798H186.42L168.92 213.359H163.566L166.012 205.153ZM164.382 173.798L166.99 205.778L166.936 213.359H161.8L156.773 173.798H164.382Z" fill="white"/>
<path d="M206.61 207.3L205.55 213.359H188.865L189.898 207.3H206.61ZM197.778 173.798L190.931 213.359H183.838L190.659 173.798H197.778ZM207.371 190.046L206.338 195.942H191.882L192.887 190.046H207.371ZM212.317 173.798L211.257 179.884H194.653L195.713 173.798H212.317Z" fill="white"/>
<path d="M243.757 173.798L236.882 213.359H229.952L222.262 185.998L217.507 213.359H210.414L217.235 173.798H224.192L231.909 201.186L236.664 173.798H243.757Z" fill="white"/>
<path d="M264.273 173.798L257.398 213.359H250.333L257.208 173.798H264.273ZM273.92 173.798L272.86 179.884H246.61L247.67 173.798H273.92Z" fill="white"/>
<path d="M296.04 173.798H303.159L298.485 201.105C298.141 203.713 297.362 205.995 296.148 207.952C294.935 209.89 293.322 211.384 291.311 212.435C289.319 213.485 286.973 213.984 284.273 213.929C281.683 213.875 279.545 213.304 277.86 212.217C276.175 211.131 274.971 209.636 274.246 207.734C273.54 205.832 273.322 203.631 273.594 201.132L278.241 173.798H285.306L280.741 201.159C280.596 202.336 280.587 203.432 280.713 204.447C280.84 205.443 281.212 206.249 281.828 206.865C282.462 207.481 283.458 207.807 284.817 207.843C286.266 207.897 287.444 207.644 288.349 207.082C289.255 206.521 289.944 205.724 290.415 204.691C290.904 203.641 291.248 202.463 291.447 201.159L296.04 173.798Z" fill="white"/>
<path d="M309.328 173.798L320.931 173.825C323.286 173.897 325.261 174.414 326.855 175.374C328.467 176.334 329.654 177.674 330.415 179.395C331.176 181.116 331.447 183.163 331.23 185.536C331.085 187.474 330.659 189.186 329.953 190.671C329.246 192.138 328.277 193.415 327.045 194.502C325.813 195.589 324.319 196.513 322.561 197.273L320.224 198.496H309.953L310.985 192.437L317.589 192.491C318.875 192.473 319.971 192.183 320.877 191.622C321.801 191.042 322.534 190.263 323.078 189.285C323.621 188.307 323.974 187.211 324.137 185.998C324.246 185.056 324.246 184.132 324.137 183.226C324.029 182.302 323.703 181.532 323.159 180.917C322.616 180.301 321.782 179.966 320.659 179.911L315.415 179.884L309.599 213.359H302.507L309.328 173.798ZM320.306 213.359L316.176 195.643H323.322L327.888 212.951V213.359H320.306Z" fill="white"/>
<path d="M354.871 207.3L353.812 213.359H337.127L338.159 207.3H354.871ZM346.04 173.798L339.192 213.359H332.099L338.92 173.798H346.04ZM355.632 190.046L354.6 195.942H340.143L341.148 190.046H355.632ZM360.578 173.798L359.518 179.884H342.915L343.975 173.798H360.578Z" fill="white"/>
<path d="M233.596 19.6367C233.596 22.5822 235.984 24.9701 238.929 24.9701C241.875 24.9701 244.262 22.5822 244.262 19.6367C244.262 16.6912 241.875 14.3034 238.929 14.3034C235.984 14.3034 233.596 16.6912 233.596 19.6367ZM229.926 19.6367V18.6367H229.1L228.944 19.4483L229.926 19.6367ZM218.469 79.3743V80.3743H219.295L219.451 79.5627L218.469 79.3743ZM202.874 79.3743L208.648 85.1478L214.421 79.3743L208.648 73.6008L202.874 79.3743ZM238.929 18.6367H229.926V20.6367H238.929V18.6367ZM228.944 19.4483L217.487 79.1859L219.451 79.5627L230.909 19.8251L228.944 19.4483ZM218.469 78.3743H208.648V80.3743H218.469V78.3743Z" fill="#FB9306"/>
<path d="M67.4572 196.402C67.4572 199.347 69.845 201.735 72.7905 201.735C75.736 201.735 78.1239 199.347 78.1239 196.402C78.1239 193.456 75.736 191.068 72.7905 191.068C69.845 191.068 67.4572 193.456 67.4572 196.402ZM81.7931 196.402V197.402H82.6L82.7705 196.613L81.7931 196.402ZM88.3404 166.124V165.124H87.5336L87.363 165.912L88.3404 166.124ZM137.445 166.124V167.124H138.236L138.419 166.354L137.445 166.124ZM144.811 135.027V134.027H144.02L143.838 134.797L144.811 135.027ZM161.224 135.027L155.451 129.254L149.677 135.027L155.451 140.801L161.224 135.027ZM72.7905 197.402H81.7931V195.402H72.7905V197.402ZM82.7705 196.613L89.3179 166.335L87.363 165.912L80.8157 196.19L82.7705 196.613ZM88.3404 167.124H137.445V165.124H88.3404V167.124ZM138.419 166.354L145.784 135.258L143.838 134.797L136.472 165.893L138.419 166.354ZM144.811 136.027H155.451V134.027H144.811V136.027Z" fill="#FB9306"/>
</svg>
