<svg width="46" height="33" viewBox="0 0 46 33" fill="none" xmlns="http://www.w3.org/2000/svg">
<g clip-path="url(#clip0_1157_10359)">
<path d="M18.4569 8.25969C18.6058 8.10188 18.9405 8 19.3102 8H45.6927C46.2075 8 46.6249 8.19466 46.6249 8.43478V11.5652C46.6249 11.8053 46.2075 12 45.6927 12H16.3571C15.684 12 15.2327 11.6775 15.5038 11.3901L18.4569 8.25969Z" fill="#A1C5E2"/>
<path d="M13.729 15.5769C13.8832 15.4181 14.2331 15.3154 14.6199 15.3154H45.6554C46.192 15.3154 46.627 15.5101 46.627 15.7502V18.8806C46.627 19.1208 46.192 19.3154 45.6554 19.3154H11.5786C10.8789 19.3154 10.4086 18.9944 10.6876 18.7073L13.729 15.5769Z" fill="#0089BD"/>
<path d="M8.99747 22.3708C9.15524 22.2121 9.51323 22.1094 9.90891 22.1094H45.6327C46.1816 22.1094 46.6265 22.304 46.6265 22.5442V25.6746C46.6265 25.9147 46.1816 26.1094 45.6327 26.1094H6.79769C6.08194 26.1094 5.60086 25.7884 5.88625 25.5012L8.99747 22.3708Z" fill="#FB9306"/>
<path d="M4.25373 29.1647C4.41442 29.006 4.77902 28.9033 5.18201 28.9033H45.6144C46.1734 28.9033 46.6266 29.098 46.6266 29.3381V32.4685C46.6266 32.7087 46.1734 32.9033 45.6144 32.9033H2.01333C1.28436 32.9033 0.794395 32.5823 1.08505 32.2952L4.25373 29.1647Z" fill="#CA3D15"/>
</g>
<defs>
<clipPath id="clip0_1157_10359">
<rect width="46" height="33" fill="white"/>
</clipPath>
</defs>
</svg>
