<svg width="267" height="230" viewBox="0 0 267 230" fill="none" xmlns="http://www.w3.org/2000/svg">
<path d="M76.1302 3.04742C76.945 1.19551 78.7771 0 80.8003 0H225.188C228.005 0 230.29 2.28427 230.29 5.10206V41.8369C230.29 44.6547 228.006 46.9389 225.188 46.9389H64.6385C60.9546 46.9389 58.4849 43.1542 59.9684 39.7822L76.1302 3.04742Z" fill="white" fill-opacity="0.1"/>
<path d="M57.5273 54.0892C58.3372 52.2264 60.175 51.0215 62.2063 51.0215H225.188C228.006 51.0215 230.29 53.3058 230.29 56.1235V92.8584C230.29 95.6761 228.006 97.9604 225.188 97.9604H46.2346C42.5603 97.9604 40.0906 94.1937 41.5557 90.824L57.5273 54.0892Z" fill="white" fill-opacity="0.1"/>
<path d="M37.1186 105.109C37.9285 103.246 39.7663 102.041 41.7976 102.041H225.188C228.006 102.041 230.29 104.325 230.29 107.143V143.878C230.29 146.696 228.006 148.98 225.188 148.98H25.8259C22.1516 148.98 19.6819 145.213 21.147 141.844L37.1186 105.109Z" fill="white" fill-opacity="0.1"/>
<path d="M16.7104 156.129C17.5203 154.266 19.3581 153.062 21.3894 153.062H225.188C228.006 153.062 230.29 155.346 230.29 158.164V194.898C230.29 197.716 228.006 200 225.188 200H5.41771C1.74337 200 -0.726289 196.234 0.738766 192.864L16.7104 156.129Z" fill="white" fill-opacity="0.1"/>
</svg>
