<svg width="375" height="197" viewBox="0 0 375 197" fill="none" xmlns="http://www.w3.org/2000/svg">
<path d="M75.6136 2.98647C76.4121 1.1716 78.2075 0 80.1903 0H221.689C224.451 0 226.689 2.23858 226.689 5V41C226.689 43.7614 224.451 46 221.689 46H64.3517C60.7415 46 58.3213 42.291 59.7751 38.9865L75.6136 2.98647Z" fill="#A1C5E2"/>
<path d="M98.8753 35.4483C96.5927 35.4483 94.598 35.0323 92.8913 34.2003C91.206 33.3683 89.9047 32.2163 88.9873 30.7443C88.07 29.251 87.6113 27.5337 87.6113 25.5923C87.6113 23.651 87.9527 21.859 88.6353 20.2163C89.318 18.5737 90.278 17.155 91.5153 15.9603C92.7527 14.7443 94.2247 13.8057 95.9313 13.1443C97.6593 12.483 99.5687 12.1523 101.659 12.1523C103.729 12.1523 105.563 12.515 107.163 13.2403C108.763 13.9657 109.958 15.011 110.747 16.3763L106.171 20.0243C105.659 19.171 104.987 18.5203 104.155 18.0723C103.345 17.6243 102.374 17.4003 101.243 17.4003C100.155 17.4003 99.1633 17.5923 98.2673 17.9763C97.3927 18.3603 96.6353 18.9043 95.9953 19.6083C95.3553 20.3123 94.8647 21.1443 94.5233 22.1043C94.182 23.043 94.0113 24.067 94.0113 25.1763C94.0113 26.179 94.2247 27.0643 94.6513 27.8323C95.0993 28.579 95.7287 29.1657 96.5393 29.5923C97.3713 29.9977 98.3527 30.2003 99.4833 30.2003C100.486 30.2003 101.446 29.9977 102.363 29.5923C103.302 29.187 104.166 28.5257 104.955 27.6083L108.699 31.2883C107.441 32.803 105.99 33.8803 104.347 34.5203C102.705 35.139 100.881 35.4483 98.8753 35.4483Z" fill="#003A57"/>
<path d="M127.46 12.6003H133.796L129.316 35.0003H122.98L127.46 12.6003ZM114.372 35.0003H108.036L112.516 12.6003H118.852L114.372 35.0003ZM125.188 26.2643H115.684L116.74 21.0163H126.244L125.188 26.2643Z" fill="#003A57"/>
<path d="M143.674 35.4483C141.37 35.4483 139.386 35.0323 137.722 34.2003C136.058 33.347 134.778 32.1843 133.882 30.7123C132.986 29.2403 132.538 27.5337 132.538 25.5923C132.538 23.6297 132.879 21.8377 133.562 20.2163C134.244 18.5737 135.204 17.155 136.442 15.9603C137.679 14.7443 139.151 13.8057 140.858 13.1443C142.586 12.483 144.474 12.1523 146.522 12.1523C148.826 12.1523 150.81 12.579 152.474 13.4323C154.138 14.2643 155.418 15.4163 156.314 16.8883C157.21 18.3603 157.658 20.067 157.658 22.0083C157.658 23.971 157.316 25.7737 156.634 27.4163C155.951 29.0377 154.991 30.4563 153.754 31.6723C152.516 32.867 151.034 33.795 149.306 34.4563C147.599 35.1177 145.722 35.4483 143.674 35.4483ZM144.218 30.2003C145.327 30.2003 146.308 29.9977 147.162 29.5923C148.036 29.187 148.772 28.6217 149.37 27.8963C149.988 27.1497 150.458 26.307 150.778 25.3683C151.098 24.4297 151.258 23.4377 151.258 22.3923C151.258 21.3897 151.044 20.515 150.618 19.7683C150.212 19.0217 149.615 18.4457 148.826 18.0403C148.058 17.6137 147.108 17.4003 145.978 17.4003C144.89 17.4003 143.908 17.603 143.034 18.0083C142.159 18.4137 141.412 18.9897 140.794 19.7363C140.196 20.4617 139.738 21.2937 139.418 22.2323C139.098 23.171 138.938 24.163 138.938 25.2083C138.938 26.1897 139.14 27.0643 139.546 27.8323C139.972 28.579 140.57 29.1657 141.338 29.5923C142.127 29.9977 143.087 30.2003 144.218 30.2003Z" fill="#003A57"/>
<path d="M168.496 35.4483C166.192 35.4483 164.208 35.0323 162.544 34.2003C160.88 33.347 159.6 32.1843 158.704 30.7123C157.808 29.2403 157.36 27.5337 157.36 25.5923C157.36 23.6297 157.701 21.8377 158.384 20.2163C159.067 18.5737 160.027 17.155 161.264 15.9603C162.501 14.7443 163.973 13.8057 165.68 13.1443C167.408 12.483 169.296 12.1523 171.344 12.1523C173.648 12.1523 175.632 12.579 177.296 13.4323C178.96 14.2643 180.24 15.4163 181.136 16.8883C182.032 18.3603 182.48 20.067 182.48 22.0083C182.48 23.971 182.139 25.7737 181.456 27.4163C180.773 29.0377 179.813 30.4563 178.576 31.6723C177.339 32.867 175.856 33.795 174.128 34.4563C172.421 35.1177 170.544 35.4483 168.496 35.4483ZM169.04 30.2003C170.149 30.2003 171.131 29.9977 171.984 29.5923C172.859 29.187 173.595 28.6217 174.192 27.8963C174.811 27.1497 175.28 26.307 175.6 25.3683C175.92 24.4297 176.08 23.4377 176.08 22.3923C176.08 21.3897 175.867 20.515 175.44 19.7683C175.035 19.0217 174.437 18.4457 173.648 18.0403C172.88 17.6137 171.931 17.4003 170.8 17.4003C169.712 17.4003 168.731 17.603 167.856 18.0083C166.981 18.4137 166.235 18.9897 165.616 19.7363C165.019 20.4617 164.56 21.2937 164.24 22.2323C163.92 23.171 163.76 24.163 163.76 25.2083C163.76 26.1897 163.963 27.0643 164.368 27.8323C164.795 28.579 165.392 29.1657 166.16 29.5923C166.949 29.9977 167.909 30.2003 169.04 30.2003Z" fill="#003A57"/>
<path d="M189.575 35.4483C188.295 35.4483 187.068 35.3417 185.895 35.1283C184.721 34.9363 183.655 34.659 182.695 34.2963C181.735 33.9123 180.913 33.4963 180.231 33.0483L182.727 28.3123C183.495 28.7817 184.284 29.187 185.095 29.5283C185.927 29.8483 186.769 30.0937 187.623 30.2643C188.476 30.435 189.329 30.5203 190.183 30.5203C190.993 30.5203 191.687 30.4457 192.263 30.2963C192.839 30.1257 193.276 29.891 193.575 29.5923C193.873 29.2937 194.023 28.9417 194.023 28.5363C194.023 28.0883 193.82 27.7363 193.415 27.4803C193.031 27.203 192.519 26.9683 191.879 26.7763C191.239 26.5843 190.524 26.3923 189.735 26.2003C188.967 25.987 188.188 25.7417 187.399 25.4643C186.631 25.1657 185.927 24.803 185.287 24.3763C184.647 23.9283 184.124 23.363 183.719 22.6803C183.335 21.9977 183.143 21.155 183.143 20.1523C183.143 18.531 183.58 17.123 184.455 15.9283C185.329 14.7337 186.567 13.8057 188.167 13.1443C189.788 12.483 191.697 12.1523 193.895 12.1523C195.495 12.1523 196.988 12.323 198.375 12.6643C199.761 12.9843 200.956 13.4537 201.959 14.0723L199.655 18.7763C198.78 18.2217 197.809 17.8057 196.743 17.5283C195.697 17.2297 194.62 17.0803 193.511 17.0803C192.657 17.0803 191.921 17.1763 191.303 17.3683C190.705 17.5603 190.247 17.827 189.927 18.1683C189.628 18.4883 189.479 18.851 189.479 19.2563C189.479 19.683 189.671 20.035 190.055 20.3123C190.439 20.5897 190.951 20.8243 191.591 21.0163C192.252 21.2083 192.967 21.411 193.735 21.6243C194.524 21.8163 195.303 22.051 196.071 22.3283C196.839 22.5843 197.553 22.9363 198.215 23.3843C198.876 23.811 199.399 24.355 199.783 25.0163C200.167 25.6777 200.359 26.499 200.359 27.4803C200.359 29.0803 199.921 30.4777 199.047 31.6723C198.172 32.867 196.924 33.795 195.303 34.4563C193.681 35.1177 191.772 35.4483 189.575 35.4483Z" fill="#003A57"/>
<path d="M208.245 21.2723H218.645L217.717 26.0083H207.317L208.245 21.2723ZM206.933 30.1043H218.677L217.653 35.0003H199.701L204.181 12.6003H221.717L220.725 17.4963H209.429L206.933 30.1043Z" fill="#003A57"/>
<path d="M57.3824 53.0064C58.1761 51.1808 59.9771 50 61.9677 50H221.689C224.451 50 226.689 52.2386 226.689 55V91C226.689 93.7614 224.451 96 221.689 96H46.3155C42.7147 96 40.2944 92.3086 41.7302 89.0064L57.3824 53.0064Z" fill="#0089BD"/>
<path d="M134.345 85.0003L136.233 75.4963L136.937 79.3683L130.249 62.6003H136.617L141.417 74.7603L137.513 74.7923L147.305 62.6003H153.737L140.425 79.3683L142.569 75.4963L140.681 85.0003H134.345Z" fill="white"/>
<path d="M159.756 85.4483C157.452 85.4483 155.468 85.0323 153.804 84.2003C152.14 83.347 150.86 82.1843 149.964 80.7123C149.068 79.2403 148.62 77.5337 148.62 75.5923C148.62 73.6297 148.961 71.8377 149.644 70.2163C150.326 68.5737 151.286 67.155 152.524 65.9603C153.761 64.7443 155.233 63.8057 156.94 63.1443C158.668 62.483 160.556 62.1523 162.604 62.1523C164.908 62.1523 166.892 62.579 168.556 63.4323C170.22 64.2643 171.5 65.4163 172.396 66.8883C173.292 68.3603 173.74 70.067 173.74 72.0083C173.74 73.971 173.398 75.7737 172.716 77.4163C172.033 79.0377 171.073 80.4563 169.836 81.6723C168.598 82.867 167.116 83.795 165.388 84.4563C163.681 85.1177 161.804 85.4483 159.756 85.4483ZM160.3 80.2003C161.409 80.2003 162.39 79.9977 163.244 79.5923C164.118 79.187 164.854 78.6217 165.452 77.8963C166.07 77.1497 166.54 76.307 166.86 75.3683C167.18 74.4297 167.34 73.4377 167.34 72.3923C167.34 71.3897 167.126 70.515 166.7 69.7683C166.294 69.0217 165.697 68.4457 164.908 68.0403C164.14 67.6137 163.19 67.4003 162.06 67.4003C160.972 67.4003 159.99 67.603 159.116 68.0083C158.241 68.4137 157.494 68.9897 156.876 69.7363C156.278 70.4617 155.82 71.2937 155.5 72.2323C155.18 73.171 155.02 74.163 155.02 75.2083C155.02 76.1897 155.222 77.0643 155.628 77.8323C156.054 78.579 156.652 79.1657 157.42 79.5923C158.209 79.9977 159.169 80.2003 160.3 80.2003Z" fill="white"/>
<path d="M183.394 85.4483C181.154 85.4483 179.277 85.0217 177.762 84.1683C176.269 83.2937 175.213 82.0777 174.594 80.5203C173.976 78.9417 173.869 77.107 174.274 75.0163L176.77 62.6003H183.106L180.642 74.9203C180.472 75.8163 180.418 76.595 180.482 77.2563C180.546 77.9177 180.728 78.4723 181.026 78.9203C181.346 79.3683 181.762 79.699 182.274 79.9123C182.808 80.1043 183.437 80.2003 184.162 80.2003C185.037 80.2003 185.794 80.0297 186.434 79.6883C187.096 79.3257 187.64 78.7603 188.066 77.9923C188.514 77.203 188.856 76.179 189.09 74.9203L191.554 62.6003H197.794L195.266 75.3043C194.605 78.6323 193.282 81.1603 191.298 82.8883C189.314 84.595 186.68 85.4483 183.394 85.4483Z" fill="white"/>
<path d="M195.399 85.0003L199.879 62.6003H209.447C212.327 62.6003 214.545 63.2297 216.103 64.4883C217.681 65.747 218.471 67.4963 218.471 69.7363C218.471 71.6137 218.012 73.2563 217.095 74.6643C216.199 76.051 214.919 77.1283 213.255 77.8963C211.591 78.6643 209.628 79.0483 207.367 79.0483H200.103L203.463 76.3283L201.735 85.0003H195.399ZM209.447 85.0003L204.871 76.8403H211.431L216.071 85.0003H209.447ZM203.303 77.0643L201.095 74.1523H207.655C209.063 74.1523 210.151 73.8217 210.919 73.1603C211.687 72.499 212.071 71.5603 212.071 70.3443C212.071 69.4057 211.761 68.7123 211.143 68.2643C210.524 67.8163 209.66 67.5923 208.551 67.5923H202.439L205.831 64.5843L203.303 77.0643Z" fill="white"/>
<path d="M37.3824 103.006C38.1761 101.181 39.9771 100 41.9677 100H221.689C224.451 100 226.689 102.239 226.689 105V141C226.689 143.761 224.451 146 221.689 146H26.3155C22.7147 146 20.2944 142.309 21.7302 139.006L37.3824 103.006Z" fill="#FB9306"/>
<path d="M143.72 135.448C141.416 135.448 139.432 135.032 137.768 134.2C136.104 133.347 134.824 132.184 133.928 130.712C133.032 129.24 132.584 127.534 132.584 125.592C132.584 123.63 132.925 121.838 133.608 120.216C134.291 118.574 135.251 117.155 136.488 115.96C137.725 114.744 139.197 113.806 140.904 113.144C142.632 112.483 144.52 112.152 146.568 112.152C148.872 112.152 150.856 112.579 152.52 113.432C154.184 114.264 155.464 115.416 156.36 116.888C157.256 118.36 157.704 120.067 157.704 122.008C157.704 123.971 157.363 125.774 156.68 127.416C155.997 129.038 155.037 130.456 153.8 131.672C152.563 132.867 151.08 133.795 149.352 134.456C147.645 135.118 145.768 135.448 143.72 135.448ZM144.264 130.2C145.373 130.2 146.355 129.998 147.208 129.592C148.083 129.187 148.819 128.622 149.416 127.896C150.035 127.15 150.504 126.307 150.824 125.368C151.144 124.43 151.304 123.438 151.304 122.392C151.304 121.39 151.091 120.515 150.664 119.768C150.259 119.022 149.661 118.446 148.872 118.04C148.104 117.614 147.155 117.4 146.024 117.4C144.936 117.4 143.955 117.603 143.08 118.008C142.205 118.414 141.459 118.99 140.84 119.736C140.243 120.462 139.784 121.294 139.464 122.232C139.144 123.171 138.984 124.163 138.984 125.208C138.984 126.19 139.187 127.064 139.592 127.832C140.019 128.579 140.616 129.166 141.384 129.592C142.173 129.998 143.133 130.2 144.264 130.2Z" fill="#003A57"/>
<path d="M161.2 135L158.448 112.6H164.688L167.024 131.992H163.728L173.968 112.6H179.824L181.968 131.992H178.864L189.04 112.6H195.312L183.568 135H176.784L174.8 118.52H176.72L168.016 135H161.2Z" fill="#003A57"/>
<path d="M190.863 135L195.343 112.6H200.559L209.615 127.576L207.439 127.512L210.415 112.6H216.623L212.143 135H206.927L197.903 120.024L200.047 120.088L197.071 135H190.863Z" fill="#003A57"/>
<path d="M17.3824 153.006C18.1761 151.181 19.9771 150 21.9677 150H221.689C224.451 150 226.689 152.239 226.689 155V191C226.689 193.761 224.451 196 221.689 196H6.31554C2.7147 196 0.294441 192.309 1.73019 189.006L17.3824 153.006Z" fill="#CA3D15"/>
<path d="M19.9648 185L34.3328 162.6H40.5728L45.9808 185H39.6768L35.6768 165.608H38.1728L26.6528 185H19.9648ZM26.2368 180.648L28.7968 175.976H39.7408L40.4448 180.648H26.2368Z" fill="white"/>
<path d="M45.5691 185L50.0491 162.6H59.7771C62.1238 162.6 64.1291 162.984 65.7931 163.752C67.4784 164.52 68.7691 165.608 69.6651 167.016C70.5611 168.402 71.0091 170.066 71.0091 172.008C71.0091 173.992 70.6678 175.784 69.9851 177.384C69.3024 178.962 68.3424 180.328 67.1051 181.48C65.8678 182.61 64.3958 183.485 62.6891 184.104C60.9824 184.701 59.0944 185 57.0251 185H45.5691ZM52.9291 179.944H57.2171C58.8171 179.944 60.1611 179.613 61.2491 178.952C62.3371 178.29 63.1691 177.394 63.7451 176.264C64.3211 175.112 64.6091 173.821 64.6091 172.392C64.6091 171.389 64.3958 170.536 63.9691 169.832C63.5638 169.128 62.9451 168.594 62.1131 168.232C61.3024 167.848 60.2891 167.656 59.0731 167.656H55.3611L52.9291 179.944Z" fill="white"/>
<path d="M75.8966 185L70.8086 162.6H77.3046L81.5926 182.024H77.4646L89.6566 162.6H96.1846L82.1366 185H75.8966Z" fill="white"/>
<path d="M99.3518 171.272H109.752L108.824 176.008H98.4238L99.3518 171.272ZM98.0398 180.104H109.784L108.76 185H90.8078L95.2878 162.6H112.824L111.832 167.496H100.536L98.0398 180.104Z" fill="white"/>
<path d="M110.068 185L114.548 162.6H119.764L128.82 177.576L126.644 177.512L129.62 162.6H135.828L131.348 185H126.132L117.108 170.024L119.252 170.088L116.276 185H110.068Z" fill="white"/>
<path d="M138.345 185L141.833 167.624H134.953L135.977 162.6H156.041L155.017 167.624H148.169L144.681 185H138.345Z" fill="white"/>
<path d="M162.25 185.448C160.01 185.448 158.133 185.021 156.618 184.168C155.125 183.293 154.068 182.077 153.45 180.52C152.831 178.941 152.725 177.106 153.13 175.016L155.626 162.6H161.962L159.498 174.92C159.327 175.816 159.274 176.594 159.338 177.256C159.402 177.917 159.583 178.472 159.882 178.92C160.202 179.368 160.618 179.698 161.13 179.912C161.663 180.104 162.293 180.2 163.018 180.2C163.893 180.2 164.65 180.029 165.29 179.688C165.951 179.325 166.495 178.76 166.922 177.992C167.37 177.202 167.711 176.178 167.946 174.92L170.41 162.6H176.65L174.122 175.304C173.461 178.632 172.138 181.16 170.154 182.888C168.17 184.594 165.535 185.448 162.25 185.448Z" fill="white"/>
<path d="M174.254 185L178.734 162.6H188.302C191.182 162.6 193.401 163.229 194.958 164.488C196.537 165.746 197.326 167.496 197.326 169.736C197.326 171.613 196.867 173.256 195.95 174.664C195.054 176.05 193.774 177.128 192.11 177.896C190.446 178.664 188.483 179.048 186.222 179.048H178.958L182.318 176.328L180.59 185H174.254ZM188.302 185L183.726 176.84H190.286L194.926 185H188.302ZM182.158 177.064L179.95 174.152H186.51C187.918 174.152 189.006 173.821 189.774 173.16C190.542 172.498 190.926 171.56 190.926 170.344C190.926 169.405 190.617 168.712 189.998 168.264C189.379 167.816 188.515 167.592 187.406 167.592H181.294L184.686 164.584L182.158 177.064Z" fill="white"/>
<path d="M204.246 171.272H214.646L213.718 176.008H203.318L204.246 171.272ZM202.934 180.104H214.678L213.654 185H195.702L200.182 162.6H217.718L216.726 167.496H205.43L202.934 180.104Z" fill="white"/>
<path d="M237.552 84.9996L247.44 62.5996H253.68L263.6 84.9996H257.008L249.264 65.7036H251.76L244.016 84.9996H237.552ZM242.96 80.6476L244.592 75.9756H255.536L257.168 80.6476H242.96Z" fill="white"/>
<path d="M263.156 84.9996V62.5996H268.372L280.724 77.5116H278.26V62.5996H284.468V84.9996H279.252L266.9 70.0876H269.364V84.9996H263.156Z" fill="white"/>
<path d="M286.697 84.9996V62.5996H291.913L304.265 77.5116H301.801V62.5996H308.009V84.9996H302.793L290.441 70.0876H292.905V84.9996H286.697Z" fill="white"/>
<path d="M320.575 85.4476C317.268 85.4476 314.687 84.5409 312.831 82.7276C310.975 80.9143 310.047 78.3436 310.047 75.0156V62.5996H316.383V74.8236C316.383 76.7436 316.756 78.1196 317.503 78.9516C318.271 79.7836 319.316 80.1996 320.639 80.1996C321.961 80.1996 322.996 79.7836 323.743 78.9516C324.489 78.1196 324.863 76.7436 324.863 74.8236V62.5996H331.103V75.0156C331.103 78.3436 330.175 80.9143 328.319 82.7276C326.463 84.5409 323.881 85.4476 320.575 85.4476Z" fill="white"/>
<path d="M329.998 84.9996L339.886 62.5996H346.126L356.046 84.9996H349.454L341.71 65.7036H344.206L336.462 84.9996H329.998ZM335.406 80.6476L337.038 75.9756H347.982L349.614 80.6476H335.406Z" fill="white"/>
<path d="M355.602 84.9996V62.5996H361.938V79.9756H372.626V84.9996H355.602Z" fill="white"/>
<path d="M240.24 135V112.6H250.48C252.528 112.6 254.288 112.931 255.76 113.592C257.253 114.254 258.405 115.214 259.216 116.472C260.026 117.71 260.432 119.182 260.432 120.888C260.432 122.574 260.026 124.035 259.216 125.272C258.405 126.488 257.253 127.427 255.76 128.088C254.288 128.728 252.528 129.048 250.48 129.048H243.76L246.576 126.392V135H240.24ZM254.096 135L248.528 126.84H255.28L260.88 135H254.096ZM246.576 127.064L243.76 124.152H250.096C251.418 124.152 252.4 123.864 253.04 123.288C253.701 122.712 254.032 121.912 254.032 120.888C254.032 119.843 253.701 119.032 253.04 118.456C252.4 117.88 251.418 117.592 250.096 117.592H243.76L246.576 114.68V127.064Z" fill="white"/>
<path d="M267.511 121.272H277.911V126.008H267.511V121.272ZM267.959 130.104H279.671V135H261.687V112.6H279.255V117.496H267.959V130.104Z" fill="white"/>
<path d="M280.947 135V112.6H291.187C293.235 112.6 294.995 112.931 296.467 113.592C297.961 114.254 299.113 115.214 299.923 116.472C300.734 117.71 301.139 119.182 301.139 120.888C301.139 122.574 300.734 124.035 299.923 125.272C299.113 126.51 297.961 127.47 296.467 128.152C294.995 128.814 293.235 129.144 291.187 129.144H284.467L287.283 126.392V135H280.947ZM287.283 127.064L284.467 124.152H290.803C292.126 124.152 293.107 123.864 293.747 123.288C294.409 122.712 294.739 121.912 294.739 120.888C294.739 119.843 294.409 119.032 293.747 118.456C293.107 117.88 292.126 117.592 290.803 117.592H284.467L287.283 114.68V127.064Z" fill="white"/>
<path d="M313.597 135.448C311.805 135.448 310.152 135.16 308.637 134.584C307.122 134.008 305.8 133.198 304.669 132.152C303.56 131.086 302.696 129.848 302.077 128.44C301.458 127.032 301.149 125.486 301.149 123.8C301.149 122.115 301.458 120.568 302.077 119.16C302.696 117.752 303.56 116.526 304.669 115.48C305.8 114.414 307.122 113.592 308.637 113.016C310.152 112.44 311.805 112.152 313.597 112.152C315.41 112.152 317.064 112.44 318.557 113.016C320.072 113.592 321.384 114.414 322.493 115.48C323.602 116.526 324.466 117.752 325.085 119.16C325.725 120.568 326.045 122.115 326.045 123.8C326.045 125.486 325.725 127.043 325.085 128.472C324.466 129.88 323.602 131.107 322.493 132.152C321.384 133.198 320.072 134.008 318.557 134.584C317.064 135.16 315.41 135.448 313.597 135.448ZM313.597 130.2C314.45 130.2 315.24 130.051 315.965 129.752C316.712 129.454 317.352 129.027 317.885 128.472C318.44 127.896 318.866 127.214 319.165 126.424C319.485 125.635 319.645 124.76 319.645 123.8C319.645 122.819 319.485 121.944 319.165 121.176C318.866 120.387 318.44 119.715 317.885 119.16C317.352 118.584 316.712 118.147 315.965 117.848C315.24 117.55 314.45 117.4 313.597 117.4C312.744 117.4 311.944 117.55 311.197 117.848C310.472 118.147 309.832 118.584 309.277 119.16C308.744 119.715 308.317 120.387 307.997 121.176C307.698 121.944 307.549 122.819 307.549 123.8C307.549 124.76 307.698 125.635 307.997 126.424C308.317 127.214 308.744 127.896 309.277 128.472C309.832 129.027 310.472 129.454 311.197 129.752C311.944 130.051 312.744 130.2 313.597 130.2Z" fill="white"/>
<path d="M327.123 135V112.6H337.364C339.412 112.6 341.172 112.931 342.644 113.592C344.137 114.254 345.289 115.214 346.1 116.472C346.91 117.71 347.315 119.182 347.315 120.888C347.315 122.574 346.91 124.035 346.1 125.272C345.289 126.488 344.137 127.427 342.644 128.088C341.172 128.728 339.412 129.048 337.364 129.048H330.644L333.459 126.392V135H327.123ZM340.979 135L335.411 126.84H342.163L347.763 135H340.979ZM333.459 127.064L330.644 124.152H336.979C338.302 124.152 339.284 123.864 339.924 123.288C340.585 122.712 340.916 121.912 340.916 120.888C340.916 119.843 340.585 119.032 339.924 118.456C339.284 117.88 338.302 117.592 336.979 117.592H330.644L333.459 114.68V127.064Z" fill="white"/>
<path d="M353.027 135V117.624H346.146V112.6H366.211V117.624H359.363V135H353.027Z" fill="white"/>
<path d="M238.96 185V181.032L247.344 173.192C247.941 172.638 248.378 172.147 248.656 171.72C248.954 171.294 249.146 170.91 249.232 170.568C249.338 170.206 249.392 169.875 249.392 169.576C249.392 168.851 249.146 168.286 248.656 167.88C248.186 167.475 247.472 167.272 246.512 167.272C245.701 167.272 244.944 167.454 244.24 167.816C243.536 168.179 242.96 168.723 242.512 169.448L237.808 166.824C238.64 165.416 239.845 164.286 241.424 163.432C243.002 162.579 244.89 162.152 247.088 162.152C248.816 162.152 250.33 162.43 251.632 162.984C252.933 163.539 253.946 164.328 254.672 165.352C255.418 166.376 255.792 167.582 255.792 168.968C255.792 169.694 255.696 170.419 255.504 171.144C255.312 171.848 254.938 172.606 254.384 173.416C253.85 174.206 253.05 175.091 251.984 176.072L245.328 182.216L244.272 179.976H256.4V185H238.96Z" fill="white"/>
<path d="M265.892 185.448C263.972 185.448 262.265 184.99 260.772 184.072C259.3 183.155 258.137 181.832 257.284 180.104C256.431 178.376 256.004 176.275 256.004 173.8C256.004 171.326 256.431 169.224 257.284 167.496C258.137 165.768 259.3 164.446 260.772 163.528C262.265 162.611 263.972 162.152 265.892 162.152C267.791 162.152 269.476 162.611 270.948 163.528C272.441 164.446 273.615 165.768 274.468 167.496C275.321 169.224 275.748 171.326 275.748 173.8C275.748 176.275 275.321 178.376 274.468 180.104C273.615 181.832 272.441 183.155 270.948 184.072C269.476 184.99 267.791 185.448 265.892 185.448ZM265.892 180.264C266.575 180.264 267.172 180.051 267.684 179.624C268.217 179.198 268.633 178.515 268.932 177.576C269.231 176.616 269.38 175.358 269.38 173.8C269.38 172.222 269.231 170.963 268.932 170.024C268.633 169.086 268.217 168.403 267.684 167.976C267.172 167.55 266.575 167.336 265.892 167.336C265.209 167.336 264.601 167.55 264.068 167.976C263.556 168.403 263.14 169.086 262.82 170.024C262.521 170.963 262.372 172.222 262.372 173.8C262.372 175.358 262.521 176.616 262.82 177.576C263.14 178.515 263.556 179.198 264.068 179.624C264.601 180.051 265.209 180.264 265.892 180.264Z" fill="white"/>
<path d="M275.323 185V181.032L283.707 173.192C284.305 172.638 284.742 172.147 285.019 171.72C285.318 171.294 285.51 170.91 285.595 170.568C285.702 170.206 285.755 169.875 285.755 169.576C285.755 168.851 285.51 168.286 285.019 167.88C284.55 167.475 283.835 167.272 282.875 167.272C282.065 167.272 281.307 167.454 280.603 167.816C279.899 168.179 279.323 168.723 278.875 169.448L274.171 166.824C275.003 165.416 276.209 164.286 277.787 163.432C279.366 162.579 281.254 162.152 283.451 162.152C285.179 162.152 286.694 162.43 287.995 162.984C289.297 163.539 290.31 164.328 291.035 165.352C291.782 166.376 292.155 167.582 292.155 168.968C292.155 169.694 292.059 170.419 291.867 171.144C291.675 171.848 291.302 172.606 290.747 173.416C290.214 174.206 289.414 175.091 288.347 176.072L281.691 182.216L280.635 179.976H292.763V185H275.323Z" fill="white"/>
<path d="M299.856 185.448C298.298 185.448 296.741 185.256 295.184 184.872C293.648 184.488 292.304 183.944 291.152 183.24L293.456 178.472C294.352 179.07 295.344 179.528 296.432 179.848C297.541 180.168 298.618 180.328 299.664 180.328C300.752 180.328 301.616 180.126 302.256 179.72C302.896 179.315 303.216 178.739 303.216 177.992C303.216 177.331 302.949 176.808 302.416 176.424C301.882 176.019 301.008 175.816 299.792 175.816H297.136V171.816L303.152 165.32L303.76 167.496H292.304V162.6H308.496V166.568L302.48 173.064L299.376 171.304H301.104C303.898 171.304 306.01 171.934 307.44 173.192C308.89 174.43 309.616 176.03 309.616 177.992C309.616 179.272 309.264 180.478 308.56 181.608C307.877 182.739 306.821 183.667 305.392 184.392C303.962 185.096 302.117 185.448 299.856 185.448Z" fill="white"/>
<path d="M260.284 23.9996L267.36 16.8185C267.474 16.7019 267.539 16.5437 267.539 16.3788C267.539 16.214 267.474 16.0558 267.36 15.9392L260.717 9.19688C260.602 9.08025 260.446 9.01465 260.284 9.01465C260.122 9.01465 259.966 9.08025 259.851 9.19688L252.775 16.378L245.685 9.18222C245.57 9.0656 245.414 9 245.252 9C245.089 9 244.933 9.0656 244.818 9.18222L238.18 15.9237C238.065 16.0403 238 16.1985 238 16.3633C238 16.5281 238.065 16.6864 238.18 16.8029L245.27 23.9996L238.18 31.1953C238.065 31.3119 238 31.4701 238 31.6349C238 31.7998 238.065 31.958 238.18 32.0745L244.818 38.8178C244.933 38.9344 245.089 39 245.252 39C245.414 39 245.57 38.9344 245.685 38.8178L250.69 33.7382C250.69 33.7382 250.851 30.6204 247.247 26.0106L259.851 38.8023C259.966 38.9189 260.122 38.9845 260.284 38.9845C260.446 38.9845 260.602 38.9189 260.717 38.8023L267.36 32.0608C267.474 31.9442 267.539 31.786 267.539 31.6211C267.539 31.4563 267.474 31.2981 267.36 31.1815L260.284 23.9996Z" fill="white"/>
<path d="M330.267 23.9996L336.814 12.925C336.863 12.843 336.888 12.7491 336.888 12.6535C336.888 12.3641 336.654 12.1259 336.368 12.1259H328.222C328.039 12.1264 327.869 12.2248 327.776 12.3845L325.587 16.0858L323.4 12.3819C323.306 12.2222 323.136 12.1238 322.954 12.1233H314.807C314.522 12.1233 314.287 12.3615 314.287 12.6509C314.287 12.7466 314.313 12.8404 314.361 12.9224L320.909 23.997L315.116 33.796L312.427 28.1612C313.661 27.497 314.683 26.4891 315.373 25.2564C316.064 24.022 316.41 22.5213 316.411 20.7543C316.411 17.946 315.561 15.8057 313.863 14.3334C312.164 12.8612 309.867 12.1251 306.97 12.1251H296.282C296.281 12.1251 296.281 12.1251 296.28 12.1251C295.973 12.1251 295.721 12.3811 295.721 12.6922C295.721 12.6925 295.721 12.6929 295.721 12.6931V16.8625C295.31 15.8891 294.684 15.025 293.89 14.3378C292.191 12.8655 289.893 12.1294 286.995 12.1294H276.305C275.999 12.1294 275.747 12.3854 275.747 12.6966V35.3062C275.747 35.6173 275.999 35.8733 276.305 35.8733H283.121C283.428 35.8733 283.68 35.6173 283.68 35.3062V29.3844H286.992C289.893 29.3844 292.191 28.6483 293.888 27.176C294.683 26.4882 295.31 25.6228 295.721 24.6478V35.3062C295.721 35.6173 295.973 35.8733 296.28 35.8733H302.961C303.268 35.8733 303.52 35.6173 303.52 35.3062V29.3844H305.027L307.906 35.4501C308.029 35.7084 308.287 35.8734 308.57 35.8733H322.954C323.136 35.8729 323.306 35.7745 323.4 35.6147L325.588 31.9134L327.777 35.6147C327.87 35.7745 328.04 35.8729 328.223 35.8733H336.369C336.654 35.8733 336.889 35.6352 336.889 35.3458C336.889 35.2501 336.863 35.1563 336.815 35.0743L330.267 23.9996ZM285.387 23.3713H283.68V18.1391H285.387C287.417 18.1391 288.433 19.0111 288.433 20.7552C288.434 22.4992 287.418 23.3713 285.387 23.3713ZM303.522 23.3713V18.1391H305.296C307.326 18.1391 308.342 19.0111 308.342 20.7552C308.343 22.4992 307.328 23.3713 305.297 23.3713H303.522Z" fill="white"/>
</svg>
