<svg width="368" height="197" viewBox="0 0 368 197" fill="none" xmlns="http://www.w3.org/2000/svg">
<path d="M75.6136 2.98647C76.4121 1.1716 78.2075 0 80.1903 0H221.689C224.451 0 226.689 2.23858 226.689 5V41C226.689 43.7614 224.451 46 221.689 46H64.3517C60.7415 46 58.3213 42.291 59.7751 38.9865L75.6136 2.98647Z" fill="#A1C5E2"/>
<path d="M98.8753 35.4483C96.5927 35.4483 94.598 35.0323 92.8913 34.2003C91.206 33.3683 89.9047 32.2163 88.9873 30.7443C88.07 29.251 87.6113 27.5337 87.6113 25.5923C87.6113 23.651 87.9527 21.859 88.6353 20.2163C89.318 18.5737 90.278 17.155 91.5153 15.9603C92.7527 14.7443 94.2247 13.8057 95.9313 13.1443C97.6593 12.483 99.5687 12.1523 101.659 12.1523C103.729 12.1523 105.563 12.515 107.163 13.2403C108.763 13.9657 109.958 15.011 110.747 16.3763L106.171 20.0243C105.659 19.171 104.987 18.5203 104.155 18.0723C103.345 17.6243 102.374 17.4003 101.243 17.4003C100.155 17.4003 99.1633 17.5923 98.2673 17.9763C97.3927 18.3603 96.6353 18.9043 95.9953 19.6083C95.3553 20.3123 94.8647 21.1443 94.5233 22.1043C94.182 23.043 94.0113 24.067 94.0113 25.1763C94.0113 26.179 94.2247 27.0643 94.6513 27.8323C95.0993 28.579 95.7287 29.1657 96.5393 29.5923C97.3713 29.9977 98.3527 30.2003 99.4833 30.2003C100.486 30.2003 101.446 29.9977 102.363 29.5923C103.302 29.187 104.166 28.5257 104.955 27.6083L108.699 31.2883C107.441 32.803 105.99 33.8803 104.347 34.5203C102.705 35.139 100.881 35.4483 98.8753 35.4483Z" fill="#003A57"/>
<path d="M127.46 12.6003H133.796L129.316 35.0003H122.98L127.46 12.6003ZM114.372 35.0003H108.036L112.516 12.6003H118.852L114.372 35.0003ZM125.188 26.2643H115.684L116.74 21.0163H126.244L125.188 26.2643Z" fill="#003A57"/>
<path d="M143.674 35.4483C141.37 35.4483 139.386 35.0323 137.722 34.2003C136.058 33.347 134.778 32.1843 133.882 30.7123C132.986 29.2403 132.538 27.5337 132.538 25.5923C132.538 23.6297 132.879 21.8377 133.562 20.2163C134.244 18.5737 135.204 17.155 136.442 15.9603C137.679 14.7443 139.151 13.8057 140.858 13.1443C142.586 12.483 144.474 12.1523 146.522 12.1523C148.826 12.1523 150.81 12.579 152.474 13.4323C154.138 14.2643 155.418 15.4163 156.314 16.8883C157.21 18.3603 157.658 20.067 157.658 22.0083C157.658 23.971 157.316 25.7737 156.634 27.4163C155.951 29.0377 154.991 30.4563 153.754 31.6723C152.516 32.867 151.034 33.795 149.306 34.4563C147.599 35.1177 145.722 35.4483 143.674 35.4483ZM144.218 30.2003C145.327 30.2003 146.308 29.9977 147.162 29.5923C148.036 29.187 148.772 28.6217 149.37 27.8963C149.988 27.1497 150.458 26.307 150.778 25.3683C151.098 24.4297 151.258 23.4377 151.258 22.3923C151.258 21.3897 151.044 20.515 150.618 19.7683C150.212 19.0217 149.615 18.4457 148.826 18.0403C148.058 17.6137 147.108 17.4003 145.978 17.4003C144.89 17.4003 143.908 17.603 143.034 18.0083C142.159 18.4137 141.412 18.9897 140.794 19.7363C140.196 20.4617 139.738 21.2937 139.418 22.2323C139.098 23.171 138.938 24.163 138.938 25.2083C138.938 26.1897 139.14 27.0643 139.546 27.8323C139.972 28.579 140.57 29.1657 141.338 29.5923C142.127 29.9977 143.087 30.2003 144.218 30.2003Z" fill="#003A57"/>
<path d="M168.496 35.4483C166.192 35.4483 164.208 35.0323 162.544 34.2003C160.88 33.347 159.6 32.1843 158.704 30.7123C157.808 29.2403 157.36 27.5337 157.36 25.5923C157.36 23.6297 157.701 21.8377 158.384 20.2163C159.067 18.5737 160.027 17.155 161.264 15.9603C162.501 14.7443 163.973 13.8057 165.68 13.1443C167.408 12.483 169.296 12.1523 171.344 12.1523C173.648 12.1523 175.632 12.579 177.296 13.4323C178.96 14.2643 180.24 15.4163 181.136 16.8883C182.032 18.3603 182.48 20.067 182.48 22.0083C182.48 23.971 182.139 25.7737 181.456 27.4163C180.773 29.0377 179.813 30.4563 178.576 31.6723C177.339 32.867 175.856 33.795 174.128 34.4563C172.421 35.1177 170.544 35.4483 168.496 35.4483ZM169.04 30.2003C170.149 30.2003 171.131 29.9977 171.984 29.5923C172.859 29.187 173.595 28.6217 174.192 27.8963C174.811 27.1497 175.28 26.307 175.6 25.3683C175.92 24.4297 176.08 23.4377 176.08 22.3923C176.08 21.3897 175.867 20.515 175.44 19.7683C175.035 19.0217 174.437 18.4457 173.648 18.0403C172.88 17.6137 171.931 17.4003 170.8 17.4003C169.712 17.4003 168.731 17.603 167.856 18.0083C166.981 18.4137 166.235 18.9897 165.616 19.7363C165.019 20.4617 164.56 21.2937 164.24 22.2323C163.92 23.171 163.76 24.163 163.76 25.2083C163.76 26.1897 163.963 27.0643 164.368 27.8323C164.795 28.579 165.392 29.1657 166.16 29.5923C166.949 29.9977 167.909 30.2003 169.04 30.2003Z" fill="#003A57"/>
<path d="M189.575 35.4483C188.295 35.4483 187.068 35.3417 185.895 35.1283C184.721 34.9363 183.655 34.659 182.695 34.2963C181.735 33.9123 180.913 33.4963 180.231 33.0483L182.727 28.3123C183.495 28.7817 184.284 29.187 185.095 29.5283C185.927 29.8483 186.769 30.0937 187.623 30.2643C188.476 30.435 189.329 30.5203 190.183 30.5203C190.993 30.5203 191.687 30.4457 192.263 30.2963C192.839 30.1257 193.276 29.891 193.575 29.5923C193.873 29.2937 194.023 28.9417 194.023 28.5363C194.023 28.0883 193.82 27.7363 193.415 27.4803C193.031 27.203 192.519 26.9683 191.879 26.7763C191.239 26.5843 190.524 26.3923 189.735 26.2003C188.967 25.987 188.188 25.7417 187.399 25.4643C186.631 25.1657 185.927 24.803 185.287 24.3763C184.647 23.9283 184.124 23.363 183.719 22.6803C183.335 21.9977 183.143 21.155 183.143 20.1523C183.143 18.531 183.58 17.123 184.455 15.9283C185.329 14.7337 186.567 13.8057 188.167 13.1443C189.788 12.483 191.697 12.1523 193.895 12.1523C195.495 12.1523 196.988 12.323 198.375 12.6643C199.761 12.9843 200.956 13.4537 201.959 14.0723L199.655 18.7763C198.78 18.2217 197.809 17.8057 196.743 17.5283C195.697 17.2297 194.62 17.0803 193.511 17.0803C192.657 17.0803 191.921 17.1763 191.303 17.3683C190.705 17.5603 190.247 17.827 189.927 18.1683C189.628 18.4883 189.479 18.851 189.479 19.2563C189.479 19.683 189.671 20.035 190.055 20.3123C190.439 20.5897 190.951 20.8243 191.591 21.0163C192.252 21.2083 192.967 21.411 193.735 21.6243C194.524 21.8163 195.303 22.051 196.071 22.3283C196.839 22.5843 197.553 22.9363 198.215 23.3843C198.876 23.811 199.399 24.355 199.783 25.0163C200.167 25.6777 200.359 26.499 200.359 27.4803C200.359 29.0803 199.921 30.4777 199.047 31.6723C198.172 32.867 196.924 33.795 195.303 34.4563C193.681 35.1177 191.772 35.4483 189.575 35.4483Z" fill="#003A57"/>
<path d="M208.245 21.2723H218.645L217.717 26.0083H207.317L208.245 21.2723ZM206.933 30.1043H218.677L217.653 35.0003H199.701L204.181 12.6003H221.717L220.725 17.4963H209.429L206.933 30.1043Z" fill="#003A57"/>
<path d="M57.3824 53.0064C58.1761 51.1808 59.9771 50 61.9677 50H221.689C224.451 50 226.689 52.2386 226.689 55V91C226.689 93.7614 224.451 96 221.689 96H46.3155C42.7147 96 40.2944 92.3086 41.7302 89.0064L57.3824 53.0064Z" fill="#0089BD"/>
<path d="M134.345 85.0003L136.233 75.4963L136.937 79.3683L130.249 62.6003H136.617L141.417 74.7603L137.513 74.7923L147.305 62.6003H153.737L140.425 79.3683L142.569 75.4963L140.681 85.0003H134.345Z" fill="white"/>
<path d="M159.756 85.4483C157.452 85.4483 155.468 85.0323 153.804 84.2003C152.14 83.347 150.86 82.1843 149.964 80.7123C149.068 79.2403 148.62 77.5337 148.62 75.5923C148.62 73.6297 148.961 71.8377 149.644 70.2163C150.326 68.5737 151.286 67.155 152.524 65.9603C153.761 64.7443 155.233 63.8057 156.94 63.1443C158.668 62.483 160.556 62.1523 162.604 62.1523C164.908 62.1523 166.892 62.579 168.556 63.4323C170.22 64.2643 171.5 65.4163 172.396 66.8883C173.292 68.3603 173.74 70.067 173.74 72.0083C173.74 73.971 173.398 75.7737 172.716 77.4163C172.033 79.0377 171.073 80.4563 169.836 81.6723C168.598 82.867 167.116 83.795 165.388 84.4563C163.681 85.1177 161.804 85.4483 159.756 85.4483ZM160.3 80.2003C161.409 80.2003 162.39 79.9977 163.244 79.5923C164.118 79.187 164.854 78.6217 165.452 77.8963C166.07 77.1497 166.54 76.307 166.86 75.3683C167.18 74.4297 167.34 73.4377 167.34 72.3923C167.34 71.3897 167.126 70.515 166.7 69.7683C166.294 69.0217 165.697 68.4457 164.908 68.0403C164.14 67.6137 163.19 67.4003 162.06 67.4003C160.972 67.4003 159.99 67.603 159.116 68.0083C158.241 68.4137 157.494 68.9897 156.876 69.7363C156.278 70.4617 155.82 71.2937 155.5 72.2323C155.18 73.171 155.02 74.163 155.02 75.2083C155.02 76.1897 155.222 77.0643 155.628 77.8323C156.054 78.579 156.652 79.1657 157.42 79.5923C158.209 79.9977 159.169 80.2003 160.3 80.2003Z" fill="white"/>
<path d="M183.394 85.4483C181.154 85.4483 179.277 85.0217 177.762 84.1683C176.269 83.2937 175.213 82.0777 174.594 80.5203C173.976 78.9417 173.869 77.107 174.274 75.0163L176.77 62.6003H183.106L180.642 74.9203C180.472 75.8163 180.418 76.595 180.482 77.2563C180.546 77.9177 180.728 78.4723 181.026 78.9203C181.346 79.3683 181.762 79.699 182.274 79.9123C182.808 80.1043 183.437 80.2003 184.162 80.2003C185.037 80.2003 185.794 80.0297 186.434 79.6883C187.096 79.3257 187.64 78.7603 188.066 77.9923C188.514 77.203 188.856 76.179 189.09 74.9203L191.554 62.6003H197.794L195.266 75.3043C194.605 78.6323 193.282 81.1603 191.298 82.8883C189.314 84.595 186.68 85.4483 183.394 85.4483Z" fill="white"/>
<path d="M195.399 85.0003L199.879 62.6003H209.447C212.327 62.6003 214.545 63.2297 216.103 64.4883C217.681 65.747 218.471 67.4963 218.471 69.7363C218.471 71.6137 218.012 73.2563 217.095 74.6643C216.199 76.051 214.919 77.1283 213.255 77.8963C211.591 78.6643 209.628 79.0483 207.367 79.0483H200.103L203.463 76.3283L201.735 85.0003H195.399ZM209.447 85.0003L204.871 76.8403H211.431L216.071 85.0003H209.447ZM203.303 77.0643L201.095 74.1523H207.655C209.063 74.1523 210.151 73.8217 210.919 73.1603C211.687 72.499 212.071 71.5603 212.071 70.3443C212.071 69.4057 211.761 68.7123 211.143 68.2643C210.524 67.8163 209.66 67.5923 208.551 67.5923H202.439L205.831 64.5843L203.303 77.0643Z" fill="white"/>
<path d="M37.3824 103.006C38.1761 101.181 39.9771 100 41.9677 100H221.689C224.451 100 226.689 102.239 226.689 105V141C226.689 143.761 224.451 146 221.689 146H26.3155C22.7147 146 20.2944 142.309 21.7302 139.006L37.3824 103.006Z" fill="#FB9306"/>
<path d="M143.72 135.448C141.416 135.448 139.432 135.032 137.768 134.2C136.104 133.347 134.824 132.184 133.928 130.712C133.032 129.24 132.584 127.534 132.584 125.592C132.584 123.63 132.925 121.838 133.608 120.216C134.291 118.574 135.251 117.155 136.488 115.96C137.725 114.744 139.197 113.806 140.904 113.144C142.632 112.483 144.52 112.152 146.568 112.152C148.872 112.152 150.856 112.579 152.52 113.432C154.184 114.264 155.464 115.416 156.36 116.888C157.256 118.36 157.704 120.067 157.704 122.008C157.704 123.971 157.363 125.774 156.68 127.416C155.997 129.038 155.037 130.456 153.8 131.672C152.563 132.867 151.08 133.795 149.352 134.456C147.645 135.118 145.768 135.448 143.72 135.448ZM144.264 130.2C145.373 130.2 146.355 129.998 147.208 129.592C148.083 129.187 148.819 128.622 149.416 127.896C150.035 127.15 150.504 126.307 150.824 125.368C151.144 124.43 151.304 123.438 151.304 122.392C151.304 121.39 151.091 120.515 150.664 119.768C150.259 119.022 149.661 118.446 148.872 118.04C148.104 117.614 147.155 117.4 146.024 117.4C144.936 117.4 143.955 117.603 143.08 118.008C142.205 118.414 141.459 118.99 140.84 119.736C140.243 120.462 139.784 121.294 139.464 122.232C139.144 123.171 138.984 124.163 138.984 125.208C138.984 126.19 139.187 127.064 139.592 127.832C140.019 128.579 140.616 129.166 141.384 129.592C142.173 129.998 143.133 130.2 144.264 130.2Z" fill="#003A57"/>
<path d="M161.2 135L158.448 112.6H164.688L167.024 131.992H163.728L173.968 112.6H179.824L181.968 131.992H178.864L189.04 112.6H195.312L183.568 135H176.784L174.8 118.52H176.72L168.016 135H161.2Z" fill="#003A57"/>
<path d="M190.863 135L195.343 112.6H200.559L209.615 127.576L207.439 127.512L210.415 112.6H216.623L212.143 135H206.927L197.903 120.024L200.047 120.088L197.071 135H190.863Z" fill="#003A57"/>
<path d="M17.3824 153.006C18.1761 151.181 19.9771 150 21.9677 150H221.689C224.451 150 226.689 152.239 226.689 155V191C226.689 193.761 224.451 196 221.689 196H6.31554C2.7147 196 0.294441 192.309 1.73019 189.006L17.3824 153.006Z" fill="#CA3D15"/>
<path d="M19.9648 185L34.3328 162.6H40.5728L45.9808 185H39.6768L35.6768 165.608H38.1728L26.6528 185H19.9648ZM26.2368 180.648L28.7968 175.976H39.7408L40.4448 180.648H26.2368Z" fill="white"/>
<path d="M45.5691 185L50.0491 162.6H59.7771C62.1238 162.6 64.1291 162.984 65.7931 163.752C67.4784 164.52 68.7691 165.608 69.6651 167.016C70.5611 168.402 71.0091 170.066 71.0091 172.008C71.0091 173.992 70.6678 175.784 69.9851 177.384C69.3024 178.962 68.3424 180.328 67.1051 181.48C65.8678 182.61 64.3958 183.485 62.6891 184.104C60.9824 184.701 59.0944 185 57.0251 185H45.5691ZM52.9291 179.944H57.2171C58.8171 179.944 60.1611 179.613 61.2491 178.952C62.3371 178.29 63.1691 177.394 63.7451 176.264C64.3211 175.112 64.6091 173.821 64.6091 172.392C64.6091 171.389 64.3958 170.536 63.9691 169.832C63.5638 169.128 62.9451 168.594 62.1131 168.232C61.3024 167.848 60.2891 167.656 59.0731 167.656H55.3611L52.9291 179.944Z" fill="white"/>
<path d="M75.8966 185L70.8086 162.6H77.3046L81.5926 182.024H77.4646L89.6566 162.6H96.1846L82.1366 185H75.8966Z" fill="white"/>
<path d="M99.3518 171.272H109.752L108.824 176.008H98.4238L99.3518 171.272ZM98.0398 180.104H109.784L108.76 185H90.8078L95.2878 162.6H112.824L111.832 167.496H100.536L98.0398 180.104Z" fill="white"/>
<path d="M110.068 185L114.548 162.6H119.764L128.82 177.576L126.644 177.512L129.62 162.6H135.828L131.348 185H126.132L117.108 170.024L119.252 170.088L116.276 185H110.068Z" fill="white"/>
<path d="M138.345 185L141.833 167.624H134.953L135.977 162.6H156.041L155.017 167.624H148.169L144.681 185H138.345Z" fill="white"/>
<path d="M162.25 185.448C160.01 185.448 158.133 185.021 156.618 184.168C155.125 183.293 154.068 182.077 153.45 180.52C152.831 178.941 152.725 177.106 153.13 175.016L155.626 162.6H161.962L159.498 174.92C159.327 175.816 159.274 176.594 159.338 177.256C159.402 177.917 159.583 178.472 159.882 178.92C160.202 179.368 160.618 179.698 161.13 179.912C161.663 180.104 162.293 180.2 163.018 180.2C163.893 180.2 164.65 180.029 165.29 179.688C165.951 179.325 166.495 178.76 166.922 177.992C167.37 177.202 167.711 176.178 167.946 174.92L170.41 162.6H176.65L174.122 175.304C173.461 178.632 172.138 181.16 170.154 182.888C168.17 184.594 165.535 185.448 162.25 185.448Z" fill="white"/>
<path d="M174.254 185L178.734 162.6H188.302C191.182 162.6 193.401 163.229 194.958 164.488C196.537 165.746 197.326 167.496 197.326 169.736C197.326 171.613 196.867 173.256 195.95 174.664C195.054 176.05 193.774 177.128 192.11 177.896C190.446 178.664 188.483 179.048 186.222 179.048H178.958L182.318 176.328L180.59 185H174.254ZM188.302 185L183.726 176.84H190.286L194.926 185H188.302ZM182.158 177.064L179.95 174.152H186.51C187.918 174.152 189.006 173.821 189.774 173.16C190.542 172.498 190.926 171.56 190.926 170.344C190.926 169.405 190.617 168.712 189.998 168.264C189.379 167.816 188.515 167.592 187.406 167.592H181.294L184.686 164.584L182.158 177.064Z" fill="white"/>
<path d="M204.246 171.272H214.646L213.718 176.008H203.318L204.246 171.272ZM202.934 180.104H214.678L213.654 185H195.702L200.182 162.6H217.718L216.726 167.496H205.43L202.934 180.104Z" fill="white"/>
<path d="M235.788 84.9996L245.395 62.5996H251.457L261.094 84.9996H254.69L247.167 65.7036H249.592L242.068 84.9996H235.788ZM241.042 80.6476L242.628 75.9756H253.26L254.846 80.6476H241.042Z" fill="white"/>
<path d="M260.663 84.9996V62.5996H265.731L277.731 77.5116H275.337V62.5996H281.369V84.9996H276.301L264.301 70.0876H266.695V84.9996H260.663Z" fill="white"/>
<path d="M283.534 84.9996V62.5996H288.602L300.602 77.5116H298.208V62.5996H304.24V84.9996H299.172L287.172 70.0876H289.566V84.9996H283.534Z" fill="white"/>
<path d="M316.447 85.4476C313.234 85.4476 310.727 84.5409 308.923 82.7276C307.12 80.9143 306.219 78.3436 306.219 75.0156V62.5996H312.374V74.8236C312.374 76.7436 312.737 78.1196 313.462 78.9516C314.209 79.7836 315.224 80.1996 316.509 80.1996C317.794 80.1996 318.799 79.7836 319.525 78.9516C320.25 78.1196 320.613 76.7436 320.613 74.8236V62.5996H326.675V75.0156C326.675 78.3436 325.774 80.9143 323.97 82.7276C322.167 84.5409 319.66 85.4476 316.447 85.4476Z" fill="white"/>
<path d="M325.602 84.9996L335.209 62.5996H341.271L350.909 84.9996H344.504L336.981 65.7036H339.406L331.882 84.9996H325.602ZM330.856 80.6476L332.442 75.9756H343.074L344.66 80.6476H330.856Z" fill="white"/>
<path d="M350.477 84.9996V62.5996H356.633V79.9756H367.017V84.9996H350.477Z" fill="white"/>
<path d="M238.399 135V112.6H248.348C250.338 112.6 252.047 112.931 253.478 113.592C254.928 114.254 256.048 115.214 256.835 116.472C257.623 117.71 258.017 119.182 258.017 120.888C258.017 122.574 257.623 124.035 256.835 125.272C256.048 126.488 254.928 127.427 253.478 128.088C252.047 128.728 250.338 129.048 248.348 129.048H241.819L244.555 126.392V135H238.399ZM251.861 135L246.451 126.84H253.011L258.452 135H251.861ZM244.555 127.064L241.819 124.152H247.975C249.26 124.152 250.213 123.864 250.835 123.288C251.477 122.712 251.799 121.912 251.799 120.888C251.799 119.843 251.477 119.032 250.835 118.456C250.213 117.88 249.26 117.592 247.975 117.592H241.819L244.555 114.68V127.064Z" fill="white"/>
<path d="M264.894 121.272H274.998V126.008H264.894V121.272ZM265.33 130.104H276.708V135H259.236V112.6H276.304V117.496H265.33V130.104Z" fill="white"/>
<path d="M277.948 135V112.6H287.896C289.886 112.6 291.596 112.931 293.026 113.592C294.477 114.254 295.596 115.214 296.384 116.472C297.171 117.71 297.565 119.182 297.565 120.888C297.565 122.574 297.171 124.035 296.384 125.272C295.596 126.51 294.477 127.47 293.026 128.152C291.596 128.814 289.886 129.144 287.896 129.144H281.368L284.103 126.392V135H277.948ZM284.103 127.064L281.368 124.152H287.523C288.808 124.152 289.762 123.864 290.383 123.288C291.026 122.712 291.347 121.912 291.347 120.888C291.347 119.843 291.026 119.032 290.383 118.456C289.762 117.88 288.808 117.592 287.523 117.592H281.368L284.103 114.68V127.064Z" fill="white"/>
<path d="M309.668 135.448C307.927 135.448 306.321 135.16 304.849 134.584C303.378 134.008 302.093 133.198 300.994 132.152C299.916 131.086 299.077 129.848 298.476 128.44C297.875 127.032 297.574 125.486 297.574 123.8C297.574 122.115 297.875 120.568 298.476 119.16C299.077 117.752 299.916 116.526 300.994 115.48C302.093 114.414 303.378 113.592 304.849 113.016C306.321 112.44 307.927 112.152 309.668 112.152C311.43 112.152 313.036 112.44 314.487 113.016C315.958 113.592 317.233 114.414 318.311 115.48C319.388 116.526 320.228 117.752 320.829 119.16C321.451 120.568 321.762 122.115 321.762 123.8C321.762 125.486 321.451 127.043 320.829 128.472C320.228 129.88 319.388 131.107 318.311 132.152C317.233 133.198 315.958 134.008 314.487 134.584C313.036 135.16 311.43 135.448 309.668 135.448ZM309.668 130.2C310.497 130.2 311.264 130.051 311.969 129.752C312.694 129.454 313.316 129.027 313.834 128.472C314.373 127.896 314.787 127.214 315.077 126.424C315.388 125.635 315.544 124.76 315.544 123.8C315.544 122.819 315.388 121.944 315.077 121.176C314.787 120.387 314.373 119.715 313.834 119.16C313.316 118.584 312.694 118.147 311.969 117.848C311.264 117.55 310.497 117.4 309.668 117.4C308.839 117.4 308.062 117.55 307.336 117.848C306.632 118.147 306.01 118.584 305.471 119.16C304.953 119.715 304.538 120.387 304.227 121.176C303.937 121.944 303.792 122.819 303.792 123.8C303.792 124.76 303.937 125.635 304.227 126.424C304.538 127.214 304.953 127.896 305.471 128.472C306.01 129.027 306.632 129.454 307.336 129.752C308.062 130.051 308.839 130.2 309.668 130.2Z" fill="white"/>
<path d="M322.809 135V112.6H332.758C334.748 112.6 336.457 112.931 337.888 113.592C339.338 114.254 340.458 115.214 341.245 116.472C342.033 117.71 342.426 119.182 342.426 120.888C342.426 122.574 342.033 124.035 341.245 125.272C340.458 126.488 339.338 127.427 337.888 128.088C336.457 128.728 334.748 129.048 332.758 129.048H326.229L328.965 126.392V135H322.809ZM336.271 135L330.861 126.84H337.421L342.862 135H336.271ZM328.965 127.064L326.229 124.152H332.385C333.67 124.152 334.623 123.864 335.245 123.288C335.887 122.712 336.209 121.912 336.209 120.888C336.209 119.843 335.887 119.032 335.245 118.456C334.623 117.88 333.67 117.592 332.385 117.592H326.229L328.965 114.68V127.064Z" fill="white"/>
<path d="M347.975 135V117.624H341.291V112.6H360.784V117.624H354.13V135H347.975Z" fill="white"/>
<path d="M237.156 185V181.032L245.301 173.192C245.881 172.638 246.306 172.147 246.576 171.72C246.866 171.294 247.052 170.91 247.135 170.568C247.239 170.206 247.291 169.875 247.291 169.576C247.291 168.851 247.052 168.286 246.576 167.88C246.12 167.475 245.425 167.272 244.493 167.272C243.705 167.272 242.969 167.454 242.285 167.816C241.602 168.179 241.042 168.723 240.607 169.448L236.037 166.824C236.845 165.416 238.016 164.286 239.55 163.432C241.083 162.579 242.918 162.152 245.052 162.152C246.731 162.152 248.203 162.43 249.467 162.984C250.731 163.539 251.716 164.328 252.42 165.352C253.146 166.376 253.509 167.582 253.509 168.968C253.509 169.694 253.415 170.419 253.229 171.144C253.042 171.848 252.68 172.606 252.141 173.416C251.623 174.206 250.845 175.091 249.809 176.072L243.343 182.216L242.317 179.976H254.099V185H237.156Z" fill="white"/>
<path d="M263.321 185.448C261.456 185.448 259.798 184.99 258.347 184.072C256.917 183.155 255.787 181.832 254.958 180.104C254.129 178.376 253.715 176.275 253.715 173.8C253.715 171.326 254.129 169.224 254.958 167.496C255.787 165.768 256.917 164.446 258.347 163.528C259.798 162.611 261.456 162.152 263.321 162.152C265.166 162.152 266.803 162.611 268.233 163.528C269.684 164.446 270.824 165.768 271.653 167.496C272.482 169.224 272.897 171.326 272.897 173.8C272.897 176.275 272.482 178.376 271.653 180.104C270.824 181.832 269.684 183.155 268.233 184.072C266.803 184.99 265.166 185.448 263.321 185.448ZM263.321 180.264C263.984 180.264 264.565 180.051 265.062 179.624C265.58 179.198 265.985 178.515 266.275 177.576C266.565 176.616 266.71 175.358 266.71 173.8C266.71 172.222 266.565 170.963 266.275 170.024C265.985 169.086 265.58 168.403 265.062 167.976C264.565 167.55 263.984 167.336 263.321 167.336C262.658 167.336 262.067 167.55 261.549 167.976C261.052 168.403 260.648 169.086 260.337 170.024C260.047 170.963 259.901 172.222 259.901 173.8C259.901 175.358 260.047 176.616 260.337 177.576C260.648 178.515 261.052 179.198 261.549 179.624C262.067 180.051 262.658 180.264 263.321 180.264Z" fill="white"/>
<path d="M272.484 185V181.032L280.63 173.192C281.21 172.638 281.635 172.147 281.904 171.72C282.194 171.294 282.381 170.91 282.464 170.568C282.567 170.206 282.619 169.875 282.619 169.576C282.619 168.851 282.381 168.286 281.904 167.88C281.448 167.475 280.754 167.272 279.821 167.272C279.034 167.272 278.298 167.454 277.614 167.816C276.93 168.179 276.37 168.723 275.935 169.448L271.365 166.824C272.173 165.416 273.344 164.286 274.878 163.432C276.412 162.579 278.246 162.152 280.381 162.152C282.06 162.152 283.531 162.43 284.795 162.984C286.06 163.539 287.044 164.328 287.749 165.352C288.474 166.376 288.837 167.582 288.837 168.968C288.837 169.694 288.744 170.419 288.557 171.144C288.371 171.848 288.008 172.606 287.469 173.416C286.951 174.206 286.174 175.091 285.137 176.072L278.671 182.216L277.645 179.976H289.428V185H272.484Z" fill="white"/>
<path d="M296.318 185.448C294.805 185.448 293.292 185.256 291.779 184.872C290.287 184.488 288.981 183.944 287.862 183.24L290.1 178.472C290.971 179.07 291.934 179.528 292.991 179.848C294.069 180.168 295.116 180.328 296.131 180.328C297.188 180.328 298.028 180.126 298.65 179.72C299.271 179.315 299.582 178.739 299.582 177.992C299.582 177.331 299.323 176.808 298.805 176.424C298.287 176.019 297.437 175.816 296.256 175.816H293.675V171.816L299.52 165.32L300.111 167.496H288.981V162.6H304.712V166.568L298.867 173.064L295.852 171.304H297.53C300.246 171.304 302.297 171.934 303.686 173.192C305.095 174.43 305.8 176.03 305.8 177.992C305.8 179.272 305.458 180.478 304.774 181.608C304.111 182.739 303.085 183.667 301.696 184.392C300.308 185.096 298.515 185.448 296.318 185.448Z" fill="white"/>
<path d="M258.534 22.9996L265.689 15.8185C265.806 15.7019 265.871 15.5437 265.871 15.3788C265.871 15.214 265.806 15.0558 265.689 14.9392L258.972 8.19688C258.856 8.08025 258.699 8.01465 258.534 8.01465C258.37 8.01465 258.213 8.08025 258.096 8.19688L250.942 15.378L243.771 8.18222C243.655 8.0656 243.497 8 243.333 8C243.169 8 243.011 8.0656 242.895 8.18222L236.182 14.9237C236.065 15.0403 236 15.1985 236 15.3633C236 15.5281 236.065 15.6864 236.182 15.8029L243.352 22.9996L236.182 30.1953C236.065 30.3119 236 30.4701 236 30.6349C236 30.7998 236.065 30.958 236.182 31.0745L242.895 37.8178C243.011 37.9344 243.169 38 243.333 38C243.497 38 243.655 37.9344 243.771 37.8178L248.832 32.7382C248.832 32.7382 248.995 29.6204 245.351 25.0106L258.096 37.8023C258.213 37.9189 258.37 37.9845 258.534 37.9845C258.699 37.9845 258.856 37.9189 258.972 37.8023L265.689 31.0608C265.806 30.9442 265.871 30.786 265.871 30.6211C265.871 30.4563 265.806 30.2981 265.689 30.1815L258.534 22.9996Z" fill="white"/>
<path d="M329.304 22.9996L335.924 11.925C335.973 11.843 335.999 11.7491 335.999 11.6535C335.999 11.3641 335.762 11.1259 335.474 11.1259H327.236C327.051 11.1264 326.879 11.2248 326.785 11.3845L324.571 15.0858L322.359 11.3819C322.265 11.2222 322.093 11.1238 321.908 11.1233H313.67C313.382 11.1233 313.144 11.3615 313.144 11.6509C313.144 11.7466 313.17 11.8404 313.219 11.9224L319.84 22.997L313.983 32.796L311.263 27.1612C312.511 26.497 313.545 25.4891 314.242 24.2564C314.941 23.022 315.291 21.5213 315.292 19.7543C315.292 16.946 314.433 14.8057 312.715 13.3334C310.998 11.8612 308.674 11.1251 305.745 11.1251H294.937C294.936 11.1251 294.935 11.1251 294.935 11.1251C294.625 11.1251 294.37 11.3811 294.37 11.6922C294.37 11.6925 294.37 11.6929 294.37 11.6931V15.8625C293.954 14.8891 293.321 14.025 292.518 13.3378C290.8 11.8655 288.476 11.1294 285.545 11.1294H274.736C274.426 11.1294 274.171 11.3854 274.171 11.6966V34.3062C274.171 34.6173 274.426 34.8733 274.736 34.8733H281.628C281.938 34.8733 282.193 34.6173 282.193 34.3062V28.3844H285.543C288.476 28.3844 290.8 27.6483 292.515 26.176C293.319 25.4882 293.954 24.6228 294.37 23.6478V34.3062C294.37 34.6173 294.625 34.8733 294.935 34.8733H301.691C302.001 34.8733 302.256 34.6173 302.256 34.3062V28.3844H303.78L306.691 34.4501C306.815 34.7084 307.077 34.8734 307.363 34.8733H321.908C322.093 34.8729 322.265 34.7745 322.359 34.6147L324.572 30.9134L326.786 34.6147C326.88 34.7745 327.052 34.8729 327.236 34.8733H335.474C335.763 34.8733 336 34.6352 336 34.3458C336 34.2501 335.974 34.1563 335.925 34.0743L329.304 22.9996ZM283.919 22.3713H282.193V17.1391H283.919C285.973 17.1391 286.999 18.0111 287 19.7552C287.001 21.4992 285.974 22.3713 283.919 22.3713ZM302.258 22.3713V17.1391H304.052C306.105 17.1391 307.132 18.0111 307.133 19.7552C307.133 21.4992 306.107 22.3713 304.053 22.3713H302.258Z" fill="white"/>
</svg>
