<svg width="35" height="35" viewBox="0 0 35 35" fill="none" xmlns="http://www.w3.org/2000/svg">
<path d="M26.3843 17.5203L34.722 9.18261C34.8574 9.04735 34.9336 8.86353 34.9336 8.67216C34.9336 8.48078 34.8574 8.29696 34.722 8.1617L26.8948 0.334507C26.7595 0.199079 26.5757 0.122927 26.3843 0.122927C26.1929 0.122927 26.0091 0.199079 25.8739 0.334507L17.5362 8.67216L17.5179 8.65387L9.18028 0.317048C9.04502 0.181621 8.86121 0.105469 8.66983 0.105469C8.47846 0.105469 8.29464 0.181621 8.15938 0.317048L0.332185 8.14425C0.196757 8.27951 0.120605 8.46332 0.120605 8.6547C0.120605 8.84607 0.196757 9.02989 0.332185 9.16515L8.68729 17.5203L0.332185 25.8754C0.196757 26.0106 0.120605 26.1944 0.120605 26.3858C0.120605 26.5772 0.196757 26.761 0.332185 26.8963L8.15938 34.7218C8.29464 34.8572 8.47846 34.9334 8.66983 34.9334C8.86121 34.9334 9.04502 34.8572 9.18028 34.7218L15.0779 28.8242C15.0779 28.8242 15.2683 25.2061 11.0201 19.8539L17.5346 26.3675L25.8739 34.706C26.0091 34.8414 26.1929 34.9176 26.3843 34.9176C26.5757 34.9176 26.7595 34.8414 26.8948 34.706L34.722 26.8788C34.8574 26.7435 34.9336 26.5597 34.9336 26.3684C34.9336 26.177 34.8574 25.9932 34.722 25.8579L26.3843 17.5203Z" fill="white"/>
</svg>
