<svg width="117" height="35" viewBox="0 0 117 35" fill="none" xmlns="http://www.w3.org/2000/svg">
<path d="M26.2864 17.4999L34.6327 9.12176C34.7682 8.9858 34.8445 8.80116 34.8445 8.60887C34.8445 8.41659 34.7682 8.23195 34.6327 8.09599L26.7974 0.229693C26.6619 0.0936272 26.478 0.0170963 26.2864 0.0170963C26.0949 0.0170963 25.911 0.0936272 25.7755 0.229693L17.4293 8.60787L17.4112 8.58977L9.06497 0.212597C8.92952 0.0765309 8.74558 0 8.55403 0C8.36248 0 8.17855 0.0765309 8.0431 0.212597L0.211787 8.07788C0.0762393 8.21385 0 8.39849 0 8.59077C0 8.78305 0.0762393 8.96769 0.211787 9.10366L8.57607 17.4999L0.211787 25.8952C0.0762393 26.0312 0 26.2158 0 26.4081C0 26.6004 0.0762393 26.785 0.211787 26.921L8.0431 34.7883C8.17855 34.9243 8.36248 35.0009 8.55403 35.0009C8.74558 35.0009 8.92952 34.9243 9.06497 34.7883L14.9688 28.8619C14.9688 28.8619 15.1591 25.2244 10.9083 19.8461L25.7755 34.7702C25.911 34.9062 26.0949 34.9828 26.2864 34.9828C26.478 34.9828 26.6619 34.9062 26.7974 34.7702L34.6327 26.9049C34.7682 26.7689 34.8445 26.5843 34.8445 26.392C34.8445 26.1997 34.7682 26.0151 34.6327 25.8791L26.2864 17.4999Z" fill="white"/>
<path d="M108.839 17.5005L116.562 4.5798C116.619 4.48416 116.649 4.37464 116.649 4.26301C116.649 3.92541 116.373 3.64755 116.036 3.64755H106.427C106.211 3.64805 106.011 3.7629 105.901 3.94925L103.319 8.26756L100.738 3.94623C100.628 3.75988 100.428 3.64503 100.212 3.64453H90.6026H90.6023C90.266 3.64453 89.9892 3.9224 89.9892 4.26C89.9892 4.37163 90.0194 4.48114 90.0766 4.57678L97.7997 17.4975L90.9672 28.9299L87.7945 22.3559C89.2502 21.5809 90.456 20.405 91.2698 18.9668C92.0853 17.5267 92.4933 15.7758 92.494 13.7142C92.494 10.4378 91.4922 7.94072 89.4885 6.22305C87.4849 4.50538 84.7746 3.64654 81.3577 3.64654H68.7496C68.7489 3.64654 68.7483 3.64654 68.7476 3.64654C68.386 3.64654 68.0884 3.94522 68.0884 4.30827C68.0884 4.30857 68.0884 4.30897 68.0884 4.30927V9.17366C67.6039 8.03797 66.8647 7.02989 65.9285 6.22808C63.9248 4.51041 61.2136 3.65157 57.7946 3.65157H45.1856C44.8239 3.65157 44.5264 3.95025 44.5264 4.3133V30.6918C44.5264 31.0549 44.8239 31.3535 45.1856 31.3535H53.2253C53.5869 31.3535 53.8845 31.0549 53.8845 30.6918V23.7829H57.7916C61.2132 23.7829 63.9245 22.9241 65.9255 21.2064C66.8634 20.4039 67.6037 19.3943 68.0884 18.2568V30.6918C68.0884 31.0549 68.386 31.3535 68.7476 31.3535H76.629C76.9907 31.3535 77.2882 31.0549 77.2882 30.6918V23.7829H79.0655L82.4617 30.8598C82.6065 31.1612 82.9117 31.3536 83.2451 31.3535H100.212C100.428 31.353 100.628 31.2382 100.738 31.0519L103.32 26.7335L105.902 31.0519C106.012 31.2382 106.212 31.353 106.428 31.3535H116.037C116.374 31.3535 116.65 31.0757 116.65 30.7381C116.65 30.6265 116.62 30.5169 116.563 30.4213L108.839 17.5005ZM55.8982 16.7674H53.8845V10.663H55.8982C58.2932 10.663 59.491 11.6805 59.4917 13.7152C59.4924 15.75 58.2945 16.7674 55.8982 16.7674ZM79.3831 16.7674H77.2902V10.663H79.3831C81.7782 10.663 82.9759 11.6805 82.9766 13.7152C82.9773 15.75 81.7798 16.7674 79.3841 16.7674H79.3831Z" fill="white"/>
</svg>
